<mxfile host="app.diagrams.net" agent="Mozilla/5.0 (Windows NT 10.0; Win64; x64) AppleWebKit/537.36 (KHTML, like Gecko) Chrome/131.0.0.0 Safari/537.36" version="24.9.0">
  <diagram name="第 1 页" id="_9JsD68WP0lUf4rbi5cq">
    <mxGraphModel dx="837" dy="433" grid="1" gridSize="10" guides="1" tooltips="1" connect="1" arrows="1" fold="1" page="1" pageScale="1" pageWidth="827" pageHeight="1169" math="0" shadow="0">
      <root>
        <mxCell id="0" />
        <mxCell id="1" parent="0" />
        <UserObject label="" plantUmlData="{&#xa;  &quot;data&quot;: &quot;@startuml\nskinparam backgroundColor #ffffff\nskinparam rectangle {\n  FontName Arial\n  FontSize 12\n  BorderColor #000000\n}\nskinparam arrow {\n  Color #000000\n  Thickness 1\n}\n\ntitle Multi-Modal Emotion Analysis Flow\n\n&#39; Define Colors for Sections\nrectangle \&quot;Text Input\&quot; as text_input #CCEBFF\nrectangle \&quot;BERT Encoding\&quot; as bert_encoding #CCEBFF\nrectangle \&quot;Image Input\&quot; as image_input #FFEDCC\nrectangle \&quot;Feature Extractor\\n(ResNet)\&quot; as image_feature #FFEDCC\n\n&#39; Augmentation Section\nrectangle \&quot;Text Augmentation\&quot; as text_aug #CCEBFF\nrectangle \&quot;Image Augmentation\&quot; as image_aug #FFEDCC\n\n&#39; Self-Attention Section\nrectangle \&quot;Text Self-Attention\&quot; as text_self_attention #FFE6F7\nrectangle \&quot;Image Self-Attention\&quot; as image_self_attention #FFE6F7\n\n&#39; Cross-Modal Interaction\nrectangle \&quot;Text-to-Image Attention\&quot; as text_to_image #FFCCCC\nrectangle \&quot;Image-to-Text Attention\&quot; as image_to_text #FFCCCC\nrectangle \&quot;Feature Fusion\&quot; as feature_fusion #FFCCCC\n\n&#39; Layer Fusion Section\nrectangle \&quot;Cross-Layer Fusion\&quot; as layer_fusion #FFCCCC\n\n&#39; Alignment Section\nrectangle \&quot;DTW Alignment\&quot; as dtw_alignment #D9FFCC\nrectangle \&quot;Transformer Alignment\&quot; as transformer_alignment #D9FFCC\n\n&#39; Output Section\nrectangle \&quot;Fully Connected Layer\&quot; as fc_layer #FFFACD\nrectangle \&quot;Emotion Output\&quot; as emotion_output #FFFACD\n\n&#39; Workflow Connections\ntext_input --&gt; bert_encoding\nimage_input --&gt; image_feature\n\nbert_encoding --&gt; text_aug\nimage_feature --&gt; image_aug\n\ntext_aug --&gt; text_self_attention\nimage_aug --&gt; image_self_attention\n\ntext_self_attention --&gt; text_to_image\nimage_self_attention --&gt; image_to_text\n\ntext_to_image --&gt; feature_fusion\nimage_to_text --&gt; feature_fusion\n\nfeature_fusion --&gt; layer_fusion\n\nlayer_fusion --&gt; dtw_alignment\nlayer_fusion --&gt; transformer_alignment\n\ndtw_alignment --&gt; fc_layer\ntransformer_alignment --&gt; fc_layer\nfc_layer --&gt; emotion_output\n\n@enduml\n&quot;,&#xa;  &quot;format&quot;: &quot;svg&quot;&#xa;}" id="sph-SEIjIUjmDubmfmZO-19">
          <mxCell style="shape=image;noLabel=1;verticalAlign=top;aspect=fixed;imageAspect=0;image=data:image/svg+xml,PD94bWwgdmVyc2lvbj0iMS4wIiBlbmNvZGluZz0idXMtYXNjaWkiIHN0YW5kYWxvbmU9Im5vIj8+PHN2ZyB4bWxucz0iaHR0cDovL3d3dy53My5vcmcvMjAwMC9zdmciIHhtbG5zOnhsaW5rPSJodHRwOi8vd3d3LnczLm9yZy8xOTk5L3hsaW5rIiBjb250ZW50U3R5bGVUeXBlPSJ0ZXh0L2NzcyIgaGVpZ2h0PSI5MzFweCIgcHJlc2VydmVBc3BlY3RSYXRpbz0ibm9uZSIgc3R5bGU9IndpZHRoOjM4NnB4O2hlaWdodDo5MzFweDtiYWNrZ3JvdW5kOiNGRkZGRkY7IiB2ZXJzaW9uPSIxLjEiIHZpZXdCb3g9IjAgMCAzODYgOTMxIiB3aWR0aD0iMzg2cHgiIHpvb21BbmRQYW49Im1hZ25pZnkiPjxkZWZzLz48Zz48dGV4dCBmaWxsPSIjMDAwMDAwIiBmb250LWZhbWlseT0ic2Fucy1zZXJpZiIgZm9udC1zaXplPSIxNCIgZm9udC13ZWlnaHQ9ImJvbGQiIGxlbmd0aEFkanVzdD0ic3BhY2luZyIgdGV4dExlbmd0aD0iMjMzIiB4PSI2OS41IiB5PSIyMy4yMzQ0Ij5NdWx0aS1Nb2RhbCBFbW90aW9uIEFuYWx5c2lzIEZsb3c8L3RleHQ+PCEtLWVudGl0eSB0ZXh0X2lucHV0LS0+PGcgaWQ9ImVsZW1fdGV4dF9pbnB1dCI+PHJlY3QgZmlsbD0iI0NDRUJGRiIgaGVpZ2h0PSIzMi44NDM4IiByeD0iMi41IiByeT0iMi41IiBzdHlsZT0ic3Ryb2tlOiMwMDAwMDA7c3Ryb2tlLXdpZHRoOjAuNTsiIHdpZHRoPSI4NSIgeD0iNDkiIHk9IjQyLjk4NDQiLz48dGV4dCBmaWxsPSIjMDAwMDAwIiBmb250LWZhbWlseT0iQXJpYWwiIGZvbnQtc2l6ZT0iMTIiIGxlbmd0aEFkanVzdD0ic3BhY2luZyIgdGV4dExlbmd0aD0iNjUiIHg9IjU5IiB5PSI2NC4zMjgxIj5UZXh0IElucHV0PC90ZXh0PjwvZz48IS0tZW50aXR5IGJlcnRfZW5jb2RpbmctLT48ZyBpZD0iZWxlbV9iZXJ0X2VuY29kaW5nIj48cmVjdCBmaWxsPSIjQ0NFQkZGIiBoZWlnaHQ9IjMyLjg0MzgiIHJ4PSIyLjUiIHJ5PSIyLjUiIHN0eWxlPSJzdHJva2U6IzAwMDAwMDtzdHJva2Utd2lkdGg6MC41OyIgd2lkdGg9IjEwNSIgeD0iMzkiIHk9IjE0Mi40ODQ0Ii8+PHRleHQgZmlsbD0iIzAwMDAwMCIgZm9udC1mYW1pbHk9IkFyaWFsIiBmb250LXNpemU9IjEyIiBsZW5ndGhBZGp1c3Q9InNwYWNpbmciIHRleHRMZW5ndGg9Ijg1IiB4PSI0OSIgeT0iMTYzLjgyODEiPkJFUlQgRW5jb2Rpbmc8L3RleHQ+PC9nPjwhLS1lbnRpdHkgaW1hZ2VfaW5wdXQtLT48ZyBpZD0iZWxlbV9pbWFnZV9pbnB1dCI+PHJlY3QgZmlsbD0iI0ZGRURDQyIgaGVpZ2h0PSIzMi44NDM4IiByeD0iMi41IiByeT0iMi41IiBzdHlsZT0ic3Ryb2tlOiMwMDAwMDA7c3Ryb2tlLXdpZHRoOjAuNTsiIHdpZHRoPSI5MiIgeD0iMjQ5LjUiIHk9IjQyLjk4NDQiLz48dGV4dCBmaWxsPSIjMDAwMDAwIiBmb250LWZhbWlseT0iQXJpYWwiIGZvbnQtc2l6ZT0iMTIiIGxlbmd0aEFkanVzdD0ic3BhY2luZyIgdGV4dExlbmd0aD0iNzIiIHg9IjI1OS41IiB5PSI2NC4zMjgxIj5JbWFnZSBJbnB1dDwvdGV4dD48L2c+PCEtLWVudGl0eSBpbWFnZV9mZWF0dXJlLS0+PGcgaWQ9ImVsZW1faW1hZ2VfZmVhdHVyZSI+PHJlY3QgZmlsbD0iI0ZGRURDQyIgaGVpZ2h0PSI0NS42ODc1IiByeD0iMi41IiByeT0iMi41IiBzdHlsZT0ic3Ryb2tlOiMwMDAwMDA7c3Ryb2tlLXdpZHRoOjAuNTsiIHdpZHRoPSIxMzIiIHg9IjIyOS41IiB5PSIxMzUuOTg0NCIvPjx0ZXh0IGZpbGw9IiMwMDAwMDAiIGZvbnQtZmFtaWx5PSJBcmlhbCIgZm9udC1zaXplPSIxMiIgbGVuZ3RoQWRqdXN0PSJzcGFjaW5nIiB0ZXh0TGVuZ3RoPSIxMTIiIHg9IjIzOS41IiB5PSIxNTcuMzI4MSI+RmVhdHVyZSBFeHRyYWN0b3I8L3RleHQ+PHRleHQgZmlsbD0iIzAwMDAwMCIgZm9udC1mYW1pbHk9IkFyaWFsIiBmb250LXNpemU9IjEyIiBsZW5ndGhBZGp1c3Q9InNwYWNpbmciIHRleHRMZW5ndGg9IjUzIiB4PSIyMzkuNSIgeT0iMTcwLjE3MTkiPihSZXNOZXQpPC90ZXh0PjwvZz48IS0tZW50aXR5IHRleHRfYXVnLS0+PGcgaWQ9ImVsZW1fdGV4dF9hdWciPjxyZWN0IGZpbGw9IiNDQ0VCRkYiIGhlaWdodD0iMzIuODQzOCIgcng9IjIuNSIgcnk9IjIuNSIgc3R5bGU9InN0cm9rZTojMDAwMDAwO3N0cm9rZS13aWR0aDowLjU7IiB3aWR0aD0iMTMyIiB4PSIyNS41IiB5PSIyNDEuOTg0NCIvPjx0ZXh0IGZpbGw9IiMwMDAwMDAiIGZvbnQtZmFtaWx5PSJBcmlhbCIgZm9udC1zaXplPSIxMiIgbGVuZ3RoQWRqdXN0PSJzcGFjaW5nIiB0ZXh0TGVuZ3RoPSIxMTIiIHg9IjM1LjUiIHk9IjI2My4zMjgxIj5UZXh0IEF1Z21lbnRhdGlvbjwvdGV4dD48L2c+PCEtLWVudGl0eSBpbWFnZV9hdWctLT48ZyBpZD0iZWxlbV9pbWFnZV9hdWciPjxyZWN0IGZpbGw9IiNGRkVEQ0MiIGhlaWdodD0iMzIuODQzOCIgcng9IjIuNSIgcnk9IjIuNSIgc3R5bGU9InN0cm9rZTojMDAwMDAwO3N0cm9rZS13aWR0aDowLjU7IiB3aWR0aD0iMTM5IiB4PSIyMjYiIHk9IjI0MS45ODQ0Ii8+PHRleHQgZmlsbD0iIzAwMDAwMCIgZm9udC1mYW1pbHk9IkFyaWFsIiBmb250LXNpemU9IjEyIiBsZW5ndGhBZGp1c3Q9InNwYWNpbmciIHRleHRMZW5ndGg9IjExOSIgeD0iMjM2IiB5PSIyNjMuMzI4MSI+SW1hZ2UgQXVnbWVudGF0aW9uPC90ZXh0PjwvZz48IS0tZW50aXR5IHRleHRfc2VsZl9hdHRlbnRpb24tLT48ZyBpZD0iZWxlbV90ZXh0X3NlbGZfYXR0ZW50aW9uIj48cmVjdCBmaWxsPSIjRkZFNkY3IiBoZWlnaHQ9IjMyLjg0MzgiIHJ4PSIyLjUiIHJ5PSIyLjUiIHN0eWxlPSJzdHJva2U6IzAwMDAwMDtzdHJva2Utd2lkdGg6MC41OyIgd2lkdGg9IjE0MyIgeD0iMjAiIHk9IjMzNC45ODQ0Ii8+PHRleHQgZmlsbD0iIzAwMDAwMCIgZm9udC1mYW1pbHk9IkFyaWFsIiBmb250LXNpemU9IjEyIiBsZW5ndGhBZGp1c3Q9InNwYWNpbmciIHRleHRMZW5ndGg9IjEyMyIgeD0iMzAiIHk9IjM1Ni4zMjgxIj5UZXh0IFNlbGYtQXR0ZW50aW9uPC90ZXh0PjwvZz48IS0tZW50aXR5IGltYWdlX3NlbGZfYXR0ZW50aW9uLS0+PGcgaWQ9ImVsZW1faW1hZ2Vfc2VsZl9hdHRlbnRpb24iPjxyZWN0IGZpbGw9IiNGRkU2RjciIGhlaWdodD0iMzIuODQzOCIgcng9IjIuNSIgcnk9IjIuNSIgc3R5bGU9InN0cm9rZTojMDAwMDAwO3N0cm9rZS13aWR0aDowLjU7IiB3aWR0aD0iMTUwIiB4PSIyMjAuNSIgeT0iMzM0Ljk4NDQiLz48dGV4dCBmaWxsPSIjMDAwMDAwIiBmb250LWZhbWlseT0iQXJpYWwiIGZvbnQtc2l6ZT0iMTIiIGxlbmd0aEFkanVzdD0ic3BhY2luZyIgdGV4dExlbmd0aD0iMTMwIiB4PSIyMzAuNSIgeT0iMzU2LjMyODEiPkltYWdlIFNlbGYtQXR0ZW50aW9uPC90ZXh0PjwvZz48IS0tZW50aXR5IHRleHRfdG9faW1hZ2UtLT48ZyBpZD0iZWxlbV90ZXh0X3RvX2ltYWdlIj48cmVjdCBmaWxsPSIjRkZDQ0NDIiBoZWlnaHQ9IjMyLjg0MzgiIHJ4PSIyLjUiIHJ5PSIyLjUiIHN0eWxlPSJzdHJva2U6IzAwMDAwMDtzdHJva2Utd2lkdGg6MC41OyIgd2lkdGg9IjE2OSIgeD0iNyIgeT0iNDI3Ljk4NDQiLz48dGV4dCBmaWxsPSIjMDAwMDAwIiBmb250LWZhbWlseT0iQXJpYWwiIGZvbnQtc2l6ZT0iMTIiIGxlbmd0aEFkanVzdD0ic3BhY2luZyIgdGV4dExlbmd0aD0iMTQ5IiB4PSIxNyIgeT0iNDQ5LjMyODEiPlRleHQtdG8tSW1hZ2UgQXR0ZW50aW9uPC90ZXh0PjwvZz48IS0tZW50aXR5IGltYWdlX3RvX3RleHQtLT48ZyBpZD0iZWxlbV9pbWFnZV90b190ZXh0Ij48cmVjdCBmaWxsPSIjRkZDQ0NDIiBoZWlnaHQ9IjMyLjg0MzgiIHJ4PSIyLjUiIHJ5PSIyLjUiIHN0eWxlPSJzdHJva2U6IzAwMDAwMDtzdHJva2Utd2lkdGg6MC41OyIgd2lkdGg9IjE2OSIgeD0iMjExIiB5PSI0MjcuOTg0NCIvPjx0ZXh0IGZpbGw9IiMwMDAwMDAiIGZvbnQtZmFtaWx5PSJBcmlhbCIgZm9udC1zaXplPSIxMiIgbGVuZ3RoQWRqdXN0PSJzcGFjaW5nIiB0ZXh0TGVuZ3RoPSIxNDkiIHg9IjIyMSIgeT0iNDQ5LjMyODEiPkltYWdlLXRvLVRleHQgQXR0ZW50aW9uPC90ZXh0PjwvZz48IS0tZW50aXR5IGZlYXR1cmVfZnVzaW9uLS0+PGcgaWQ9ImVsZW1fZmVhdHVyZV9mdXNpb24iPjxyZWN0IGZpbGw9IiNGRkNDQ0MiIGhlaWdodD0iMzIuODQzOCIgcng9IjIuNSIgcnk9IjIuNSIgc3R5bGU9InN0cm9rZTojMDAwMDAwO3N0cm9rZS13aWR0aDowLjU7IiB3aWR0aD0iMTEzIiB4PSIxMzciIHk9IjUyMC45ODQ0Ii8+PHRleHQgZmlsbD0iIzAwMDAwMCIgZm9udC1mYW1pbHk9IkFyaWFsIiBmb250LXNpemU9IjEyIiBsZW5ndGhBZGp1c3Q9InNwYWNpbmciIHRleHRMZW5ndGg9IjkzIiB4PSIxNDciIHk9IjU0Mi4zMjgxIj5GZWF0dXJlIEZ1c2lvbjwvdGV4dD48L2c+PCEtLWVudGl0eSBsYXllcl9mdXNpb24tLT48ZyBpZD0iZWxlbV9sYXllcl9mdXNpb24iPjxyZWN0IGZpbGw9IiNGRkNDQ0MiIGhlaWdodD0iMzIuODQzOCIgcng9IjIuNSIgcnk9IjIuNSIgc3R5bGU9InN0cm9rZTojMDAwMDAwO3N0cm9rZS13aWR0aDowLjU7IiB3aWR0aD0iMTQxIiB4PSIxMjMiIHk9IjYxMy45ODQ0Ii8+PHRleHQgZmlsbD0iIzAwMDAwMCIgZm9udC1mYW1pbHk9IkFyaWFsIiBmb250LXNpemU9IjEyIiBsZW5ndGhBZGp1c3Q9InNwYWNpbmciIHRleHRMZW5ndGg9IjEyMSIgeD0iMTMzIiB5PSI2MzUuMzI4MSI+Q3Jvc3MtTGF5ZXIgRnVzaW9uPC90ZXh0PjwvZz48IS0tZW50aXR5IGR0d19hbGlnbm1lbnQtLT48ZyBpZD0iZWxlbV9kdHdfYWxpZ25tZW50Ij48cmVjdCBmaWxsPSIjRDlGRkNDIiBoZWlnaHQ9IjMyLjg0MzgiIHJ4PSIyLjUiIHJ5PSIyLjUiIHN0eWxlPSJzdHJva2U6IzAwMDAwMDtzdHJva2Utd2lkdGg6MC41OyIgd2lkdGg9IjEwNSIgeD0iNTgiIHk9IjcwNi45ODQ0Ii8+PHRleHQgZmlsbD0iIzAwMDAwMCIgZm9udC1mYW1pbHk9IkFyaWFsIiBmb250LXNpemU9IjEyIiBsZW5ndGhBZGp1c3Q9InNwYWNpbmciIHRleHRMZW5ndGg9Ijg1IiB4PSI2OCIgeT0iNzI4LjMyODEiPkRUVyBBbGlnbm1lbnQ8L3RleHQ+PC9nPjwhLS1lbnRpdHkgdHJhbnNmb3JtZXJfYWxpZ25tZW50LS0+PGcgaWQ9ImVsZW1fdHJhbnNmb3JtZXJfYWxpZ25tZW50Ij48cmVjdCBmaWxsPSIjRDlGRkNDIiBoZWlnaHQ9IjMyLjg0MzgiIHJ4PSIyLjUiIHJ5PSIyLjUiIHN0eWxlPSJzdHJva2U6IzAwMDAwMDtzdHJva2Utd2lkdGg6MC41OyIgd2lkdGg9IjE1OSIgeD0iMTk4IiB5PSI3MDYuOTg0NCIvPjx0ZXh0IGZpbGw9IiMwMDAwMDAiIGZvbnQtZmFtaWx5PSJBcmlhbCIgZm9udC1zaXplPSIxMiIgbGVuZ3RoQWRqdXN0PSJzcGFjaW5nIiB0ZXh0TGVuZ3RoPSIxMzkiIHg9IjIwOCIgeT0iNzI4LjMyODEiPlRyYW5zZm9ybWVyIEFsaWdubWVudDwvdGV4dD48L2c+PCEtLWVudGl0eSBmY19sYXllci0tPjxnIGlkPSJlbGVtX2ZjX2xheWVyIj48cmVjdCBmaWxsPSIjRkZGQUNEIiBoZWlnaHQ9IjMyLjg0MzgiIHJ4PSIyLjUiIHJ5PSIyLjUiIHN0eWxlPSJzdHJva2U6IzAwMDAwMDtzdHJva2Utd2lkdGg6MC41OyIgd2lkdGg9IjE1OSIgeD0iMTE0IiB5PSI3OTkuOTg0NCIvPjx0ZXh0IGZpbGw9IiMwMDAwMDAiIGZvbnQtZmFtaWx5PSJBcmlhbCIgZm9udC1zaXplPSIxMiIgbGVuZ3RoQWRqdXN0PSJzcGFjaW5nIiB0ZXh0TGVuZ3RoPSIxMzkiIHg9IjEyNCIgeT0iODIxLjMyODEiPkZ1bGx5IENvbm5lY3RlZCBMYXllcjwvdGV4dD48L2c+PCEtLWVudGl0eSBlbW90aW9uX291dHB1dC0tPjxnIGlkPSJlbGVtX2Vtb3Rpb25fb3V0cHV0Ij48cmVjdCBmaWxsPSIjRkZGQUNEIiBoZWlnaHQ9IjMyLjg0MzgiIHJ4PSIyLjUiIHJ5PSIyLjUiIHN0eWxlPSJzdHJva2U6IzAwMDAwMDtzdHJva2Utd2lkdGg6MC41OyIgd2lkdGg9IjExMSIgeD0iMTM4IiB5PSI4OTIuOTg0NCIvPjx0ZXh0IGZpbGw9IiMwMDAwMDAiIGZvbnQtZmFtaWx5PSJBcmlhbCIgZm9udC1zaXplPSIxMiIgbGVuZ3RoQWRqdXN0PSJzcGFjaW5nIiB0ZXh0TGVuZ3RoPSI5MSIgeD0iMTQ4IiB5PSI5MTQuMzI4MSI+RW1vdGlvbiBPdXRwdXQ8L3RleHQ+PC9nPjwhLS1saW5rIHRleHRfaW5wdXQgdG8gYmVydF9lbmNvZGluZy0tPjxnIGlkPSJsaW5rX3RleHRfaW5wdXRfYmVydF9lbmNvZGluZyI+PHBhdGggZD0iTTkxLjUsNzYuMTU0NCBDOTEuNSw5NC4zNDQ0IDkxLjUsMTE4LjE4NDQgOTEuNSwxMzYuMzU0NCAiIGZpbGw9Im5vbmUiIGlkPSJ0ZXh0X2lucHV0LXRvLWJlcnRfZW5jb2RpbmciIHN0eWxlPSJzdHJva2U6IzAwMDAwMDtzdHJva2Utd2lkdGg6MS4wOyIvPjxwb2x5Z29uIGZpbGw9IiMwMDAwMDAiIHBvaW50cz0iOTEuNSwxNDIuMzU0NCw5NS41LDEzMy4zNTQ0LDkxLjUsMTM3LjM1NDQsODcuNSwxMzMuMzU0NCw5MS41LDE0Mi4zNTQ0IiBzdHlsZT0ic3Ryb2tlOiMwMDAwMDA7c3Ryb2tlLXdpZHRoOjEuMDsiLz48L2c+PCEtLWxpbmsgaW1hZ2VfaW5wdXQgdG8gaW1hZ2VfZmVhdHVyZS0tPjxnIGlkPSJsaW5rX2ltYWdlX2lucHV0X2ltYWdlX2ZlYXR1cmUiPjxwYXRoIGQ9Ik0yOTUuNSw3Ni4xNTQ0IEMyOTUuNSw5Mi4yOTQ0IDI5NS41LDExMS42MTQ0IDI5NS41LDEyOS44MTQ0ICIgZmlsbD0ibm9uZSIgaWQ9ImltYWdlX2lucHV0LXRvLWltYWdlX2ZlYXR1cmUiIHN0eWxlPSJzdHJva2U6IzAwMDAwMDtzdHJva2Utd2lkdGg6MS4wOyIvPjxwb2x5Z29uIGZpbGw9IiMwMDAwMDAiIHBvaW50cz0iMjk1LjUsMTM1LjgxNDQsMjk5LjUsMTI2LjgxNDQsMjk1LjUsMTMwLjgxNDQsMjkxLjUsMTI2LjgxNDQsMjk1LjUsMTM1LjgxNDQiIHN0eWxlPSJzdHJva2U6IzAwMDAwMDtzdHJva2Utd2lkdGg6MS4wOyIvPjwvZz48IS0tbGluayBiZXJ0X2VuY29kaW5nIHRvIHRleHRfYXVnLS0+PGcgaWQ9ImxpbmtfYmVydF9lbmNvZGluZ190ZXh0X2F1ZyI+PHBhdGggZD0iTTkxLjUsMTc1LjY1NDQgQzkxLjUsMTkzLjg0NDQgOTEuNSwyMTcuNjg0NCA5MS41LDIzNS44NTQ0ICIgZmlsbD0ibm9uZSIgaWQ9ImJlcnRfZW5jb2RpbmctdG8tdGV4dF9hdWciIHN0eWxlPSJzdHJva2U6IzAwMDAwMDtzdHJva2Utd2lkdGg6MS4wOyIvPjxwb2x5Z29uIGZpbGw9IiMwMDAwMDAiIHBvaW50cz0iOTEuNSwyNDEuODU0NCw5NS41LDIzMi44NTQ0LDkxLjUsMjM2Ljg1NDQsODcuNSwyMzIuODU0NCw5MS41LDI0MS44NTQ0IiBzdHlsZT0ic3Ryb2tlOiMwMDAwMDA7c3Ryb2tlLXdpZHRoOjEuMDsiLz48L2c+PCEtLWxpbmsgaW1hZ2VfZmVhdHVyZSB0byBpbWFnZV9hdWctLT48ZyBpZD0ibGlua19pbWFnZV9mZWF0dXJlX2ltYWdlX2F1ZyI+PHBhdGggZD0iTTI5NS41LDE4Mi4xMDQ0IEMyOTUuNSwyMDAuMzE0NCAyOTUuNSwyMTkuNjY0NCAyOTUuNSwyMzUuODI0NCAiIGZpbGw9Im5vbmUiIGlkPSJpbWFnZV9mZWF0dXJlLXRvLWltYWdlX2F1ZyIgc3R5bGU9InN0cm9rZTojMDAwMDAwO3N0cm9rZS13aWR0aDoxLjA7Ii8+PHBvbHlnb24gZmlsbD0iIzAwMDAwMCIgcG9pbnRzPSIyOTUuNSwyNDEuODI0NCwyOTkuNSwyMzIuODI0NCwyOTUuNSwyMzYuODI0NCwyOTEuNSwyMzIuODI0NCwyOTUuNSwyNDEuODI0NCIgc3R5bGU9InN0cm9rZTojMDAwMDAwO3N0cm9rZS13aWR0aDoxLjA7Ii8+PC9nPjwhLS1saW5rIHRleHRfYXVnIHRvIHRleHRfc2VsZl9hdHRlbnRpb24tLT48ZyBpZD0ibGlua190ZXh0X2F1Z190ZXh0X3NlbGZfYXR0ZW50aW9uIj48cGF0aCBkPSJNOTEuNSwyNzUuMzM0NCBDOTEuNSwyOTIuMDM0NCA5MS41LDMxMi4xODQ0IDkxLjUsMzI4LjgxNDQgIiBmaWxsPSJub25lIiBpZD0idGV4dF9hdWctdG8tdGV4dF9zZWxmX2F0dGVudGlvbiIgc3R5bGU9InN0cm9rZTojMDAwMDAwO3N0cm9rZS13aWR0aDoxLjA7Ii8+PHBvbHlnb24gZmlsbD0iIzAwMDAwMCIgcG9pbnRzPSI5MS41LDMzNC44MTQ0LDk1LjUsMzI1LjgxNDQsOTEuNSwzMjkuODE0NCw4Ny41LDMyNS44MTQ0LDkxLjUsMzM0LjgxNDQiIHN0eWxlPSJzdHJva2U6IzAwMDAwMDtzdHJva2Utd2lkdGg6MS4wOyIvPjwvZz48IS0tbGluayBpbWFnZV9hdWcgdG8gaW1hZ2Vfc2VsZl9hdHRlbnRpb24tLT48ZyBpZD0ibGlua19pbWFnZV9hdWdfaW1hZ2Vfc2VsZl9hdHRlbnRpb24iPjxwYXRoIGQ9Ik0yOTUuNSwyNzUuMzM0NCBDMjk1LjUsMjkyLjAzNDQgMjk1LjUsMzEyLjE4NDQgMjk1LjUsMzI4LjgxNDQgIiBmaWxsPSJub25lIiBpZD0iaW1hZ2VfYXVnLXRvLWltYWdlX3NlbGZfYXR0ZW50aW9uIiBzdHlsZT0ic3Ryb2tlOiMwMDAwMDA7c3Ryb2tlLXdpZHRoOjEuMDsiLz48cG9seWdvbiBmaWxsPSIjMDAwMDAwIiBwb2ludHM9IjI5NS41LDMzNC44MTQ0LDI5OS41LDMyNS44MTQ0LDI5NS41LDMyOS44MTQ0LDI5MS41LDMyNS44MTQ0LDI5NS41LDMzNC44MTQ0IiBzdHlsZT0ic3Ryb2tlOiMwMDAwMDA7c3Ryb2tlLXdpZHRoOjEuMDsiLz48L2c+PCEtLWxpbmsgdGV4dF9zZWxmX2F0dGVudGlvbiB0byB0ZXh0X3RvX2ltYWdlLS0+PGcgaWQ9ImxpbmtfdGV4dF9zZWxmX2F0dGVudGlvbl90ZXh0X3RvX2ltYWdlIj48cGF0aCBkPSJNOTEuNSwzNjguMzM0NCBDOTEuNSwzODUuMDM0NCA5MS41LDQwNS4xODQ0IDkxLjUsNDIxLjgxNDQgIiBmaWxsPSJub25lIiBpZD0idGV4dF9zZWxmX2F0dGVudGlvbi10by10ZXh0X3RvX2ltYWdlIiBzdHlsZT0ic3Ryb2tlOiMwMDAwMDA7c3Ryb2tlLXdpZHRoOjEuMDsiLz48cG9seWdvbiBmaWxsPSIjMDAwMDAwIiBwb2ludHM9IjkxLjUsNDI3LjgxNDQsOTUuNSw0MTguODE0NCw5MS41LDQyMi44MTQ0LDg3LjUsNDE4LjgxNDQsOTEuNSw0MjcuODE0NCIgc3R5bGU9InN0cm9rZTojMDAwMDAwO3N0cm9rZS13aWR0aDoxLjA7Ii8+PC9nPjwhLS1saW5rIGltYWdlX3NlbGZfYXR0ZW50aW9uIHRvIGltYWdlX3RvX3RleHQtLT48ZyBpZD0ibGlua19pbWFnZV9zZWxmX2F0dGVudGlvbl9pbWFnZV90b190ZXh0Ij48cGF0aCBkPSJNMjk1LjUsMzY4LjMzNDQgQzI5NS41LDM4NS4wMzQ0IDI5NS41LDQwNS4xODQ0IDI5NS41LDQyMS44MTQ0ICIgZmlsbD0ibm9uZSIgaWQ9ImltYWdlX3NlbGZfYXR0ZW50aW9uLXRvLWltYWdlX3RvX3RleHQiIHN0eWxlPSJzdHJva2U6IzAwMDAwMDtzdHJva2Utd2lkdGg6MS4wOyIvPjxwb2x5Z29uIGZpbGw9IiMwMDAwMDAiIHBvaW50cz0iMjk1LjUsNDI3LjgxNDQsMjk5LjUsNDE4LjgxNDQsMjk1LjUsNDIyLjgxNDQsMjkxLjUsNDE4LjgxNDQsMjk1LjUsNDI3LjgxNDQiIHN0eWxlPSJzdHJva2U6IzAwMDAwMDtzdHJva2Utd2lkdGg6MS4wOyIvPjwvZz48IS0tbGluayB0ZXh0X3RvX2ltYWdlIHRvIGZlYXR1cmVfZnVzaW9uLS0+PGcgaWQ9ImxpbmtfdGV4dF90b19pbWFnZV9mZWF0dXJlX2Z1c2lvbiI+PHBhdGggZD0iTTEwOS4yNyw0NjEuMzM0NCBDMTI3Ljk5LDQ3OC4wMzQ0IDE1Mi44MTE4LDUwMC4xOTEyIDE3MS40NjE4LDUxNi44MjEyICIgZmlsbD0ibm9uZSIgaWQ9InRleHRfdG9faW1hZ2UtdG8tZmVhdHVyZV9mdXNpb24iIHN0eWxlPSJzdHJva2U6IzAwMDAwMDtzdHJva2Utd2lkdGg6MS4wOyIvPjxwb2x5Z29uIGZpbGw9IiMwMDAwMDAiIHBvaW50cz0iMTc1Ljk0LDUyMC44MTQ0LDE3MS44ODQ4LDUxMS44MzkxLDE3Mi4yMDgxLDUxNy40ODY3LDE2Ni41NjA1LDUxNy44MTAxLDE3NS45NCw1MjAuODE0NCIgc3R5bGU9InN0cm9rZTojMDAwMDAwO3N0cm9rZS13aWR0aDoxLjA7Ii8+PC9nPjwhLS1saW5rIGltYWdlX3RvX3RleHQgdG8gZmVhdHVyZV9mdXNpb24tLT48ZyBpZD0ibGlua19pbWFnZV90b190ZXh0X2ZlYXR1cmVfZnVzaW9uIj48cGF0aCBkPSJNMjc3LjczLDQ2MS4zMzQ0IEMyNTkuMDEsNDc4LjAzNDQgMjM0LjE4ODIsNTAwLjE5MTIgMjE1LjUzODIsNTE2LjgyMTIgIiBmaWxsPSJub25lIiBpZD0iaW1hZ2VfdG9fdGV4dC10by1mZWF0dXJlX2Z1c2lvbiIgc3R5bGU9InN0cm9rZTojMDAwMDAwO3N0cm9rZS13aWR0aDoxLjA7Ii8+PHBvbHlnb24gZmlsbD0iIzAwMDAwMCIgcG9pbnRzPSIyMTEuMDYsNTIwLjgxNDQsMjIwLjQzOTUsNTE3LjgxMDEsMjE0Ljc5MTksNTE3LjQ4NjcsMjE1LjExNTIsNTExLjgzOTEsMjExLjA2LDUyMC44MTQ0IiBzdHlsZT0ic3Ryb2tlOiMwMDAwMDA7c3Ryb2tlLXdpZHRoOjEuMDsiLz48L2c+PCEtLWxpbmsgZmVhdHVyZV9mdXNpb24gdG8gbGF5ZXJfZnVzaW9uLS0+PGcgaWQ9ImxpbmtfZmVhdHVyZV9mdXNpb25fbGF5ZXJfZnVzaW9uIj48cGF0aCBkPSJNMTkzLjUsNTU0LjMzNDQgQzE5My41LDU3MS4wMzQ0IDE5My41LDU5MS4xODQ0IDE5My41LDYwNy44MTQ0ICIgZmlsbD0ibm9uZSIgaWQ9ImZlYXR1cmVfZnVzaW9uLXRvLWxheWVyX2Z1c2lvbiIgc3R5bGU9InN0cm9rZTojMDAwMDAwO3N0cm9rZS13aWR0aDoxLjA7Ii8+PHBvbHlnb24gZmlsbD0iIzAwMDAwMCIgcG9pbnRzPSIxOTMuNSw2MTMuODE0NCwxOTcuNSw2MDQuODE0NCwxOTMuNSw2MDguODE0NCwxODkuNSw2MDQuODE0NCwxOTMuNSw2MTMuODE0NCIgc3R5bGU9InN0cm9rZTojMDAwMDAwO3N0cm9rZS13aWR0aDoxLjA7Ii8+PC9nPjwhLS1saW5rIGxheWVyX2Z1c2lvbiB0byBkdHdfYWxpZ25tZW50LS0+PGcgaWQ9ImxpbmtfbGF5ZXJfZnVzaW9uX2R0d19hbGlnbm1lbnQiPjxwYXRoIGQ9Ik0xNzkuMDQsNjQ3LjMzNDQgQzE2My44MSw2NjQuMDM0NCAxNDQuMDAzNiw2ODUuNzUxNiAxMjguODMzNiw3MDIuMzgxNiAiIGZpbGw9Im5vbmUiIGlkPSJsYXllcl9mdXNpb24tdG8tZHR3X2FsaWdubWVudCIgc3R5bGU9InN0cm9rZTojMDAwMDAwO3N0cm9rZS13aWR0aDoxLjA7Ii8+PHBvbHlnb24gZmlsbD0iIzAwMDAwMCIgcG9pbnRzPSIxMjQuNzksNzA2LjgxNDQsMTMzLjgxMDYsNzAyLjg2MSwxMjguMTU5Nyw3MDMuMTIwNCwxMjcuOTAwMiw2OTcuNDY5NSwxMjQuNzksNzA2LjgxNDQiIHN0eWxlPSJzdHJva2U6IzAwMDAwMDtzdHJva2Utd2lkdGg6MS4wOyIvPjwvZz48IS0tbGluayBsYXllcl9mdXNpb24gdG8gdHJhbnNmb3JtZXJfYWxpZ25tZW50LS0+PGcgaWQ9ImxpbmtfbGF5ZXJfZnVzaW9uX3RyYW5zZm9ybWVyX2FsaWdubWVudCI+PHBhdGggZD0iTTIwOC4xMyw2NDcuMzM0NCBDMjIzLjU1LDY2NC4wMzQ0IDI0My42MDksNjg1Ljc3NjggMjU4Ljk2OSw3MDIuNDA2OCAiIGZpbGw9Im5vbmUiIGlkPSJsYXllcl9mdXNpb24tdG8tdHJhbnNmb3JtZXJfYWxpZ25tZW50IiBzdHlsZT0ic3Ryb2tlOiMwMDAwMDA7c3Ryb2tlLXdpZHRoOjEuMDsiLz48cG9seWdvbiBmaWxsPSIjMDAwMDAwIiBwb2ludHM9IjI2My4wNCw3MDYuODE0NCwyNTkuODcxOSw2OTcuNDg5LDI1OS42NDc1LDcwMy4xNDE0LDI1My45OTUxLDcwMi45MTcsMjYzLjA0LDcwNi44MTQ0IiBzdHlsZT0ic3Ryb2tlOiMwMDAwMDA7c3Ryb2tlLXdpZHRoOjEuMDsiLz48L2c+PCEtLWxpbmsgZHR3X2FsaWdubWVudCB0byBmY19sYXllci0tPjxnIGlkPSJsaW5rX2R0d19hbGlnbm1lbnRfZmNfbGF5ZXIiPjxwYXRoIGQ9Ik0xMjQuOTYsNzQwLjMzNDQgQzE0MC4xOSw3NTcuMDM0NCAxNTkuOTk2NCw3NzguNzUxNiAxNzUuMTY2NCw3OTUuMzgxNiAiIGZpbGw9Im5vbmUiIGlkPSJkdHdfYWxpZ25tZW50LXRvLWZjX2xheWVyIiBzdHlsZT0ic3Ryb2tlOiMwMDAwMDA7c3Ryb2tlLXdpZHRoOjEuMDsiLz48cG9seWdvbiBmaWxsPSIjMDAwMDAwIiBwb2ludHM9IjE3OS4yMSw3OTkuODE0NCwxNzYuMDk5OCw3OTAuNDY5NSwxNzUuODQwMyw3OTYuMTIwNCwxNzAuMTg5NCw3OTUuODYxLDE3OS4yMSw3OTkuODE0NCIgc3R5bGU9InN0cm9rZTojMDAwMDAwO3N0cm9rZS13aWR0aDoxLjA7Ii8+PC9nPjwhLS1saW5rIHRyYW5zZm9ybWVyX2FsaWdubWVudCB0byBmY19sYXllci0tPjxnIGlkPSJsaW5rX3RyYW5zZm9ybWVyX2FsaWdubWVudF9mY19sYXllciI+PHBhdGggZD0iTTI2Mi44Nyw3NDAuMzM0NCBDMjQ3LjQ1LDc1Ny4wMzQ0IDIyNy4zOTEsNzc4Ljc3NjggMjEyLjAzMSw3OTUuNDA2OCAiIGZpbGw9Im5vbmUiIGlkPSJ0cmFuc2Zvcm1lcl9hbGlnbm1lbnQtdG8tZmNfbGF5ZXIiIHN0eWxlPSJzdHJva2U6IzAwMDAwMDtzdHJva2Utd2lkdGg6MS4wOyIvPjxwb2x5Z29uIGZpbGw9IiMwMDAwMDAiIHBvaW50cz0iMjA3Ljk2LDc5OS44MTQ0LDIxNy4wMDQ5LDc5NS45MTcsMjExLjM1MjUsNzk2LjE0MTQsMjExLjEyODEsNzkwLjQ4OSwyMDcuOTYsNzk5LjgxNDQiIHN0eWxlPSJzdHJva2U6IzAwMDAwMDtzdHJva2Utd2lkdGg6MS4wOyIvPjwvZz48IS0tbGluayBmY19sYXllciB0byBlbW90aW9uX291dHB1dC0tPjxnIGlkPSJsaW5rX2ZjX2xheWVyX2Vtb3Rpb25fb3V0cHV0Ij48cGF0aCBkPSJNMTkzLjUsODMzLjMzNDQgQzE5My41LDg1MC4wMzQ0IDE5My41LDg3MC4xODQ0IDE5My41LDg4Ni44MTQ0ICIgZmlsbD0ibm9uZSIgaWQ9ImZjX2xheWVyLXRvLWVtb3Rpb25fb3V0cHV0IiBzdHlsZT0ic3Ryb2tlOiMwMDAwMDA7c3Ryb2tlLXdpZHRoOjEuMDsiLz48cG9seWdvbiBmaWxsPSIjMDAwMDAwIiBwb2ludHM9IjE5My41LDg5Mi44MTQ0LDE5Ny41LDg4My44MTQ0LDE5My41LDg4Ny44MTQ0LDE4OS41LDg4My44MTQ0LDE5My41LDg5Mi44MTQ0IiBzdHlsZT0ic3Ryb2tlOiMwMDAwMDA7c3Ryb2tlLXdpZHRoOjEuMDsiLz48L2c+PCEtLVNSQz1bVkxIRFF6bW01QnBoTHVaaWVVdDFxRkpHcWFsMXd4TFhlS2FYa3YxQm1JWXN4OGdMZkkweml6Y01fbFRBaWNuQk1KTS13TWJjdGVWZElQLU9VMlFBM0ZZOURBVFVvTDZxWFVISXVLdGRGZ0dOWEE4RDRENXBZbHlXWjJpZnU5dUM1RVVBNFV1MzFfUVJ1ampGdmhJTGdnTkFJdHJxN19lUlkxNmJ2RGE5bkhZQ1p4ek9TbjlLUXRuaDYwV09jOG50OG1VTXRTY01TNW1FNGZXS0UxVTROcEpKa0VCb1pEMHhsQUNUNHRHSXJCV3BnV1RKaWU1Z2pEUC1Td0dsV0ZWWVVPR1JKM0c2U3dvUEZVOURLUEpSZ1doMXNfQlhZNGxIbzlROXRrNlZnOEFRLWFZQWlYejhKdUM0cDl4ZDM1TEx4ZWVZWDVVS21BV2VCYnowYUdRYS1ZZFVGcjF6Si01M0dFeXlRWE9tdFVQWkZyMDFuQ3QyRHRoTFBtWFFzb05aNnZMVktRT0E3NlZEVmcyeW90ODBXdG1oVm1uUkF6MGNOZkU1UmVLX0xyLWtZcWRtZnRCLThzMGdBdkpLc2JqYkJ1M1FnSVBBb3ExY2xrN2h5YTNNQmV0TEJPaHVYcGNJUEt5M0pqSGNzNU9iSFB4X1RaTmdjVURfUlRzdnE0OG9kTm1kNXdleUQzTlhnVENHdkdJdjNJSmFTaXZ3T056akljanRWNW0xSmdRNVNxcU1vY1J0cklmNUtySDRRQkRiV3FhVktzNnpJS1lPS2R3Q09EU1hLS1NyU2R1bkFvbzRZVDVzY2k0cWZ3UHNkVGNNZ2hwT1hRcHZJUFhxN1BuRWVMZkVnTVFJSVZ1ZXJRYXBKeVFTbkpxR21KRUdQVF9ZQktWWDJqbFJRMlNIWWZ5NDJ2WXQzQ05Sa3RCajdMZnNTUTc0aGFSaHZndENMbjJLTWdUNVJfT25JWXhEQWtlVHd6S016cmowUjR5S0VwbTFHQV95UjI2WDhuNkFfNmNsOHdUVE5vVlRYNTNpSnJVOVRtWEEtby0yQjZ3b3FUV2hfbTAwXS0tPjwvZz48L3N2Zz4=;" parent="1" vertex="1">
            <mxGeometry x="240" y="60" width="386" height="931" as="geometry" />
          </mxCell>
        </UserObject>
        <mxCell id="ZwuDCHV0LhfzPUg2mEqZ-2" value="" style="shape=image;verticalLabelPosition=bottom;labelBackgroundColor=default;verticalAlign=top;aspect=fixed;imageAspect=0;image=data:image/png,iVBORw0KGgoAAAANSUhEUgAAANkAAAAsCAIAAABng4qLAAAJN0lEQVR4Ae1a70tT3x///ANnN00GhZOUrXEXI0iUQJD2QGULF2ESlsQYNSoNrAmNCMFqBEUKahDmIHtS9sQkHOKDRYSjSJ35K+mXeZttjvmrtgZ3cu/3y+d8uV62e693d3Per5z7YLx37jnv8zqv+7rnvs/7nH9odCEG5MHAP/KAgVAgBmikRSQCuTCAtCiXJ4FwIC0iDciFAaRFuTwJhANpEWlALgwgLcrlSSAcSItIA3JhAGlRLk8C4UBaRBqQCwNIi3J5EggH0iLSgFwYQFqUy5NAOJAWkQbkwsDu1CJJkm63+/Lly0eOHLlz545cyN6lOKLRqMViMRgMN2/e/PDhw8bGhrSB7kItEgRRWloKAGhsbJyZmVlbW5NGDWolkgGKopaXl9+9e3f69GkAwMmTJ9fX10W2ZVdLQYvr6+sGgwGIuFQqFY7jg4OD7J6yY8fjcYvFAgB4/vx5dnpEvTAMUBR1+/ZtAIDT6WQKxRspaNHr9ebk5JSVlfX29s7MzAQCgYWFhePHjwMAKisrv3//HggE/H6/2+0uKytTKBQej0c8jkzVjEQiRqNRqVT6fD4+nxRF9fX1dXV1kSTJV0dyOUmSXV1dfX19FEVJdrJTDdNnxu12AwBqampisViqo0hBi62trdXV1ezpNxwOl5SUAABaW1vZHXu9XhzH5+bm2IXZsQOBAI7jwlqcn59Xq9V6vX5paSnjqOAbW11dHY1GM+58ux2mzwzUotFojEQiqaIVq8XV1VWj0TgyMsLuAPKePAX6fL6KiopwOMyunB1bjBYHBwcBAPX19fF4POOo2trakl/OjPeyTQ7TZyYbWvR6vWfOnPn79y+bBZfLBQDQarV+v59d7vF46urqJMzSbCfSbDFabG5uBgB0dnZK60KgVSwWq6mpAQAMDw8LVJPtrfSZyYYWnU7no0eP2CTG4/H6+nrO4KCvr6+5uZldOWv2llqEAWVOTo7X6804qsXFRZ1Op1ar5+fnM+58ux1mhJlsaDGZCCZYvH//fvLdnSrh0+L6+nptbS2O4xqNBmYCNBoNjuMOhyN9qARBHDt2DMfxwsJCAACGYVqtFsfxnp6e9J1vt4fMMrMzWuQLFsVwF4vFAqlcy8vLIpelfFokSfL169f9/f0OhwMAUFVV1f/vNT09LQawcJ1oNDo0NNTf33/u3DkAgNVqhc4JghBuKIe7mWVmZ7TY2dnJGSyK4bejowNP5TKbzcvLy2I8z8zM5Ofnl5SU8K2chEOiHz9+1NXVSYv2BILFL1++mM1mtVq9d+/exsbGYDAoZixZriPMjEgwnz9/LioqOnz48M+fP0U2YaqJXUczDaAhECwm1Mzm34WFhfLy8tzc3IGBAc5+BUIih8OhVquPHj0KAHC73ZzNhQv5gsXZ2VmLxbKyskLTtM/nKywsrKioEPlqCfeYwbsCzKTUC0VRHR0dAICzZ8/CIYtvLlGLS0tLer0eACCTYPHZs2cajQbDsPPnzycs6tlczM3NFRQUCGQW4SdGmhY9Ho9CoUjOLHZ2dubn5w8NDUEkMOnjcrnYwHbc3pKZlBB++vSpuroaw7BDhw4l5AEF/EjUYjrBogAaybcikcjk5OSFCxcwDGtububLM2+ZP0tHi3yZRafTyU4hwS7a2tokD3Y7Gm7JjPhOg8HgiRMn8vLyHA7H169fxaf2JGoxnWCRpmmCIGB0L/LX6/WKOf1BUVR7ezsAoKmpiTOPvWVIJFmLAsEiSZKhUIjZb4RJWbnNi3zMTE9PGwwGvV4/NjY2PDxcVVWl1WpPnTrFF/JGIhGz2Yxh2MuXL8XLF9aUosX0g8XBwcErqVwtLS0ij9v4/X6tVsuZ4UsOiZ4+fdrb28umTLIWE4JFiqJu3br15s0btnOapiGG4uJigUAioUkW/vIxE4/Hb9y4MTU1ZTQaNRpNT0/PxsbG6upqeXk5304B/GBWVlb++fMnVeRStCi3YJE9Zr6cDk3T8JZOp1tcXKRp2u/3m0ym2dlZdnM+LZIk2dTUpFAo7HY754zr8/mUSiWzDzsxMWEymUKhENs5TdM9PT0qlWp0dJRdPj4+fuDfa3Jykl3O2Ezvd+/eZXJbEgr5wPMxMz8/39LSEgqFSkpKGhoa4MBhXpkvxoAEMjwwQxBjiNUiPKMGc4Ld3d0KhQIA8PjxY1giYSNcDDgJdbbUInxlo9GozWbr6OhI6IJPi9AtAKCgoIDzzAfUotVqpSgqGAyazebkI3Mej6esrOzjx48JncJAEwDAt1nF9M5edUko5AMPXfEx4/P59u3bxwzH6/UqlUq+Q1jZ0CJBEMyORfIJxoaGhgR+d+ovpJXznA5MN2AYZjab9Xp9d3c3M8cwaPm0SJKk3W7HMGz//v3v379n6jMGnKXy8vLMZrNOp0vOUI6OjppMpm/fvtE0vbKyAg3YfHx8/ODBg3v27LFYLJxhsYQpMGEGFQYvzIzL5WLHPE6ns7i4mO+IUza0yJAuc0NAixD52tpaIBDgW9zxaRG2pSjq6tWrfCcj4adjaWmJWaYwXBEEYbVamRhxeHj44cOHzF1ojI2N2e32hMIM/hUGT9M0JzP/neYvXrzIfHPheWq73R6NRh88ePD79+8EhEiLm4RsqcXNqlyWsBbD4XBtbS0MN7lac5cFg0GTyVRbWwtXazabraioKHnidLlcfEEYt98US6WBhysV5nyqz+dTqVQej2dkZKS9vT0ZAtLiJieQO85v9GYlLsvhcOA4npubCwDIzc3lPNkwMDBgs9k41y5cLv9XBtMl7MAmGV4kEqmpqeH8+gt4TumWNPCTk5MHDhxgosNQKGQwGK5cuXLp0iX2qWoGCdSitLOhYtcuTGcyN2B6QqlUjo2NZRYqQRAVFRUTExOZdUvTNEyLXrt2LVWVi0ciGTxM4rADa5Ikw+EwZ1xL0/TAwAAAwGazicfG1NxtWqRpGu6HVlVVMfEZM9p0jCdPnrx69SodD3xtf/36df36dc5phq9JquXbB56NZGpqSq/XYxjGLLrZd7e0d6EWNzY2Xrx4AY8SlpaWym2HY8tH8n9XIRaL3bt3T6fTAQCKi4vfvn0rbQi7UIsMEXBhKHLDhmmFjFQZYHLPaaaZd7MWU+UU1d9ZBpAWd5Z/1PsmA0iLm1wga2cZ+A/XTANyFvNipAAAAABJRU5ErkJggg==;" parent="1" vertex="1">
          <mxGeometry x="270" y="150" width="120" height="24.33" as="geometry" />
        </mxCell>
        <mxCell id="FryigcweT3gk02fsJ_st-1" value="" style="shape=image;verticalLabelPosition=bottom;labelBackgroundColor=default;verticalAlign=top;aspect=fixed;imageAspect=0;image=data:image/png,iVBORw0KGgoAAAANSUhEUgAAAMQAAAAvCAIAAAAzR/J9AAALYUlEQVR4Ae1a/0tUTRd//oHjZsKGYqGhLStYorlQgiKhtoqSGEilIkKyZKKl1C/5wxJKISkklVQSipGm8WqllIIF5aag+SVWxSx10a67KOuSX2BX7rzxDs84zb3e3XVvT2/ve/eXPXfuOWdmznzmnDNn7l9I+SkWkMkCf8mkR1GjWAApYFJAIJsFFDDJZkpFkQImBQOyWUABk2ymVBQpYFIwIJsFFDDJZkpFkQImBQOyWUABk2ymVBQpYFIwIJsFFDDJZkpFkQImBQOyWUABk2ymVBQpYFIwIJsFFDDJZkpFkQImBQOyWUABk2ymVBQpYPpTMbC+vn716tXR0VFfJjA6OlpaWupwOHxRQmQVMBFT/EmEw+HIyMiora3led6XcfM8X1tbm5GRIQuexME0Pj4eGBgIP/+0Wi3HcQihvr4+Pz8/+mVYWNjs7Kwvs5JLdnNzMysrix6bkI6Ojn727NnW1hbTaVFRkZBZtKWyspLIuu1Rp9Mx3Q0ODgYEBIhqZhrDw8MTExMXFhZIdwghp9NZXFycl5fndDpJu8PhSExMZMRFH/fv36/Varu6urCs0+k0GAzFxcW0NqLWK0IcTFjFysrKuXPnAGDPnj1Pnz7d3NzE7TzPj42NhYaGBgUFNTY2chwnXBivBiE7M8/zN27cAIC4uLjp6Wk8cqfTabVaGxoaVCoVAAi39erqKsdxt27dAoCAgIDXr19zP/96e3vj4uJ+vK2rq2PGvLW1ZTQaASA6OnpyctLpdG5tbdlstv7+/oSEBADIzMwkux9znj9//vnz5xaLheO4d+/eBQUFAUBVVRXuc2Zm5u7du2q1OjY2dnl5me6uq6srJCRkZGSEbjSZTP7+/nFxcY2NjWazmeO4+fn5tLQ0AEhOTv769SvHcQsLC93d3XFxcX5+fn19fUR8YmLi4MGDLS0tpGV3hBSYEEK9vb3YCdF7EfvGkydPLi0t7a7XXy3lcrlycnIAoLy8nOmL5/mysjIAOHDgwNTUFPMWIVReXg4A8fHxdrtd+NZsNgcHB3d3dzOvSI8Gg4EJPbOzs2FhYQCAbWi32xMSEhgoY2fv7+9vMplozUajMSsri2xjhBD2QEVFRS6Xi+FMT08neEUILS8vx8bGAoDRaKQ5TSaTVqul545totPpbDYbzekt7QZMxHnGxMRYrVasvaOj49ixYxaLxdvO/jF+YsfW1lZhpzU1NQCgVquZzY0Qstvt8fHxoijEeux2e1pa2vDwMKPWarVGRkYCQENDA/OK4zitVgsA6enp6+vrJpNJr9evrKzQbNhXCZ1QTU0Nsx/a2tpUKlVvby8tbrfb9Xp9f38/3Yh9FeOEEEIjIyNJSUmMtzOZTAEBAW1tbbQGb2k3YEII1dfXA4Cfnx+eQEdHR1RU1NjYmLc9/ZP8w8PDarVa1PcQz6TRaObm5phRTU1NHThwAABoFG5sbHz69AmHco7jEhIS6G2NNeCVEwUo0VlQUMDzvNForK+vp/slWRdmoF+Vl5fT6HS5XPn5+ULMmUyms2fPbmxs0LINDQ0AoNFomJSrr6/vzJkztLcju4jxgrQ2T2j3YJqbm9NoNACQn58/MDAQFRU1NDTkierfyIPtKBqqJiYmQkJCRHMmhFBra6swAppMptzcXGx9juPS09OJkyZzrKurAwDhMiOEmpubf3SnUqm6urocDsfp06fNZjMRRAiROEjjBiGEoUMnN4uLixEREULMVVZWMgAlYVeIj9bWVsbbIYR4njcYDD4epNyDiWxlAAgMDOzs7KQN8V9I8zxfUFAgGqq+fPmi0+kA4ObNm6KHF5wwJScnf//+HU/N5XIVFRVVV1dLzJSsnDBhslgsUVFRO2EX68QJk1qtFkZPplPMWVNTw7QLH0mglx45LYj3Q09PD93oFe0eTHQaXlVV5ZX2nZh5nl9ZWfn5qOTmiXHLO2mmE8+SkpJ//f1ra2srLCxUq9VZWVmTk5Oi4iRhSklJwXKNjY2pqakqlYp2D0JZsnIkOPI8b7PZmpubw8LCDh8+/PbtWyYrp5XslDDRPJjGHleY/gs5d0qYhJykpbu7W/SgShjcEh6BaWZmJjQ0FAASExPp84Jb7TsxLCwsJCYmar35PXnyZCdtTDtOmAICAgoKCoqpn16vP3To0OXLl5kcgoiT5AZXYrRaLZ61MO0gIpjAKycs6uzbt+/Vq1eiLpBoWF9fT09PBwBh8CI8hKiurhYm1OQtTWA343bktAi2G3P0oxnc0u7BhIutR44codNwCb2rq6ueexEJPbt+JZEwtbe3+/n5hYSEfPz4UahfNGGqrq4Wph2MLF45OkXb2tpqbGxUqVQ6nU762LtTwsR0gR+xcxUeQhlmEnbdjpwWHBkZUavVhYWFdKNXtBsw4WJrcXHx58+fSRrOVDjo/rDD9ySo01Iy0hIJEzmz4MOEcBbChAkhVP2fHx4hPou9fPmSHjBZOSZhWltb0+v1P3agtDV6enpwncJtwoQQ8hBMpE7hecKESwa/EEwYSbm5uQ6Hg6Th0gm/yWRSq9XSGQa9ErLTwvSF7oIssF6vX1tbo1+RhIk56Tx+/JgUAubm5pKSkpiCAlk55ixG4pf0Xvc8YfIcTLtImH4tmIRXgORKjjmF0ktSV1cXERGxuLhINwppp9P55s2bv5Nj9/8vXrzA14JCVUwLtmNgYOD4+DjzCiFktVpjYmIAQOj/ScIkcVytrKwsKytjUmnco7DCtLCwgH25hHsggPMkYcLVeU8OfbtImAiYioqKhHbzsEU8zPE8f/v27aNHj9LxnlTDhWm4y+UqKSnRarV79+5VqVQajebSpUvCOELGtLKyUlFRQSXH7kkPj6wSCRNCqKWlBWd+QsSIJkxkwAihiYmJyMjIwcFBuhEhhOvpwgoT2XsSYc6rhIn0JX2aI2FXuGGYkTOPntcdGEHyKAImnufb29tFL0yYajjRggns8CVsx/DL/kjsKLq9+vr6goODAaC0tFR4wsKfDNAVJnp4S0tLKSkpp06dYqrMpEcmYSILDwB47V0u16NHj+bn52m1XiVMCKHOzk7RGxtaJwm7Eh6R5ic0Vi7cZoTBLbENJnypPjAwkJ2dDQAZGRnfvn0jLh1Xhpqamvz9/XGYsFgsNpuN/l7gNyZMa2trP2rTw8PD4eHhAHDv3j26bGU2my9evIiP7ky5EguOjo7imzWDwUALchw3NDR05coVtVoNAPTVFRb88OEDLh9cv36d47jV1VVicewjyc2M2WxOTU212WzYzhzHWSyWvLw8AAgNDR0aGuI4zmq1ClFOFJJIxGR1uH5N6nb379/Hd/MPHjzAc2GyQ1ohTRuNRmGwphnc0ttgwoGWLpbQ4YzcVtIMzOWXhwmT2zF5y0DutuixMTSuMDG5M0LI82+Y6Ev1nXrMz88nwd3hcOAC0okTJ5qamo4fP97R0YEQamtrY8ZGP0pHc3xKEJ4eLBYL3kW0KkKL+mnGyHhGdHWDYfDkcRtMnnBL8GCH722cllD4P/DK6XS+f/++trb22rVr09PTsszIaDQye1gWtTh7oz802oVa2cCEz+Q4Tk9NTd25c2cXo1FE3FoAlxYlDtRuNYgytLa2BgcHMzfQopwSjbKBCU+yu7vb6XRWVFT4+KG7xIj/z1/hi+eEhATmiyhfzILP6aWlpSRG706bbGBaW1vLyMi4cOFCTk6OdODf3UAVKWIBi8USExPz8OFD0uIj0dLSEhMTQ5eBdqdQNjAhhPBXz7/3Ym53VvjjpDo6OrRa7cTEhO8jn5+fj42NxYcDH7XJCSYfh6KIe2WBzs7OzMxMHz/Ddzgc2dnZvtSW6DErYKKt8YfRvn+gsbm5SdfGfJy/AiYfDaiIb1tAAdO2LRTKRwsoYPLRgIr4tgX+DevCEzIb/KT0AAAAAElFTkSuQmCC;" vertex="1" parent="1">
          <mxGeometry x="294.56" y="250" width="70.89" height="17" as="geometry" />
        </mxCell>
        <mxCell id="FryigcweT3gk02fsJ_st-2" value="" style="shape=image;verticalLabelPosition=bottom;labelBackgroundColor=default;verticalAlign=top;aspect=fixed;imageAspect=0;image=data:image/png,iVBORw0KGgoAAAANSUhEUgAAAMoAAAAvCAIAAAAtjsLOAAALmElEQVR4Ae1b70sU2xu//8DJtmJlwyTBkBUsYXMphMoiycLJsuiX3hZflGCF0OKbitjCCgyFrNgXGRhRmZFb1FJaZkFioKwFlpCVLFvjiptu7rowu5xzuz1wOM3sjLPe3W73+z37Qs6ceeY5z3zmc57zOc+MfxD+4wikDIE/UuaZO+YIEE4vToIUIsDplUJwuWtOL86BFCLA6ZVCcLlrTi/OgRQiwOmVQnC5a04vzoEUIsDplUJwuWtOL86BFCLA6ZVCcLlrTi/OgRQiwOmVQnB/B9c9PT0OhyMajeoPxufzHTx40Ofz6b9EzZLTSw2Z/4V+l8u1evVqr9eb6M3M+ULZQHJ6vXnzxmQyoZ9/ZrNZFEVCSHd397x589iT2dnZnz59kjn9dw+Hh4czMzPZINn2ggULduzY8e7du9QFGQ6HS0tL2UHr6+vZ4aLRaEVFBWuAEGpubmZt/nm7v7/fbDa/fPlS6SoSiZSXl8sCQAjRB40xPn/+fGlpaTAYVF6uv0dOL7gyEAjs27cPITR//vzbt29HIhHoxxi/fv06Kytr8eLFra2toijGYjH9g/1Ky4mJibVr1yKEDh06FAgEMMaRSMTn87W2ti5evBghdOHCBYxx6kKSJMlut8MjtFgsfr+fHSsWi/l8PkEQ8vLyXrx4EQqF2LM625IkXbx4sa2tTXkjoVBIEISamhqNZVGSJKfT+Z3ZCxcufPz4MX3KMPr4+LjVaj19+rTSuc7wCFH/IKerqwsSFTvzMMZNTU2bNm0aGxvTP8a/Yvnp06fs7GyE0MOHD2UBtLW1AaavXr2SnUriYSQS2blz5+HDh9PS0hBC7e3tMueQw1paWmT9+g97e3sNBkNpaWk4HJZd1d7ebjKZPB6PrF92CBNgzZo1k5OTslOEEKfTuXTp0rdv3ypP6eyJn70IIcFgsKioCCHEzrxkLck6g/snZp2dnQihzMzM4eFhmR+32w1JJenrETuQz+crKioaGhoqKytDCJWVlc3MzLAGExMT69evHxgYYDsTajc2NiKEHA6H7Cp4dsoRZWaTk5Nr1qxBCNntdtkpOIQpyuaXuGYanar0AvIihObNm9fV1UUIcblc+fn5r1+/1nD3+5xyOBwIoZKSEuW609LSAvS6d+9e6gLu7u7etm1bOBxub2+Pmyw9Hs/GjRsnJibmFgPVT52dnTIPr169Wrhw4ax5kYpUNRwgvxYUFMw5SC16jY6O5uTkIIRsNltfX19+fn5/f7/sTn7PQyqulfNSkqQ9e/ZAVk7K3lsNgYaGBsgrfr/fYrEghI4ePcrqmJaWlqqqKrZHzVXc/s+fP+fm5sbdWjU2NhqNxlnzIoiEuAmejtjY2GgwGHp7e2lPQg0temGMjx49ChPdZDKpcTyh8X6NsYbwcrlcaWlpGRkZyqkyMzNz48YNq9VqNBrT09MtFovyCWGMXS7X8uXL09PTFyxYYLFY4qZzEF40r9TX1yOEcnJyRkdHAQGMcXV1tUaCUQvG6/WuW7fObDZnZWUhhNLS0nJycsxm85UrV8AzZDW6B9QAHIRXcXHx9PS0mhlojDmrCC16EUKowD9z5oxaBHPrj8Vi4+Pjou6f3++XJEnnWFBAYWe2JEkjIyN1dXUGg2Hv3r3KvDU8PGyxWMxm89OnT2OxGMb4+vXrhYWFgUCAHdTlcmVnZz958gRjHIvFTp06VVRUpNy9g/CiJZuhoaGMjIzvSqOxsRG8aQsvjWDC4fCjR486Ojr+/PNPhFBVVVXHjx8tbk1MTBQUFMRVBeyNzCq8wNjj8RiNxpqaGvZa/e1Z6DUyMgKzJC6I+odRWno8HnicZn2/vLy8uCUcpWdCCAgvyLvs3w0bNnz8+FG5Hnm93vz8fFlKGxgYWLVqFRT8YBRY5g4cOACHL168SEtLiytNqPACy2g0arPZ2H2ShvDSE4yG8PL5fDk5OeXl5bJCgwwoKryUO2vWErxVVFRoFDhYe1lbi17BYFAQhBUrVrACX3b9b3hIhRe7pfr27VtVVRVCqLa2VpYFJUmCTMBukcC+traWhRWmcnFx8fj4OCHE5/MdOXLk2bNnShCo8KKn6DoAFYqWlpbq6mol0XUGoyG8IEg6B2gAsoYe4UUIEUXRbDbPmgtlzumhKr0kSTr84/f+/Xsq8FmsqYvfraEmvAB3o9EoqwbBPgshJAgC3PKWLVuMRmNdXZ2snkRnPEIoNze3vr7+27dvytuXCS8woIWesrKycDisJrx0BgOrf9yKl0566RFeqaIXcKuysjIYDFKBz0oZJaa/T49axYu+73K73Wy0UKfIyspqbW3t6Ohwu91er1eW4cA+Go3Kll2r1QqZjHUoE170FC2RP3jwYOPGjTKWg5nOYNQqXoQQPfTSKbxSQi8ozQuCQBUrfdXodDopWLSBMb569eqKFSt27doFl1y6dMlqtSrlM72EEEIlKijTWf+63e64qYL1CW21ite9e/cQQsodOzyqWcUKHcjv99+9e7eyshJUnYys8GZWEARlvY0WelatWrV+/fq4xSQ9wWgIL0IIpFjtkgdNw7NWA2BxjJsmKSAaDfniiDG+cOHCypUr6U6EreDHFfhPnz5tbm5++/ZtZmYmYH327NlZ30h8/PjRbrfDYqTzb9wSgOzeQqFQSUlJ3Eo0LAfKxRGeqLZYkSSptrbWYDBQIYwxPnHiBEJISS/Hj58sMEIIxriurg5IGVd4EUL0BCMTXhjj7xvY58+fw4h61JJO4UXJqg2O8k5pz0/0whjfuXMn7icckNhpBZ9eH4vFTpw4MTo62tbWRgt0k5OT27dvV76NoVelrqEmvCjtaEFIFMUrV65EIhHIzcrpPjY2ZrPZRkZGCCF0YWVfHTocDraUBTc1MzNTVlamlhVohUKt4qUnGFj+qNweHBzcvHkzXaOnp6eLi4vj7mcp7NqvGqkZIWRgYMBoNDY0NLCd+tt/00uSJL/f39fXt2vXLlC4X758oZsajHEgELh27ZrBYEAIlZeXe73e8fFx9lsJSNd0+zo9PW232+O+JdUfWUKWEKQoihcvXoQV8MmTJ6Io0s05XVCognQ6nXV1dRhj+Lhg2bJlHz58gEExxj09PQUFBU6nE3AYHR0FLU81WV9f35IlS5qamihQU1NTIyMjx44dQwidPHnS5/PR0em9QIVCmUGpgZ5ggF4wH8bGxgRBoDkVcmR1dTWd6tQzISQUComiODg4mJeXhxCqrKwURVH2KFl7QgjkOda/zED78G96NTc3s8UhhBC7CEKylRnIooe1vK2tDQYbGhpKehlW+zaomJDFySab/v5+qG3a7faGhobCwkIqAMbGxrZu3Zqenr5///7du3dnZGRs27aN/SYMY3zz5k2TyWS1Wg8cOGC1WpctW3b79m06x2g1hA2AHZ3G39XVtWHDBo25N2swsFIvWrRIEITc3Fz6boAOEZcTdIKxEcreJVAPtGG32+mEpJ36Gz8tjvovk1m63W5WMjc1NaX0WxfZ6PoPA4HA/fv3jx8/fvnyZeVGYWpqCl4iKLMODAFpXhRF+IBM/7hzsNQOBrK12psMUAjK962JhgEbTJvNNueCVHLo1d3dvWTJEthpf/jw4dy5c3MOKFEIuL0SgWg0WlNTw35JpbTR09Pb22s0GuF7GT32Spvk0CsUCtlsNkEQmpqaqqurv379qhyJ9/xKBDwej8lkunXr1pwHBZkYt8Ki32dy6AXjTU1N/YJVQ/+9/T9bQvFy9erVdEeZKBovX740m83K70oS8pNMeiU0MDdONQLBYLC0tBR2x4mOFQwGS0pK2H1xoh7AntNrbrj9N64KBoN79uy5fv06rZ7oiRt2pkn5VxdOLz2A/4dtJEn6+vVrovRK9BI1gDi91JDh/UlAgNMrCSByF2oIcHqpIcP7k4AAp1cSQOQu1BDg9FJDhvcnAQFOrySAyF2oIcDppYYM708CApxeSQCRu1BD4C86fOMZ0h51AAAAAABJRU5ErkJggg==;" vertex="1" parent="1">
          <mxGeometry x="500" y="250" width="73.06" height="17" as="geometry" />
        </mxCell>
        <mxCell id="FryigcweT3gk02fsJ_st-4" value="" style="shape=image;verticalLabelPosition=bottom;labelBackgroundColor=default;verticalAlign=top;aspect=fixed;imageAspect=0;image=data:image/png,iVBORw0KGgoAAAANSUhEUgAAAPcAAAA2CAIAAACUWpgVAAAOrklEQVR4Ae1c/0tbVxvfP3DMUiEjI5Y6msltcZNmKTghbQXtpCRVSnFfrHOyqTTIMg31l3YQOveLm/2SdkhbN9zGZpKOV2GGrp2hUHRxtIsNVRyrc2ZxacTMJI0KN+Get+xhh/Pem8ZrTBOb9+YHe3LOc85zznM/9zyf5zknfQZLH8kC+W6BZ/J9gdL6JAtgCeUSCPLfAhLK8/8ZSyuUUC5hIP8tIKE8/5+xtEIJ5RIG8t8CEsrz/xlLK5RQLmEg/y0goTz/n7G0QgnlEgby3wISyvP/GUsrfIIo//vvvzs6OjQazaFDh+x2+6VLl+LxOMb4xo0b5eXllZWVPp8PHsDo6Ghra+vKygp5HtFotKurS6PR6HQ6u91+8eLF1dVV0ioVJAtsyAJPCuU+n2/v3r12u53juNnZWbVardfrV1ZWpqenT548ubCwoNVqe3t7McYcxzU3Nzc0NMA7gDH2+Xzl5eVnzpzhOC4YDGo0murq6ocPH25oYZLw1rHAyspKV1fX5OTkZqY0OTlpMpkikUgagzwRlK+urh49erS2thY24KWlJa1Wa7FYMMYXLlyYmJgYHx9XKBQulwtjDK2AeIwxy7KNjY0HDhyA9Tx8+LC6utpoNKaxNqkLbYF4PN7Z2WkwGGifSQs8oXIkEjEYDLBnbUYFx3FnzpwxGAxpAD0Vyr1er1KpRP/7YRgmEAhgjF0uV0FBAd24c+fOubk50tTf3w+r8ng8SqXy+vXrZJFms1mn0y0vL2OMacRjjCcmJgoLCwnoZ2Zmtm/fbrPZSN8sF6xWK71GKLe0tMA0zGYzr5V2Slmeamp1Y2NjhYWFWfaKLMu2t7c3NjayLEumF4lEDhw4wLNb0q9FRUUMw4yMjEBflmXb2tra29vp0ciwKQqpUA7dQqHQW2+9hRB69tln7Xb72toa1HMcd/fu3eLi4ueff35gYCAQCCQSCWjq7e1VKBR37tyBrzabjbwAGOPl5WWdTmc2m6G1v7+fbu3v7y8oKIBtHmM8PDysVCq9Xi8I5+RvIpHweDxqtRohpNFo7t27R1bKsuyVK1cQQvv27RsbGwuHwzmZ4bpKY7FYTU0NQohsUut2yYjAyMjIjh07PB4PPdr4+LhcLq+oqBgYGJiamgoEAvPz84cOHUIIVVdX//7774FAwO/3O53OiooKGgwY4+np6RdeeGFwcJAecN3y+iiHeBG27e7ubjIieJDXXnvtwYMHpBIKvb29xJocx7W1ten1+lAodPbs2Wg0Ci5ieHiYkHK9Xr+0tPTpp59Go1Gr1UqDnt71eVqy+ZXjuM7OToRQYWHhxMQEUQ3uuLu7e6O7CxlBWGBZ1uFwxGIxYVPaNYODg7BZlpSU+P3+tMfZUEfYs41GI4m4oLvFYtHr9TTxANaKEAJaS7SMj48zDDMzM0Nq4EHs3bt3cXGRVK5bEIVy4mI0Gk0wGIRBh4aGysvLSZ6E1uRwOBiGAWu63W6VSmU2m6empj766COO4wDlTqcTYzw/P19aWmqxWKampj7++GNgLAzDTE1NAfNRqVRbhJQDlUIIdXZ2chwHIUT7P58MQhxjHAgEampqgBbSVk27/Oeff1ZUVJw4cQIhpFAoeDtr2sOu29HhcMhkshs3btCSy8vLNTU1Y2NjdCXs7rxtG2Ps8XiqqqqWlpZ4woWFhQ6Hg65MXRaFcoxxX18fQqigoAAmPTQ0VFZWdvfu3aSjRyKRpqam5ubmzs5Ok8l0+vTpioqKpqYmiLJZljWZTBUVFd3d3e+++25XV9f+/fvfe++96elp2N0vX75cVlZWVVXV1tamUChySMrp1a2urtbW1gJpCQaDwDiPHTtG70m0fNrlzKKc47gTJ06YTCa3261QKORy+fj4eNpzE98xHo83NTVptVohRt98801eXri/vx8hJPQzLpfrjTfeICQZtAPjPXLkCK8+xdzEovyPP/4oKSlBCDU1Nbnd7rKystu3b6cYF2Mc/ucDMuFwmDencDgcCoVgUwyHw0kdNLA62mGl1vikWx0OB/h9u92edry/7iQzi3KPx6PVamdnZz0ej0KhQAiBF113GpsUWFhY2LVrV3NzMzxiMlp3d3dfXx/5ijGOx+MNDQ0IISFwbTYbid9IF+DANK0lTY8riEU5IaYIIaVSCaz6cYOmXe/3+41GI7gI0FhTU5P0BUhbxWY6QvIeISSTyV599dWkbG0z40PfDKJ8dXW1vr7+ypUrGGO/3w/7lNA33rp166WXXkIIHTx4kGbtkUikpaWFB0qYZCKR+O677/bs2aNSqZRK5TfffPPDDz989dVXhLxBCo7kylKYhZDynp6eFGJ0EyS+6Kwd3Sosi0U5HYMCgRaOtfkaq9Uqk8lGR0dZlv3iiy9KSkp++eUXMcPGYrHARj7pJUPIq86LQcXMULxMBlE+PDxM4rxAIMAwzCPayUPe5ORkVVXV7Oys0+l8FF5brVYyVZvNhhAS7qaRSOTYsWMqlerHH3+EU7+ysjKEEM1PgISI8RuPI+VkGsKCcKpCGbpmAyi/f/9+cXExQogc2dADZaQcjUY/++wzCOkGBgai0aiYYROJREdHB7ORT2trK49BiVGEMf7666+BtNDpJpF9RYplCuWLi4s6nW50dBT0Ap3l5THi8fg777wDkVxPTw9CiGyoQAweJR95ez8EJAUFBVevXiUrgr70WUFPT48wmiTydAE2ZiEpp2V45Tt37igUCl5ChidDfxWLckiZvfzyy3QMSg/0/1C+ffv27t274VWn001J155IJEKhEMmsJ5VJWpkRlHMc98knn9BZPJIyJ0daGOO5uTmDwRAMBiGNRvsoeCu2b9/Oi4sc/wQnvJ3OYrHwvERLS4uYfE4KUp7UOFAJMQa9kBTCGIv7nyrg9W1vb//tt99IDMpLgqZWkwetcLtmaGgIHjNCKHUyy+VyFRUVpUjbJRKJkydPCj2QWq2WyWRqtVrYJN4FTU9PMwzT09Pzn38/g4ODe/bsSRrkkSNnGruAJHJEDU+Q5JRp2gPvDy97IxLlwWCwtLSU9iFioJJ5lNMpM0JM141whUkVMbPfsjIA8b6+PnKBDCFEO2jhzC0WC81ThQKQhhJGE16vt7Ky0uv1CptEhhNwEm4wGID7kb+7d+9GCCUN6IWbMZBy3mEFwIsH6Lm5uZ07d+7atWthYYEsUyTK0yDlkEdXKBQZ28uFV2TI9ZWkoTcskncBi6z8yRXu3bv3754l6l+v18vLcKWYm/C+EVxfUalUcHol7LuysqLX69va2sRrIYNsnrGMjo7qdDrh6SBAWfjuATnhYddoNApJOYR9paWl5HAQYzwyMiJ0EWazmb7lQVbHK6RBygnKeW8gb2T6aypeznHc+fPnX3nlFTplRnwW7d3oEYUXsHitGf/Kcdznn39OdiwxhbNnz4qMPiORSF1dHe+GEDkHFcagPp9v//79cOnlueeeYxjm+++/39CSN4nyUChUVVWVNNXb29ub9CoLJBlp7ALugVhHIpHW1tbZ2VmMMaCc5w2EfgBjDLpS51jSI+XkOiDNmlJb+LEo5zju6tWrSc/weeegQgVWq5Xnv4QyT0XN6uqq0WjkQRxjzDsHFa7l+vXrSqUyBSkXdiE1m0E5BJ1Hjx7lHS7C4EBChLff4M4FjV1gJrDrezye119/HU4t4IooLfnrr7+q1WphOmV4eBghRO6lktXRhfRIOdzhQwglfZPp8UmZj3KWZYPBoNvtrq+vRwgZDIa//vqLuF2O40Kh0JdffimXy8FJ+Xy+xcVFyCTE4/H333+fYZht27bJZLKSkpIPPvjgaQxSY7GY3+93OBxwVnLu3Dn6ZIpl2UerPn78OKQUL1y4EAgEeIxZDCknz4BXSA/lsVjs/v37JpMJIdTY2Oj3++n0DqwI8n1yudzpdAYCAeLNwD+TWOvBgwcHDx4EBh+NRk+fPk3YaTweN5lMCoXip59+4jju5s2bkIMXbmrwnghz7QAhCDkuXboEtwAvX74MNbSdeWahv1osFjEJHNKFj3LgSfD84C/NTMjJAi3ASzbBCyrem5CpbJECUGp6gQghmpmA1+YJ0KfTmyHl6d3WSiQSb7/9Nj0lAlmMsbAVJOlE+M2bN3fs2FFcXFxbW/viiy9eu3atu7tbLpdXVlYePnyYvqsDP/zZtm0bQqiuru7cuXNJA3HgPPSuD8/X5/MBnaNnS8piqPba2tqRI0d4yZ/U4OGjPLW0mFberyLEdMkzGcg5pHbWKZac3l6eYkCRTeDG4SIadAmHw/TXpOMkJeUgabFYeDtg0hE2WgnmpfeddUfIPMrzhpSva7vHCbhcLpVKBT8i+fbbb91u9+Mkk9YHg8HDhw/TSYykYtmvBLJBeA7GOGmmnEwMSAthO6R+kwWbzZYiu5V08AyjHKJm2n0n1ZrfleRHJD6fr6OjQyTX3Po2OX/+PEIIfqUOsx0dHZXJZEJaAq3xeNxoNO7bty8UCmVqdRBCmEymDcV7GUY5ZMrhLsTMzMzFixcztbynaJzJycnS0tIPP/ywoaGBvuL3FC1BONV4PN7Y2AhXr+PxOMdxP//8M5zOPu5nBvDfMWg0GrgUKRwzjZrBwUGNRkOntsUMkmGUg5NyOp0sy546dWqT/zmBmAVsTZm1tTWSetqaM0xjVrdu3dJoNPCL46KiIpVKderUqXVv1A0NDTEMAz+RSUMp3WV+fl6r1Q4NDdGVYsoZRnksFjMYDMePH29oaBB//VfMRCWZLWKBRCKxuLhIs/N1JzY8PFxXVyf8ffC6HWmBSCRSX18vPkdO980wyiFvtVEr0BOSynlpgc3fa1pbW+MdSog3VOZRLl63JClZIDsWkFCeHTtLWnJpAQnlubS+pDs7FpBQnh07S1pyaQEJ5bm0vqQ7OxaQUJ4dO0tacmkBCeW5tL6kOzsWkFCeHTtLWnJpAQnlubS+pDs7FpBQnh07S1pyaQEJ5bm0vqQ7OxaQUJ4dO0tacmkBCeW5tL6kOzsWkFCeHTtLWnJpAQnlubS+pDs7Fvgv9US4+bOuJc4AAAAASUVORK5CYII=;" vertex="1" parent="1">
          <mxGeometry x="294.55999999999995" y="340" width="80" height="17.49" as="geometry" />
        </mxCell>
        <mxCell id="FryigcweT3gk02fsJ_st-5" value="" style="shape=image;verticalLabelPosition=bottom;labelBackgroundColor=default;verticalAlign=top;aspect=fixed;imageAspect=0;image=data:image/png,iVBORw0KGgoAAAANSUhEUgAAAP4AAAAzCAIAAAA4giJsAAAOU0lEQVR4Ae1d/0ubxx/fP3A6J2RkWKlDDdnIKjgLmRCroJ0bSV1ldGPWOVlVmpVJDZZB9oO4bANd7KoO6XSjYzBMCh/dUMpEKQxF0S5tplI2RZulixGjeWJMIQl3n9I3O+7zPPHJFzX9aJ7nB3vP3fvu3u/3vZ6795fTPkOkR9JASmrgmZSUWhJa0gCRoC+BIEU1IEE/RRdeEluCvoSBFNWABP0UXXhJbAn6EgZSVAMS9FN04SWxJehLGEhRDUjQT9GFl8SWoC9hIEU1IEE/RRdeEluCvoSBFNWABP0UXXhJbAn6EgZSVAMS9FN04f9PxF5bW/v444+dTmfs/IRCIaPR+Ouvv8beJSKlBP2IakmtSqfTqVaru7u7kyy2w+FQq9VDQ0PxzptwR3ai+KBvt9vlcjn630epVLpcLkLIxMREWloa25ibm7uyskLn29zcvHz5cmFh4ZtvvmmxWK5fvx4KhQghY2NjarW6rKzM4XAA8fj4eGNj487ODu3r8/muXLlSWFio0WgsFktvb28gEKCtySx0d3ezMkK5oaEBeDAYDLzWmpoaEDOZTMY+F8a4vb0dIdTR0RF7r71Tchyn1Wrb29sxxsLRBgYGeGqE19HRUSCenZ1VqVRzc3PCvjHWxAd9GNTj8bz33nsIoWeffdZisTx69AjqMcb37t3Lycl54YUXbty44XK5wuEw5cPhcJw8edJisWCMl5eX8/LytFrtzs7O4uKi0Wh8+PBhUVGR2WwmhGCM6+vrWcTAV97V1YUxdrvdhYWFFRUV29vbdPAkF8LhsM1my8vLQwgVFhbOz89TSYPBYH9/P0KopKRkcnLS6/Ummbd4p7PZbDKZDCFEv954R0iM/tq1awUFBX///fdu3THGNpstOzsbIWQ0GnmaxBi3traWlJR4PJ7dRhCvTwT6sE/DBm8ymegEGOOurq7XX399bW2NVkIhEAi8/fbbVVVVsFVvbGwUFRW1tbURQnp6emZmZqampmQy2cTEBCEEWuEzIIQEg8Ha2trS0lKO4wgh29vbFRUVer2eN0WSXzHGLS0tCKHMzMyZmRk6O8dxOp3OZDIFg0FauV+FYDBotVr9fv8+DlhbWwsban19fcQNeL/mYsdZXV1VKBR0idkmtgx2REZGxtTUFFsP5YWFhezs7P7+fmFTLDUJQp/juNLSUtjz3G43zDQ0NKRWq6nRwk4PMgwMDEClzWaTy+Wsp2IwGDQazdbWFiGE/QwIITMzM5mZmVRN9+/fz87OHhwcZMd/KmVgDCHU0tICoAkGg5eePAeBe0KIy+WqrKwE83JfRB4eHi4vL6+qqkIIVVZW7uNHJc6eyWTKyspaWFgQJ2tra0MIFRUVbWxsCClDoVBNTQ3dE4UE4jUJQp8Q0tfXhxBKS0sbGxsjhAwNDRUUFNy7dy/ifGazWSaT3blzB1oHBwdZN2Bra0uj0RgMBmgdGBhgWwcGBtLS0uBAIIQMDw/L5XK73R5xomRWBgIBAE1hYaHb7Qbcnz9/Hk6ng+Bkf6G/vr6u0WhGRkY6OjoQQnTrOQjO2TFh36yurqamMttKy48ePaqurkYIiRxHg4ODLDZo31gKiUMfziyEUF1d3fT0dEFBgYjPYTabqTeMMW5qatJqtR6P5+rVqz6fD7zn4eFhauhrtdqNjY2vvvrK5/N1d3ezXwJ7PsQi4YHSWK1WsBYsFktXV5dOpzs43O/7rm82m2tra4PBoNlsRgjRBTpQjRFCwLuI6lWvrKzk5uYihKixIGQMhgLLWdgqXpM49KmxixCSy+UA3N0ms1qtSqUSwrfT09NZWVkGg2FhYeGzzz7DGAP0wXl/8OCBSqVqa2tbWFj4/PPPweBRKpVwOE5MTGRlZT11Q5+KCT43Qig9Pf21116LaOxR4r0X9nHXX1xcVKvVi4uLcJAihNj9hbL622+/vfLKKwih06dPs9F3juMaGhr6+vooJS0EAoG+vj6lUimXyxUKxdjYmMVi+eWXX6gjAdEbGquhHXkFMJJZY4FHQAhxu90qlQriJcJW8ZrEoc86u4BRkZk4jqurq6uvr29paWlubm5vby8uLq6rq7t79y44ss3NzcXFxSaT6cMPP7xy5cqpU6cuXLgAC4Mx/vbbbwsKCsrLy5uammQyWSyGvt/vd8Xz8AIIIrKwTfT75zm7LM0+lvcL+qFQSK/Xd3Z2AhxHR0cRQjKZzGazsdzevXu3vLx8eXkZCNjA/+DgIEKI2qi0l9Pp1Gg0KpXqjz/+IITANocQYs0bg8EgnIuOQAvihj6Q+f3+yspKlUpFHU7aPWphT9BfWlrKyclBCMXoanifPMCT1+vlmXper9fj8cBieL3eiC7XyMjI8ePH79+/Ly5YOBy+fPmyMp6nsbGRx4/4FLT1xx9/BJuHDXbR1v0t7Bf0x8fHNRrN+vo6sDc1NZXx5GEDKaFQ6IMPPrBarYQQcAaoiQIm62MbibcHQaheJpPNzs7CyBCnRghRmwRqsrOzxReRGvpNTU30uBAqE0aLeF4JiXk1iUMfongnTpxgnV3e6Ht/dTqder0evGfYYpMZiIjK/9zc3MsvvwzfPzi7UbvshWBfoA8AZQ1UGtpnjZCVlRWdTud2u8ErZY81CEsI4WsymcD3oyk8CMI8jtKMjIyA4LBPR/UrYjH0YcCGhoZYzhCh2hOEPo3i/fXXXwqFgiewcJqEa7q7u9PT08fHx4PB4Pfff69QKH7//feER9vfjjSdbv3X2YU9cu+zhMNho9EoPLTy8vLS09Pz8vKETbGfWv39/QUFBT/99NN//n3MZnNGRsZuDiXEcNmDHT4VXkSIhj0oygkhDx8+fOmll9hdOUbox2Log56TCn02ikeNXVa8va89HcHn833zzTcQLL9x44bP56NNT7cAuO/r66MJZoQQm4HeI3ter1foqtjt9rKyMrvdLmyK0Vd58ODB49xLfX09qBR+1tfXZ2ZmPj69afKEZR5sbrYJDH1esGFkZEToK4MpxR7UMUI/FkMfmEwe9CFly0bx4ANFCEX091klJrM8Pz//76YW0792u13EpuRxDsYeXKyAJri6E0uahjdUXK97NHgg+d/a2sqTFAyYiG4rNPHyqXq9XmjoQ4SUF2yBStYbBiNeoVCw8SKeEqihLxLRp10aGhoSy/PEZ/BgjK9du/bqq6+yUTya2WXPRMrZUylgjL/77jt2Y4tavnr1aoxuLsdxb7311qVLl9iULc3sRnR2OY776KOPcnNze3p6MMZ+v//s2bPNzc3UJo5RS3uE/uTkZHFxsfDaDOzEEa/xOJ1OhULBhlDgYwDzmuO4xsbG5eVlQgignL0IJDT0Qcyo+3Tshj58JFE9h4jqjQP6GOObN29GvKrAy+xGnOloVAYCAb1ez8M9IYSX2WWFxRibTKbZ2dmBgQFYJK/XW1FRwZoBLL1IeS/Q5ziusrIy4o0XilHenk0IgZQLyyoY+nC5wGazvfPOOxCLg8Ofhf7t27czMzOF3nBHR4d4ChaG4h01EdUCF7oSu8sYHfrBYNDtdk9PT587dw4hpNPp/vnnH3piYow9Hs8PP/wAflJ1dbXD4VhfX6c3GSNyfOgq/X6/0+m0Wq2Q3/n666/Z2GswGHws9cWLFyHK2dPT43K5qPHtcDiMRmMgEKipqaHh7ampqfPnz8d4zlB1JQB9WKDJycmSkpK0tLTr169TxiB37vF4lpaW3njjDYRQcXHxn3/+yS4fHOnUkVtbWzt9+jRc+PH5fO3t7dTK9fv9Op1OpVItLS2Fw2GLxQIXQtnPBgQBr0CYowWkOZ3OCxcuIITy8/PBqxHREpwP4gFQqj1eITr0hdfTWcPG5XIplUpYcvqT/dDB9jhx4sS5c+cgyd/b23vy5EkRU4/H4lN/3dnZ0Wq1VDoosIYNZHx4BBTlwD/v1t2dO3c6OzvjFS0B6DscDrhcTdljfXFhq9BVvX379vHjx3NycqqqqvLz82/dumUymTIyMsrKys6cOcNe3FhbW3v//ffTnzwXL1785JNP2Ig+FXY3vO52R18kbgbnAy+9QCcSL0SHvnj/qK3j4+Pd3d2Li4vZ2dkQNv7iiy/kcjkvcRh1nMNOILyTRy/kxS5aAtCPfXARStiP4YoekHm9XvZV2JcaUWysE8igabf7mMKhRGra2toUCsXq6qoIzW5NBwv9cDj86aefrq6uDg4O0qNga2vr7Nmz4sm83dg9vPUNDQ3UJOU4zmAwsPtljHK53e4zZ84kkLSPcfyEycLh8MbGBuv3CyP67ODDw8PPPfcc3Pll6+Mqg8NNb4zH1ZeQpPyvKuCG03N2e3vbYDDA1fx42T289AaDgVq9N2/eZPOmh1co4DwUCjU3NyOE2Eg//KqaXq+PGMWCmBLcG01YfKvVeuzYMbgGlsAgB7vrA0M8M5deyUyA3cPbZX5+vqioqKWlpbW1tbe39yiFAbxe76lTpxBC4P+Ew+Gff/758e/caTQaEY9ubm4uNzd3fHw8sTX1eDylpaVsaiXecZIB/dHRUfbqaVdXF/sbffFyfHjpw+Hw+vo6Gxo6vLKwnEPU+8UXX8zJyVEqlc8//3x+fn5fX5/43w2A3Kharaa36NgxxcsY487OTq1Wm4DRSEdOBvQnJiaOHTsGfu3y8vKXX34Z8RCkPEmFQ6qBYDC4vr7OWvzigkCGtKmpif3TG+JdoHVoaOjdd9/dC+6TZOv7/f66ujqdTtfV1dXU1LS5uRmLeBJNKmgAY7y5uRn71wK5iHi7RNRkMnZ9mJi9jh+RFalS0kAyNZA86CdTKmkuSQNRNSBBP6qKJIKjqQEJ+kdzXSWpompAgn5UFUkER1MDEvSP5rpKUkXVgAT9qCqSCI6mBiToH811laSKqgEJ+lFVJBEcTQ1I0D+a6ypJFVUD/wX5XIHyutN2GgAAAABJRU5ErkJggg==;" vertex="1" parent="1">
          <mxGeometry x="500" y="336.49" width="104.59" height="21" as="geometry" />
        </mxCell>
        <mxCell id="FryigcweT3gk02fsJ_st-6" value="" style="shape=image;verticalLabelPosition=bottom;labelBackgroundColor=default;verticalAlign=top;aspect=fixed;imageAspect=0;image=data:image/png,iVBORw0KGgoAAAANSUhEUgAAAP4AAAAzCAIAAAA4giJsAAAO/ElEQVR4Ae1c/0tbVxvfP3CSqhDJiOKGTuKwFdNIp6CVQYtCsrJuTIddpbDodKHaWldKLQQRNlpime1wthlsdN1iOl4Liz9oI4xWWamdm9MSaru2VolxRtM2X2gSznmlDxwu597cXKO1w9z7g5x7znPO85znPPd5Puc5J75G5EfWQEpq4LWUnLU8aVkDRDZ92QhSVAOy6afowsvTlk1ftoEU1YBs+im68PK0ZdOXbSBFNSCbfoouvDxt2fRlG0hRDcimn6ILL09bNn3ZBlJUA7Lpp+jCy9OWTV+2gRTVgGz6Kbrw8rRl05dtIEU1IJt+ii78f23agUDAI/oEAoGNlVk2/Y3VpzxaMhrAGDc2NiqVyt27d5vN5traWoVCkZub2/TiKS4uRgjZbLZkho7fRzb9+LqRWzZLA/Pz80aj8d69e8BwbGwsLS3NYrHAazQara+vHxkZ2VhxZNPfWH2+rNEwxj/99NO33377shi80nGdTmdfXx8VoaenByE0NDREa44dOzY5OUkIiUajJ0+e5DZRmrUWZNNfq8ZeAT3GuLu722g0PnnyRIQ9xvjRo0c//vhja2ur2Wzu7u6emZnBGIt0+S80YYxPnTr14MEDECYajdbV1eXm5tKaYDBoNpu9Xi8QzM7OvvPOOwMDA+sUfmuafltbG4r/FBQU9Pb2hkKh5HQ3NDQkOHZ5efnKygp3zImJCZVKxSe22+1ANjk5qVaruQRqtRrcG3ecgYGBwsLC+/fvcyu5ZYzxjRs3ysrKVCrV4cOHHQ6H3W43Go0KheLjjz9eWFjgEr+kcjAYNBgM3LlAef/+/eFwGJjyVdfT00MICQaD9BOdn58vKCjg9mIICCG3bt0qLCwcHx9fz1y2pukTQgAhIIQ0Gs3o6Gg4HMYY+3y+ycnJjz76CCFUUlIyOzubtO6mpqays7MRQidPnvT5fHTlmAExxjMzM9u3b0cIff75536/nyEIh8NOp1OlUh08ePCff/6JxWIMwdzcnE6ns1qtTD19DQaDjY2NCoXixIkTwWCQ1mOMr1y5olQqi4qK1jNTOqCUQiwWO3bsGEIoLy9vYmKCmQ7GGMCM0WgcHR3la4MQwgB9QaYY4/b29oqKCp/PJ0ggpXLLmj4hxGKxIISqqqqYvNjKykp5eTlCqL6+PhqNSlETn2ZkZEShUKSlpY2NjfFbuTXU91+9epVbT8sTExM7d+6k8Z3WQ6Grq2vHjh2PHz9m6uF1YWFh7969SqXy0qVL/M8vGo02NzcjhFpaWpKeqSDfeJXhcHj//v0Iobq6OoYjxtjlcu3atcvlcvFFpQNarVaFQpFwUzs9PZ2dnX3x4kXaca2FLWv6NP62tbUxSgkEAlVVVQihwsJCiiAZmoSvp0+fRgjp9fqlpSVxYrvdjhDKzs52u92ClHa7nf99AuXDhw/z8/OPHj0qaCtPnjwBjNHd3S1IQAiBT1SEu6BISVfOzc3l5+cjhADJ0HEikchXX31VWVn56NEjWskv8IE+nwZqgLKyslJ8/xOvOyFb9z8yPHjwIDc3d9U6nU4nM/+lpSW9Xo8Q2rNnz7Nnz5hWKa/Utx06dCiezdFxwO/GM25CSHNzM03k0V5QcDgcSqVS0AVGo9GWlhaE0N69e0WWP2HMYTiu81UwGC4vLx84cODIkSNcPCbISBDoC1ISQux2u5T4EK/7lvX6sKMS9Ha//fZbWloaQujrr7+OpxfxelghKecsFFzFM+6VlZWKigrBbB0c9OTn58/NzfHlcblcSqVSoVAMDw/zW2kNNX2R3QIlXn/BarUy4dTtdpeXl1++fDmhj6AxKp6uGPFgahKJmb5r8Pp3795tbGxUqVRZWVnbtm1ramranLwBX2KJNfGAPgUJZrM5Eokwo8E01Wp1VlZWenp6R0eHYCIIfJtKpbp9+zYzAvNKczj84AOUk5OTer1eEOhDdBIMF6FQaN++fQihhBF/M02fBkMA+hhjh8Px5ptvulwuRi3xXiUCfeju9XoLCwsNBkPCYCLILrHXj8Vi33zzTVpaWmdnJ/C4d+8esIQ4OzMz09LSkgT7hNc2mDsdggkBwVnRNeC6BL/f/+uvv5aUlLz++uv9/f1M8gHAqEKhWE2KQ97g33//raio+P777/kswLdJB/rcLDUzmt1uj7d4brc7OzvbZDIxXQghN2/ezMjIQAgl9OU0n0gzqvzRNqqGGwxDodDx48chv9nb2yvOYmRkRKvV5uXlAX1mZqZWq+3o6BDvBXu2pDdsCUwfDlMQQmfOnOEGrK6uLoQQTMlms/G3kuJCE0JisdiRI0e0a3kaGhpohlh8fAr0mTTztm3bLly4wB+ETpMbCjDGhw4d4tsW/a42BOi3tbVxv0/uvG7fvq1SqQR1CylCKfkl2I5LoeSyTq5Mgf4vv/zy3nvvffHFF6WlpVJCU3LsYIFE3Ir4sAlMHwClTqdjMiGDg4MIIYPBsLS0VFdXd/PmTS6bwIuHW7PJZXB1XKVgjK9du6bRaHJycv744w9GntHR0YyMjPz8/IcPH0IT0BcVFf35558MMde3MU3MqxSg/+677wruYgkhoGT+t0cIMZlMCCGtVuvxeBim3FeKi/gBKhKJLC8vc90ZtyOUFxYW6uvrW1tbRbbR3F4QDJVKZX5+vtPpxBj39vauhqaEGxLuIGsqm0wmlUo1MTGxpl5ALGb6VHF8twQIUq/X9/f319TUcAExOEXBMJ2EfMl1EQT6sGtECDU2NnKXHG5HIYRycnIaGxvNZrPJZHrrrbd0Ot3169f5AogD/cXFxc8++wwyngmBvtvtLi0tFQT6IqYP3k7wyIKRdnp6WqPRIIS6urqYJpvNlvDLgdgiZTdPCKHBsLS0lGYwvV6vTqdb5xEKIzn39WWZPmBNwfwRmL5KpdLr9aOjo1xpAGxs+BVTLgvxskhGXzDPSHOdDQ0N/3vxjI+Pi+wrxDP6DoeDpuGlZPSZE3vu1BJ6fcEdMB0BY9zZ2YkQ0ul0TI4IkuIirGEQp9OpfPFI2afSjD6z9ICNNRrN9PQ0lY1f8Pv9fCDKJ2NqXpbpg+q5sIEypnmD9vZ2rgclhAwNDanVaikxaGpqCkxN4t/JyUmGF5WHW6BAn0mqPHv2bM+ePQghBqN7PB6tViv4hXOHhTL1bfzTSkJIIBAwGo002wgAgH+3B4aCaCOyBYTwcvr0ab4YcElJ/Fzizp07OTk5qxcZ+De9IDciCKUYXv4XD1Mp+BovGIpEHjoOeB8p8tAuUDCZTIK3nhgywVcxwAOIWVC/YPpMytlqtWq12szMTLjCUVNT8/TpU0GucMfmu+++M6/lOXv2rBTH4HQ6BU9PIYghhBgwBqYvETLS74rxbTDNK1eulJWV0fNdm80mAktcLld5efni4mI8FYGSGWmBGOZIvdLq9a9Tp04VFhbW19dD0pnmcJmD3vHx8eLi4jfeeGMVxmRlZel0Ov7OJ5484vUAMvmbCoon+TtGOuDY2JhKpYq356FkTAHcUELYxvSir2KmD7bCd1qxWKynp0ehUPC5AthgwDRltjkFQaBPoTM3IehwOP766y/QID9JjzG+dOkSg5JpEoO5ukO30dx9EaQg+dZACLl///7u3buZQRj9AIQQhCU+n6+iomL1ct7Fixej0Wh7e7vNZgsGg/39/RaLJRQKAbQ7ceIE/+yCENLT01NQUDA/P89wTPqVBkMmosKADocDUm0///yzIIvk5IEwLuiaBbkwlWKmD/fjmIh59+7d2traDz74oLS0FDzl77//fvz4cbir9AqBfjgc9ng8U1NTkFA7cOCAx+Ph3qkEq0UIgXV6vd7q6uo7d+4QQgDUdnZ2UkD19OnTo0ePVlZWAkqOxWKLi4tzc3OffvopQmj79u3T09P02GF4eNhoNK5eXMnIyOAmu+hdA67rjcViw8PDb7/9drzbbHSFIG8t+OUQQsbHxzUvnsuXL3/yySdwI8Pr9RoMBr1en56eHu8AVSLQp2KIF/x+v8fjGRkZgevZnZ2dHo+Hu1Py+/3Xrl2D1tLS0qmpKboo0Wj08OHDWq02PT0d8kKtra3MpTcR7mBsSftZMdOHe9JtbW1KpbKqqqqmpiYnJ6eiouLGjRvg5FQqVVlZ2Y4dO+jNaelAX2RKyTUJ3tHnHnZGIhGz2QzH7D/88EN1dTW1SLjhnJmZWVZW1tTUVFJSkpeXx73TTw+GmIMC5pXLDmZBbxQXFxc3NTUdPHhQo9Hs2rXr77//ljJNi8UigsRmZmbA92dkZHR1dXV3d5eVlSkUCrPZTJOez58/Zxy/dKCfUEKaUWD0QCOVIAGzO09aHvBlSR/VJTB9mDw9dmVu/0I9F39bLJZ4XiqhHjeBIBaLTUxM9PX1tbW13bp1i/p4YB2JRLxeLxMrNkSqx48fw4+n+vr63G43c5AswgIurwvuK6AX/B6gr6/PbDb39fUNDg4WFRVRHIUxPnfuHHNjNDlgLSLkOpuSlsdisXCPYtYqhiTTlzgoAD5Ae4uLi19++eXz588l9pXJBDUAmGffvn3ckxNBSqiELXtDQ0MoFIpEIufOnWtoaGAghM1mg/wExvjs2bMiP/4SYbSBTckBfTgupHnkJOTZSNMHvVutVozx+fPnBwcHkxBI7sJo4OrVq2q1mjk8YWjoKywBhR9KpZKfkjeZTAA5xsfHLRYL82HQoTankPTGw+FwZGVl8c/apYu9kaYPu7r333+/ubn5woULDJyQLpNMydUAbFE+/PBDKY6f/goHrJ9uZrgDOp3OoqKi1d9Vms1miTcUuN03tgwZfTi7cLvd58+flzK+z+errKwUnJ2U7kCzkaYP2Xqfz8dsCaRLI1MKamB2dlan00n8Md7169fLy8uLi4v5t1Pp4IFAgKZZaOUrKcDZxeDgYCQS6ejokOLFMcZnzpwxGAzr/G432PRfifpSgens7Gx1dfVaD33++5qB8++mpqa6ujrB3+vwpzAwMFBbW7tOu1/DT1X4Esg1m6yBcDjMzZdvMveXxw7OTLh5QhFeGOPl5WUmXStCL9Ike30R5chNW1kDsulv5dWV5yaiAdn0RZQjN21lDcimv5VXV56biAZk0xdRjty0lTUgm/5WXl15biIakE1fRDly01bWwP8B3Yaenb23gDQAAAAASUVORK5CYII=;" vertex="1" parent="1">
          <mxGeometry x="285.41" y="430" width="104.59" height="21" as="geometry" />
        </mxCell>
        <mxCell id="FryigcweT3gk02fsJ_st-7" value="" style="shape=image;verticalLabelPosition=bottom;labelBackgroundColor=default;verticalAlign=top;aspect=fixed;imageAspect=0;image=data:image/png,iVBORw0KGgoAAAANSUhEUgAAAPsAAAAvCAIAAACqvyvIAAAPmUlEQVR4Ae1c/Utb1xv//gMnmQoRSxQHdRKHL+gSnDKdG1gUkkmLdHRdK0I11oW5NQ4rtSN00Y0OM9RtztWNjc4SI1Pp4g9aHaXTIdPpbBWZs740EuOaqjMvLAn3fmUPHC73LTcxtoo3P5STk+c85znPfe5zPs/nHPs/UvyIHjhKHvjfUVqsuFbRA6QY8WIQHC0PiBF/tJ63uFox4sUYOFoeECP+aD1vcbVixIsxcLQ8IEb80Xre4mrFiBdj4EB4gCAIp9Np5/44HA6fz7d3W8WI37sPRQ0R8MDa2lpKSkpsbOybb76p0+leeeUVhNBrr72m0+nOnz8vl8sTEhLm5+f3PpMY8Xv3oaghAh6wWq1ardbj8YAug8EQFRU1NjYGX5eWljQazePHj/c+kxjxe/fh/mogCOLWrVtfffXV/k7zTLUTBHH58uXZ2Vmwwu12q9Xq1NRUh8MBPXa7vaqqyu12kyRps9kqKyttNlt4JocQ8U6n84svvtDpdEajcXFxMbz5xFEheYAgCJPJpNFotre3eQYSBLGysvLDDz+89957Op3OZDItLCwQBMEz5ED9tLa2dvnyZb/fD1YtLS0dP3787NmzuGdmZqa+vh7b3NfX9/LLL6+uruIe4Q1BEU8QRFdXl1Kp/PLLL3t7ez/88EOZTNbX1yd8mqcmqdfrEfcnJSWlvb0db52hWjU4OMiqOy8vb3Nzk6ptampKJpMxhc1mM4jNzMzExcVRBeLi4mZmZqhKSJLs6+tLTU3lyS8EQfzyyy+5ubkymezdd9+1WCxms1mj0UgkkjNnzqyvr9MU7utX5qJggZ2dnXje6upq5qoDgQDkbxCzWq0IIeoomgBBEJ9++qlareZPBHhSakNQxH/77bcnT5588uQJjCQIory8XKlURgRXUa2JSBtgAEJILpePjo56vV7gAWZmZk6fPo0QUqlU4aUHMO/BgwcJCQkIoStXrjidTq5UShDEwsJCWloaQuidd97Z2tqirc7r9VqtVplMdv78+YcPHwYCAZqAzWbLyspqbm6m9eOvbrdbq9VKJJL6+npqxBAE0dPTI5VKMzIy9rJSPFFIjfX1dZVKhRB66623nE4nbezOzo5arY6Ojq6rq/vrr7+8Xi9NgCRJGohnCpAkubGxoVKprl27xuV/1lEkKeAm2fT0dHFx8cbGBlVFRUWFTCabmpqidh6ctsFgQAgVFRW5XC6qVZubm3l5eQihsrIyvGNSBYS0R0ZGJBIJta7iGoUzfX9/P6vM1NTUSy+9tLS0xPqr0WhMT09/9OgR66/r6+snTpyQSqU3b95kPnW/3w/ZtKamJuyVss4btHN+fh4yAt7Q8BCPx9PU1PTGG2/woHCXy1VUVCQkn7a3tycmJs7NzWH9QhpBcrzP5ysvL6c9ML/ff/bs2UixRUKsDEkG6h6EkF6vpw0EbyKEqFURTSbo1+vXryOEhDwSs9mMEOJxlNlsZr6WYMDy8nJycvKlS5eY0UyS5Pb2tlqtRgiZTCZWAZIk4c3kmT3oSsMT6O/vRwgxQdr6+rpGo6mrq+NHlUwQz2UGSBqNRi4B1v4gET8+Ps4sm+BhlJSU8JvOOt9T6ARH7Aal1WqlTff48WOlUokQKiws3NnZof0q5KvX6z116hRCqLy8nCvUsB7IslwxTZJkdXW1wWDA8tSGxWKRSqUjIyPUTmj7/f6amhqE0IkTJ3iAbNAdhqk5Ij1QStFqm8nJyezsbIvFEtRpTBDPZRVkXiGph6ohSMQbDIb29nbqACga5HL5xMQEtf/gtKG+ZM1td+/ejYqKQgi1tLSEZzAclNDqKlZVGEFxxfTm5mZ+fv7g4CBzOEEQWq02OTmZdfcfHh6WSqUSiWRoaIg5FvfgiOepBLBwpBp4F62urgadQHvk5eUJPD/S6/VCECMob25uFi4MQ/gi3u12nzlzZnJy8tdffy0pKVEoFAUFBVqt9tixYzScEyl/RUQPF4jHSECn0zHPq//880+tVhsXFxcfHx8dHd3Q0MC6gwFUkMlkk5OT/NZi4oK51cDAmZkZpVLJCuJhL2LdHDweT0lJCUKooKCAJ8GTJPlMIp4G4t1u9/vvv5+bm0urA7lcJxzEgwbIbq2trVwKmf18EY8PuhoaGoBRio6Ojo2N3SPXEfQGBfNuBWtFz1wMSZIYdVAz69bW1k8//aRSqY4dO9bd3U1jRXw+3yeffCKRSHbJbOAW/v777/z8/O+++445RXNzc0gg/vjx46wxTZKk2WxWq9VUjgVPB3FTUVGBe3BjfHw8JiYGIRQ0c2MulVlBYm0RbwAmgQ12ZWUFeAK5XI5Pl7hmrKurUygU8fHxEGnPP/98SkrK3bt3ueShH95qvJ/wC8OvfBE/ODhYVVVFA16Li4tJSUnV1dVhMwA2m62goEARyufWrVtCFkOSJAbxVNIXIfTcc899/fXXzDcHjngQQtTED/QrM6Tw6xQREK/X66mvJXWBk5OTMpmMWXmTJNna2ooQErKVQ4UtRJI69R7bGMT/+OOP2dnZjY2N8H6GWl8KNMNmsyUnJ1PPqoIO5It4g8FAPQUAXcCEcEHMoPPttwAkNmpmJQjizp07crk8MTHx999/pxkwOjoaExOTnJy8vLwMP4F8RkbG9PQ0TTiyIP71119nLUxJkhwYGODK4hUVFQghhUJht9tp5lG/YvATamFHVUKS5MLCgkajaWpqYuJAmiRJkhjEy2SywsLClZUVbEZWVha+MsAcGHaP3W5XKBSs8I9LJ2fEu1yu0tJSJlqFiD+wZDwriIdCECGk1WqpW5bf7y8rK0MIJSYmarVanU5XUVHxwgsvZGVl3bt3j+kyfhC/sbFRVVUFp3JBQfz8/HxOTg4X4OGKeNh8WI8aaNbOzs7K5XKE0B6TK9BNEomE6+WkzotBfG1tLa6ChoaGJBIJQshisVCFI9KOZMRjEE+zDCgIJttKE3smX3mYeFaiEJOVlZWVvf99JiYmmIejeC38TLzFYsH0uRAm/tSpU0yUBXNxRTxJkpDj+bMaQRDXrl1DCGVlZbGyPXhFQRstLS2QEYQc9AATT2PJtre3CwoKEEL7QWdHMuKtVuuFCxeoGRG8A8mDxrYGdRxVwOfz/fzzzxBhQv69ffs2/w6OlWMQT6NHdnZ2CgsLmSQ6+EtgAsMgnhU1ulwujUaD6UIocLm8BHsLjfbFq8CHR9evX6d2QhuAMv95wtzcXGJi4u4tg73ffQKagXZ0zbSK37b29naEUExMzPj4ONfY8PrhCXIRAKw6OVGNwWBg5QqMRiMVYg4NDWVnZ+fn58P9jYGBgeTkZCYCps7tdDobGhp0oXxYSWuqTmhTiQLqr3i3pa0I/CUQoeHXiVnbkCTZ09OTm5uLLxp1dnbyYI/h4eG8vDwewg4oCJq11DXiQsXtdl+9ejU1NbWsrAzujWESlnkca7PZSktLk5KSbt++Ddduc3Jywj6aoHqYJEl8/sAsuOHIEiGE90Da2LC/8pBaXDrZIx5KEOY2ND09LZfL8Z21ubm5K1eurK2tKZVKYDa6u7ulUunAwADXfPvazwricSFIfVEtFssff/wBaZtJrhMEcfPmTRoC5rpOgytjKvECHCJr1bi4uPjqq6/iv3VgdQhQEKywx+l05ufn796Tu3Hjht/v/+CDDzo7O91ud3d3t8Fg8Hg8gN/q6+tptabH46mtrV1ZWdHr9QCKHj58mJaWxvpesVrF34nTCvOsBtdLSUlJPPdA+fWz/gqkFutmyCrPeZNsaWlJpVIlJSX19PRgYHP//v3U1FS1Wo3voLa1tY2Pj4+NjclkMqhsYG1Cqhwug8Lo93q9drv9wYMHOTk5CKG3337bbrdTbzVCsCKEICgdDkdxcTEAU6vVKpVKqVfw/vnnn0uXLhUUFAACDgQCGxsbNpvtwoULCKG0tLTZ2Vl8YjA0NKTRaJhbNr4IQE20gUBgaGjoxRdfZMYEbdX8BzETExPy/z5dXV3nzp2D6xIOh0OtViuVyujo6K6uLvzUsOaJiYnPPvsMMjFOw2azGbexZEgN8I/dbm9sbEQIyWSyO3fu2O12XKKAANQVCKHa2lqbzUaFSQRBfPPNN+np6adPn4Yztc8//1ylUgmpQKBeooFYfvvZc7zVaj137tzk5GR6enpmZmZ5eXlKSopCoWAe3+xyUnq9HgNW+GMWLgqC35SwfwVoSyPgqUeSPp9Pp9PBBbLvv/++uLgYByJcLY6Njd09F7x48SK859Q79Pgch6af9pU6HSwEX+XNzMy8ePEi/LFmdnb2/fv3hazUYDDwwK2FhQXI9DExMUaj0WQy5ebmSiQSnU6Ha55///2XluahQtilDvEO09/fv8fzKcxK0RyCsR+rAPWsY3h4uLW1dW5uLiEhAdBBU1NTXFyckJu5er0eAzwhXuXM8ZiJx28wF4MBdAfe0B0OR11dHX6/BRrxFMQCgcDU1FRHR4der//tt99oKdDn8zkcDtrOEBGrHj16BH+a1NHRMT8/Tzvu5ZlibGwsKioKxw1TEu7fd3R06HS6jo6OgYGBjIwMHMoEQbS1tTGvstDSk9FoZMow59q/nkAg0NDQsLy8bDabMcmzubl58uTJoIbBfhXqxW+WHM/FxLMuG2osvE33/PdhlRQ7Q/IAVynFpQSq8MrKSo/H4/P52traKisraefioBMfGC8vL9fX19NkuPTvaz8UVJgE29nZ0ev1tD8rYxoAcBrzY0wB1h6WiOdi4lnHQ70Cm9EudL569SoVorEOETsFeqC/vz8uLm50dFSIPEQ8hhZSqXR4eJg2EAILSlWCIFpaWvhZNdrw/fsKUYTx1ezsbGNjI/90UDFqNJpQ440l4lmv03BN7/f7DQYDkFxlZWWRrcS5Jj0i/VB+lJaW4vNLnoVD/sYRjwsV2pDh4eGUlJSPPvqourq6t7eXhu5owk/t68DAAJUxM5lMQZn70dFRhUIRxpV1lohvaWkRfnMLnOJyuTY2NoSD1KfmysM+0erqalZW1o0bN4Qs5N69e3l5eZmZmawEA9YARcuBqrVGRkbi4+OhVF1cXPz444/5sdb29nZRURHXW41XytpgiXhWObHzWXlgdXW1uLj4KRO+T3mxLperrKxMo9GYTCatVov/DwFWM3w+X01NTUtLS3gblBjxrF49WJ1er5eLKztYhu7Nmq2tLeopCpcyn8/35MmT8MKdk53kmkzsFz1w2D0g5vjD/gRF+0PzgBjxoflLlD7sHhAj/rA/QdH+0DwgRnxo/hKlD7sHxIg/7E9QtD80D4gRH5q/ROnD7gEx4g/7ExTtD80DYsSH5i9R+rB7QIz4w/4ERftD88D/AW9yCSUfhTpoAAAAAElFTkSuQmCC;" vertex="1" parent="1">
          <mxGeometry x="500" y="434" width="90.79" height="17" as="geometry" />
        </mxCell>
        <mxCell id="FryigcweT3gk02fsJ_st-8" value="" style="shape=image;verticalLabelPosition=bottom;labelBackgroundColor=default;verticalAlign=top;aspect=fixed;imageAspect=0;image=data:image/png,iVBORw0KGgoAAAANSUhEUgAAAU8AAAA8CAIAAABpbq9+AAAT1ElEQVR4Ae1c+09Uxx6//8DsFmgOoVmMNCA5JKCRQnwkizbpGjCgwZpAi4aSFh+EBHFFVDDZUBINZiXQGtpqG1pT5VEeVdCsZUPaoqBYEFEJigpCEMIqq8uSLpszl/BNJnPnLIdleQiX2R/InHl+5zPznfm+hv9g/uMIcARWBgL/WRnT5LPkCHAEMOd2vgk4AisFAc7tK2Wl+Tw5Apzb+R7gCKwUBDi3r5SV5vPkCHBu53uAI7BSEODcvlJWms+TI8C5ne8BjsBKQYBz+0pZaT5PjgDndr4HOAIrBQHO7Stlpfk8OQKc2/ke4AisFAQ4t6+Ulebz5Ahwbud7gCOwUhDg3L5SVprPkyPAuZ3vAY7ASkGAc/tKWWk+T44A53a+BzgC84/A+Pj4oOJvdHR0/kedqUfO7TMhxMs5ArNHwGg0IoQiIyMPHjyYkpLi4+MjCMJXX32Vnp6u1WoRQnq9fva9zrUF5/a5IsjbcwQYBGw2W0JCwq1btyD/2bNngYGBSUlJExMTkGMwGC5cuMC0WoRPzu2LADIfYmUh0NbWZjAYJEmCaZtMJoRQcXExQaGwsNBkMpHPRUtwbl80qPlA/4NAY2OjwWAg193/lC3zj5KSkps3b5JJGAwGLy8vOuf48eMdHR1Q4bvvvvvhhx/I0UBaLUSCc/s8oOpwOBoaGvR6/aFDh6qqqsbGxjDG/f391dXVc+/dbreXl5cfOnTo+vXrTqdz7h0uhR5qamo2btzY19enTMz4+Piff/6Zn5+fnp6u1+vr6+sBW+VW77x0bGyMrJTNZouOjo6IiBgZGSGE0RWsVmtcXNzZs2cXgeE5t5Ml8CQhSdK1a9c++OCDyMjI76d+Op0uICCgqqoqMjJy7rqZ1WqNjY39/PPPDQaDt7d3aWmpJ1QusTatra2iKDY1NSnQ9ebNmxMnTrz//vubN2/+/vvvq6urT58+/cHUr7KychEYA2OclpaGZD+abzs6Ovz8/OgqaWlpzKTkSjtTAWPc29sbERFRU1MjL5rfHM7tnuMpSVJRUZG3t/e5c+fIWS5J0tmzZxFCgiC0tbV53vtUy/z8fC8vr4qKipCQEIRQfn4+02F/f39OTs79+/eZ/CX7abPZ4uLi0tLSFGT4xsbG1atXh4WF3b59m2bsV69ebd++HSG0ODchxliSpPPnz09q3T4+PiaTyeFwMMDW1dWpVKrNmzdfvXrVYrHQ1ELNuro6hNCM5/758+eDg4N7enqY/uf3k3O753i2tbUJgpCXl8es8evXr7VaLX0JeDbGyMhIREREcHBwR0eHVqsNCwvr7OxkujIYDIwFiKmw1D4rKir8/PymOwclSbp48aJard62bdvLly/lxAPmGo2mvb1dXroQOXq9HiGk1Wpfv37N9H///n2tVvvzzz+Ts56pgDGWK+3yOhjjoaGh8PDwrKwsZi+5rOxxJud2D6GbmJhITk4WBOHu3bvyLlJTU1NSUua4cnfv3hUEQafTvX37Vj4Exhh0QsYC5LLmEsm0Wq1bt27duXOn3W53SVJNTY1arV63bt10Kv34+PiuXbsWzV/99u1bnU6HEGJEdEmSfv31148++sjl6pOpuVTaSSmTMBgMwcHBz58/Z/Ln8ZNzu4dgDg0NhYaGrlq1qqurS95FamrqjMKbvBWTU1ZWhhBKTU1l8slnV1fXqlWrQkNDh4aGSOZSTrS0tPj4+EyHTHt7u0ajUalUlZWVCrNITU1FCCkcggptZ1sECCOEysrKSFu73Z6dnZ2YmOhS+iDVMMbQnPa006VM+ubNm15eXtOBw1T27JNzu2e44c7OTo1GgxC6fPky04XT6SwtLX369CmTP9tPkCFpPy3TA+iEbm4mpu07+TQajdNJQ3a7fffu3QghhZsfaAZuF0VxcHBwoWcBCPv5+RGH2cuXL3fs2HH69Gm5Di8nxk2lHRoODAyEhIQs6GrOidu7u7v3798vCIK/v/9777138ODBGU87OSLLNAfudrDH7tmzp76+3mq1Ks/F6XT+9ttv69ev9/Hx8fX1DQgIKCkpkW+axsbG0NBQURS9vb0nDTz+/v6iKK5du7a5uRn6r62tFad+vr6+CCFfX19RFDds2ABavcPhyM3NFaZ+V65ckSSpsbExMjISSN22bdukYQ8oCQsLg8y9e/e6XLg3b97k5ub6+/sLghAVFdXZ2fnLL7+QEDEgxul0lpeXBwQEIIQCAgKuXbtmsVj27t0LdsorV64QTEAIn45Lb9y4oVKpEEIVFRWkicvEYnI7o7T/9ddfoiiWlpYq62idnZ0bNmwIDg5Wq9UIIW9vb1EUU1JSlN2HY2NjsbGxCyqpecjtTqfz3LlzXl5eeXl5MIcnT56EhobGxsbCpn/8+HFGRoby9Fyu5bxn2mw2xecJbKGbzxUkScrLy6O9LwihNWvWuGRgjPGrV6927Nih0WhMJpPT6ZQkqbKy0svL69ixY8zW6evrq66u/umnnzQajSAIJSUl1dXV169fJ2BChUuXLoWFhXl5eRmNRrpCbW1tSkqKxWLR6XRBQUHp6elJSUn9/f0Y42vXrqlUqs8++yw9PT0zM9NisWCML1++jBA6fPgwQ0ZXV1d4eDicDhjjmpoaOH1oDRYcEHv27BkeHpYk6cyZM2q1OjAwsLS09MWLFzExMfTeBaNjdHS0zWZjVhmMIAihkJCQgYEBppT+BJaYzmxG15x7GrRusBHAhgfulWM197Ggh9TUVFqOmK9uST+ecDtxMp05c4beIvn5+QihkpISjPGFCxeYuH/b1I8MvDgJp9OZmZkJN6Gbf/ft2zc+Pu4OeXa7PTc3F3YAzfYZGRmMewnc5j4+PrSTGSxA02n+4MtVMOy7VNrHx8cTExPNZjP4BRBC6enpRHwAg7bLTIYJ+/r61q1bFxQURHxCdrt9586djDOpra0tLi4OTg2McW1tLRHF4Vakub2/vz84OHjXrl1yeImgNKMcC50ghJiaTqfTYrEo2MbdWVCmDlHaz58/f+DAgS+//BIMhAtnSysoKFhQm6sn3N7Q0KBWq8PDwxnjUH19PUIoNjZ2ZGQkKSmppaWFwAdSnILBidRcdgmHw/HPP//k5uaCSxwhxDCwJElZWVny+5NcHfX19fJZA5jMnqaruVTau7q6YmJiRkZGYKeuXbv2xYsXpBXYgZiFM5vNKpWKZkJCsMFgIG3hbGK0br1eT5uvwB1oNBoxxiaTadOmTXQ0IZw1LvcAOYagLRlUniACP2PNMpvN/v7+0zn2oB+Hw1FUVBQTE+NmeAIgrFKpAgICIKSCjA5Xmpy8OebAyzmX+2GOPUPzWXM7OePprQB9wZpFRESUl5cnJCTQXhaIKGJWSGECDoeDCK4K1ZZUEQjncNXTC/bgwQONRiM/s8n1S1cmMyooKEAIFRQUkBwmoWzDg2uW8QJeuHBB7rsCFqVX0yXBcHwoyBpwoMunSchW4HbwNU4+EXUJBelBkqTDhw8jhOS3q8FgUKANeiChb/TRRjqXJwDhoKCgO3fuQCnZ/Fu3bp3RTCPvcMacJcftsOoqlcpsNjPUw3IKghAREUGLrHDSK8RUMP2A6+LUqVPy/KWQMz4+XlJS0tvbKyfGJQMDj8n3ogKSExMTSUlJCKHa2lr5KO542mGn0scr6ZO+jV167F0SDBcdc3zQtMGBrqB4K3A7FM3I7T09PUFBQZN2r6KiInpoUOb3799P65V0BUj39/eHh4cjhNwJYiGedkYhraioQAhNxs/duHFDPsQcc5Yct4OEGRgY+OzZM2ZuZM1oNI1GoyiKYD0OCgpKSEh48+YN01D+abfbMzMzaSkUY3zjxo0NGzZERUVB6EV9fX1wcPCMMVWdnZ3Vs/l1dHQob5qBgQGdTiefPsbYpSoONmS5TA7udEauBijg1FAw2MBJQWvFNIbQnJG6wUjGaBmwZEygGBDMMLb8+KBHhANdrk7TdYBmpluoAEUKpxsEsYJCRCzBGOO+vr4tW7bAEQC+iatXr9KDMunx8fHh4WF31PvpSIKgN4RQcnIyY51hxvLgE7h94R7DzlqSh8e6LmMbYOsEBweDBZjM1s2jl9SHRFNT09GjR4mF6eHDhzk5OQMDAxEREaDdlZeXq9XqGWW/H3/8MX02v8LCQrkZiabNbDaLouiS20EG3r17N63FwOMKRiZ3OByJiYmTt4RLTRW2mlwcIGQwSvvw8PCBAwfIKyuXzUFpZxgbDKsQft/U1HTkyBGn0wncThMGIgAcHzabLS0t7dGjRxjjR48e5eTkPH78GEJEmelcunSJvoQHBwdFUWTMgTAjYsIgCsWtW7d0Ot369evJGxiFMDuTyTQryZHAqJCAs5g5HKE+gKbRaB48eKDQgwdFer1+Xp5XTDf0rLkddhKzaTDGTqezuLhYpVLJHaqzVdqBVkmSqqqqsrKyQBb45ptvWlpabt68KQgCKBHgtpErFNNNdb7y4QCWu4XBuCUIAlHzYEQQjMk+hsy6ujq1Wk1fUzR5cKQqqJdAA2HIoqKi7OxsIpLATmVuUbnSDiKAj49PS0sLqMQwKaZzjPGdO3cEQQBRoq2tbefOnVarldxyRqMRQmJpUdxqtcbHx9OWWhB8pjvCwBE4+a+dhoeH29vbExMTe3p6hoaGvvjii+7u7ubmZo1GI4rivXv3aKAg7Y7SLm+lnAOyjMtbDSICEULyJxLKfSqXSpKUkpIivyyVW82qdNbcDnt6MpiZfqDX3d2dmJj46aefbtq0CQ6n5ubm7OxsEHXkR29BQUG0ez9/f/81a9aQSCa9Xk8OGkmSjh075vKOnRUEs6pM4rRFUaRjpO12O7xXKykpIVwHPQ8PD0dGRpLYb0mS/vjjD41GExsb6zKmBWNcXFyMEGIOCJpOYEjQ6s1ms06no+UpudQNO4mJAAW/F5zOra2t8fHx4Et7+PDh6tWriaTa3NwcGBgIwapWqzUvLw8s0nDuh4WF3bt3r7KyUhAEIoo7HI7jx49nZmbSsq4kSfv373d5W2KMHQ5Heno6RKRnZWURg0VxcXFMTIy3t/d0cHkmOdJg0mmIzmhvbw8NDUUI7dmzZ3BwkH7cZrPZ2traRFGEaKJbt24xqkF/f//u3buDgoIgsqi/v3/Tpk20jEMPR6fh8HUp+9DV5pKeNbdjjMfGxvR6vVqtjo6OTkhIWL16dVRU1N9//w37WBCEzZs3r127trW1FSjz7OiFhwfkbscYg+ZJeGBoaCg7O1tZ6p4LNC7bDgwMhIeHl5eXnz59WqVShYSEpE79Jt+0h4WFNTY2MqwOnTx+/DgqKkoQhM8//3z9+vUffvhhSUkJLe3TYxHOrKuro/PpdF9fX2RkpCiKOp2OBMBAhbGxMQjjoeXM0dHRLVu2MKZs8mJ3+/btWq2WDvg3mUwajUan02m12o8//ri7u/vs2bPwtHPHjh1gjnY4HBkZGevWrYuPj9dqtU+ePMnIyPD19U1ISAgJCcnNzSVaGKEchI7p5uVwOAoLCyGGZ/LfBJSWlu7bt08QBFEUr169Csq2JEmMs8YzyZGQxCRmfNMur0AbJu12+5EjR3p7e/V6PfDt06dPw8LCXPodmaHh9CTbmymdl09PuB0GJjFqTGgU5BMmhMsQpMrh4eFTp079+++/7pDO6O0YY7ALkFO/curnTlfzWKe3t7epqQlY2mKxVFVV6fX6nJyc27dvyzc3Pa4kSRaLZXBwkLkK6DqQhjPepR2UruxwOIaGhuhrh5TabDZ5RODo1I/UIYnR0dGhoSE58fL+5TVhUqQ5mSOzJchYwJmMlZuUQmJsbGwy3DBn6vf777+fOHGCNnD29PScOXOGbmI2mycFJZCzLl26ROKL6TqLlm5tbS0sLIQVJNMsKysjaQVKysrKQKtSqDPHIs+53c2BwTZjNBolSfr222+VjWqkT5c2eTj8oIfJXX7y5MnpdhXpZxkl7HZ7Q0NDZ2cnTFNBaV9Gk2JInZiYSEtLc+mGYGqST+PUQxoIzn/y5ElMTAxtC8AYg9NncHCwr68vMzNzKWwJs9k8+VSZ/CO6yXcNtNeTTI1OgH90xhdBdBMP0gvO7RMTExkZGfHx8Wlpae7/t72uri65v31iYsJgMIAWlJycTII6PZj2UmtCwteio6PLyspUKpXcCrjUaPaMnra2Nj8/P/nDwel6AwsFCUxm/B0YY9CxT548SZ4DTNfVouUz1qX8/HxaS3JJRktLi0ajmU7HcdnEg8wF53bwlFosllkdugqxdDabbUZh2AMg3m0T8tijoKBg3759cXFxs4Lr3RI/q9HhkcXGjRuHh4fdaQi+RuB2YulkGrrvRWcaLsQneBOJQ+T58+fHjx+nrZXyQR0Ox969e+kXDfI685KzGNw+L4T+33dSW1sLb4c/+eQT2sD+/zdxeCNEh2ApzHFsbOzo0aOiKCYnJy8LWOgnIWAHnTEArLKyMjIycrp/16MAzmyLOLfPFrEFrO90Oqf7p1QLOOq76NpqtSYmJl68eNGlC+NdUDSfYzY0NISEhHz99ddpaWnV1dXKc2xtbY2JiVkEVscYc26fz2XmfbmPgMPhePXqlTInuN/bUqsJHg3imVIgb3R01J1qCj24X8S53X2seE2OwPJGgHP78l4/Tj1HwH0EOLe7jxWvyRFY3ghwbl/e68ep5wi4jwDndvex4jU5AssbAc7ty3v9OPUcAfcR4NzuPla8JkdgeSPAuX15rx+nniPgPgKc293HitfkCCxvBDi3L+/149RzBNxHgHO7+1jxmhyB5Y0A5/blvX6ceo6A+wj8F31qMqUOU+d+AAAAAElFTkSuQmCC;" vertex="1" parent="1">
          <mxGeometry x="294.56" y="530" width="111.67" height="20" as="geometry" />
        </mxCell>
        <mxCell id="FryigcweT3gk02fsJ_st-9" value="" style="shape=image;verticalLabelPosition=bottom;labelBackgroundColor=default;verticalAlign=top;aspect=fixed;imageAspect=0;image=data:image/png,iVBORw0KGgoAAAANSUhEUgAAATsAAAAqCAIAAABDQ2saAAATOUlEQVR4Ae1c/U9T1////AOnnWBKMIVIAja3CQ+B0fiQMM0SCDWggZmpAcaaiSghInb4BFs6gw/BgKnOdRO3sJkp2IEMQVMnYVsAqyD4TDYZiiVAQxGkD1lp7v0y3snJyb23l7aggt97f2jOPfd93+d93ue8znk/nNv/MeIlakDUwNLRwP+WjqiipKIGRA0wImLFSSBqYClpQETsUhotUVZRAyJixTkgamApaUBE7FIaLVFWUQMiYsU5IGpgYTTgcrmGBa+JiYn5tyQidv46FDmIGvhPA5WVlQghlUq1e/dujUYTHBwsk8l27NhRWFiYlJSEENJqtfPXlIjY+etQ5CBqgLHb7Vu3bu3s7ARdDAwMREZGZmVlTU9PQ41Opzt//vz8NSUidv46FDnMoYGRkZE9e/ZYLJY56Jby456eHp1OR9M0dMJkMiGETp8+jft06tQpk8kEt99+++25c+cwMabxpRA4Ym0229mzZwsLC8vLy/v7+31p7B2gcbvdN2/e1Gq1e/fura+vdzgcDMNYLJaGhob5987j8Vy/fn3v3r11dXVOp3P+DBcDh8HBwTVr1ly5ckVYGJfL9ccff5SXlxcWFmq12paWFtCt8FuL56nBYOjo6MDy6HS6ZcuWkTWHDh26f/8+EExOTqanp1dVVQUA2kAQS9P0zz//nJiY+M0338zM1C+//FImk805JLgzS7RA0/S1a9dWrFihUqm+m72Sk5MjIiLq6+tVKtX8DR632w0Oj16vDw0NPXjw4BJVFCn25ORkWlrakSNHBKbmq1evDh8+vHz58nXr1n333XcNDQ0nTpxYMXsZjUaBF8mGFqpcUFCAOFdiYuLY2Bg0cf/+/dDQUJKkoKCAYRiHw+HxeIDGbrenpqaSb7EIGIZ5/vx5YmJiAKgJBLE//PBDRkbG+Pg4yEfTtEajYcm3UBpcJHxomtbr9UFBQWfPnsUDQ9N0VVUVQkgmk/X09MxT1MuXLyOEzp07l5qaihD65JNPcEPA2e12nzlzpra29g1P4vn0S6/Xx8XFvXjxwhuTtra2lStXxsTE3L59m+zX+Pj4xo0bEUKBbUTemvOlnqbp6urqGZs2ODjYZDK53W7WW83NzRKJZN26dVevXrXZbKTYQMl1Ylkc4La6ulqhUPhrn/qN2N7eXrVabbVaSSHy8vIWZNaSPBdVuaenRyaTcfeKly9fJiUlzX+1crlcmZmZMpmsvb09Ozt7xYoVN2/eZGmgo6Nj2bJlaWlpS8VcfPbsmUKhqKysZHUEbmmavnDhglQqTUlJGRkZ4dKAzuVyeW9vL/fpa63RarUIoaSkpJcvX7IaevDgQVJS0o8//shaT0my5uZmhNCcZtfo6GhCQkJJSQkX8yQ3Vtk/xLrdbo1G09jYSHKZnp7OysoKDw/v6+sj69+Z8vT0dG5urkwm6+7u5nYqLy9Po9H4pXQuE4vFopi9BMIzkDzQ6XTc1xdnTXl5uVwuf/ToEa94V65ckUqlcXFxg4ODvASwii1UUoS3Cd7Kqamp5ORkhBCYu5gGnMH333+fdxpgMoZhuE4s+ZQs63Q6hULx7NkzslK47B9izWZzenr65OQkyRSW0s2bN78zwRKydwzDjI6ORkdHe1uS8vLy5lxNWQy5t7B/pqam2u127lOGYfD0xfFGXrLFUzk5Oblhw4bMzEyXy8WVqre3Vy6XSyQSo9HIfYpr8vLyEELJyclTU1O48nUX+vr6wsPDEUK1tbW4LafTeeDAgW3btvGaA5iMYf5L83CdWJKALMO4+zV//EOsTqczGAxkkzRNnzx5Ui6Xd3V1kfXvUvnhw4dyuRwhdOnSJVa/PB5PTU3NP//8w6r39/b8+fPcRZ1kMjQ0pFQqIyMjBwYGyPpFWwabtqKigiuh0+ncsmULQmjOVR4QS1HU8PAwl89rqgGbNjQ0FId2R0ZGNm3adOLECa5Py5UBAE9mYrk0uAaG1UdieMsPxDocju3bt3d3d3d2dm7evJmiqA0bNuTn569YsYJlJ2OB3o0C7LEQHszOzm5paWFZGbzdfPLkSWZmZlBQUFhY2Hvvvbd7927u8tzX17d27VqKokJCQhBCISEh1OxVV1cHPAcHB9evX09RVERExEwYRiqVKhQKiqKqq6sZhnG73WVlZbLZq6mpiabptrY2lUoFoqakpFgsFo/H88svv8TExEBlTk4OVwyGYYAsPj5eJpOFh4cbjcb29vaffvqJnKMej6eurg4kiYiIuHbtms1my8nJgdhbU1MTqQdYg1paWshKKN+4cUMikSCELl++zH1K1rwVxLKc2D///HNG/zU1NT46Pj46sdBNh8ORlpYWHR09OjpKdlyg7AdiBwYG0tPTx8bGysrKYPiDgoJCQkJUKpU3V0Sg4dfxyG63C57rZD/08ZwnTdNHjhyBLuPfVatWGQwGckLjHnk8nqqqKolEcuTIEYgS9ff3x8XFrVu3jhWxGxsba2pqunTpUnx8vEQiOXbsWENDQ1NTE84lOByO69evNzQ0ADA0Gk3D7AUKb2xs1Gg0NpstOTk5KiqqsLAwKysLPOFr165JJJLt27cXFhYWFxfbbDaGYS5duoQQ2rdvH2vyORyO/Pz8sLCw3377bSbyPzg4mJCQIJFIyJkEgfHs7Gyr1QqGlVQqjYyMrKmpefHihVqtJolnjEOtVssbjISgAEJIqVQODQ1hpXELMJu9RYC49AtSAzYtOM8ej+fs2bNSqZRXaazmHj58uHr1aoVCAfRBQUEURWk0mjnDhHl5eeR+zmLLvfUDsSaTadeuXazB7u/vj4qKKigowKexuG28mRqPx1NcXAx7lI+/O3fu5PWyuAI7nc6ysjIYDAxahFBRURGr4zjlwwosV1RUeIsfCvvJ3pxYl8u1bdu21tZWiFcjhAoLC/EKAkYpbyXLW4Y8MMvmNxgMCCHSC+3p6UlPTwfkMwzT2NiIzVrYlEjEQsKP1/PHBsucpiBE4xBCc1JyxyvgGuzEVldX79q167PPPsvMzEQI+Rsf8l2AiooK1lkL4Xf9QCzvwUhYCBUKhUCQU1gCX57aZy9fKF8rjdvtvnv3bllZmVKpBNxyJ+XNmzelUmlCQgLLzoFIb15eHldCQBdvLgGIeZ3Yvr4+tVo9NjYGkyw2NpZMe0JIgyVGa2urRCIhccgwDAjMah3WF9IL1Wq1ZCRGp9MhhCBzYzKZ1q5dS576gp2K1//ES4m3rA/WDzae/QrM4Neh4Ha79Xq9Wq1+8OAB6xHvLdi0EokkIiICcu9YDFYEh/f1ACphYvC6D7zcfEWs3W7fsmULN64NiOW1f3jbC6ASwqS8cz0AbgvyCk3TRqMRtlxS106nc/PmzQghbg4GpjhvL2C/EkgRAdK8ZWJ5Xwc3kvWxCMhAysYrMChcIpG0trbyqgsIBHYGAcR2d3fLZLKZb1xIvXFboWl6375989/c8BEl1jrFbRFqwF6Iioq6c+cO1GAVbdiwwZf4hTfO3upfF2KxE8tqGEwyvwxxFgd863a7eY1+OEEyn4UWN+FvweVyGQyG58+fc1/Etig582C74851nJthQQjYApDIDY3VnHAmFiYZqR/IkLPyE4AiFsx4BYYtXcBughERcEQFEIv3WFJvrP4yDAPeFkJIr9dzn/peY7FYEhISEEK+HFTAmVjWMMFxtJlzTjdu3BBoOjBL8HUhtrm5eceOHSwnlmGYR48eyeVylk0l0CuBR319fcePH+cSmEym0NBQX44BPnz4EAIzPv7ev3+f2yNSgKGhoeTkZN6ECowuyypuaWlBCHFzMDDFeYcco8tbohWjnZcAFg7W6Y6xsbHExESWbLy2NwjMAiev8UyqBT5MEXAvQWYWW+CAHUWB/AJN0yUlJQihtLS0+W9rLpfLarUKHFHCXfMmGxxOQgjl5uaywhb4Xegyrw2FaXgLgFjeweWl99Uq1ul0vNKUl5djf4ZhmBs3bqxevfqDDz6AYGZLS4tCofDxlJnT6SwuLiadscrKSpz5iIqK2rp166tXr3i7wTAMTdPff/99oT/XqVOnhCNPra2tFEXxIhaWqi1btpDnRmAqczP+Fy5cQAixQj7QEV50kX1kObE0TX/11Ve///470MAkYx2TBCeWtYzCSJWXlzMM097e/vnnn3s8HkAsSzCYQ7DnGwyGmpoahmGePHlSWlr6999/w5kectAZhrl48SJrM/R2cBW2X9Jx6OzsTE5Ojo+Px+f+vR2HgiGOjY39+OOPAclff/21SqVaqBhKbW0tQoi10oGeQXsCR7gCtgS9BdXJOUCWfUIsaJmb74aTK3ghfPz4cWlp6dDQUGJiIsQV6urqpFKpsP1DStPe3r5//34c8IQvHtLS0vLz84U3Q5LJApZh7nLThrAJyGQy7O1Ao4AfFlTAMPN2yAQcLRbkyC7A3ohBxTrXDZOM5QNznVjYioODg81mM7iI0CkWc4ZhJicnU1JSEEImk8lut2dmZprNZrzJVFZWwmEm0hGdnJzMyMgwm82k2BUVFVzvAAggyTTzXw1Wq7W3t3fbtm39/f2jo6OffvrpX3/9devWLblcTlHUvXv3SIYQJDt9+vTjx4/Dw8NhUh07dsxH+4vFivcW/AvugsswjNlsDg4ORgixUgCYj++WIH4FthmNRsNrjJBkZNknxA4MDKhUqqioKLwKMgzz4MGD6OjoGTjhjPyZM2fMZnNHR4dMJoOgBSTfvAUwSDmgTNN0fX19SUkJ3ksDXrq4zP2tweYoRVFkyM3pdJaXly9btsxgMLDWEUDyzHFZ/BWVxWJJSUlZuXJlW1sbrwBzWpgAKsDkyMhIenp6c3MzZsV1YiGzwnJiIacCwduurq6MjAzI08DxI5y6GB8fn/luUyqVgpnd3t6elZXldDphJYqJibl3757RaITQEZi1brf70KFDxcXFLHNR4CABzicVFBSUlJRg8/j06dNqtTooKIicVLinHo+nrKzs2bNntbW1eBt8+fJlRkbGPA+0Qxq/t7c3OjoaIZSdnT08PEx+lGO323t6eiiKQghFRER0dnaSZrZfliDuDhRgJcXLMesp761PiG1ubs7Jyenu7o6NjY2Pj9doNEqlkqKouro6rnug1WrxJkPT9MGDB8GqrKioSPXtCgsLW7VqFZwRC2zp4u2qv5VDQ0MJCQl1dXUnTpyQSCRKpTJv9pr5JjYmJqatrY0FV+DvcDi0Wq1UKk1NTd24caNMJtu9e7eA2QZ5FIFUh9vtLioqWr58eXp6ulKpJB0eh8OxadMmlqk2MTGxfv16DEKQCn8tuHHjxqSkJHKKWyyWDz/8kKKojz76aNWqVUaj8c6dO3K5PCYmJjY2Fg6fggxxcXEZGRlJSUlPnz4tKioKCQnZunWrUqksKysjzSJoEZZab8aR2+0+depUUFAQHBuuqanZuXOnTCajKOrq1aswqWia5kYiYRnFLvTU1JRWq+V+YePXWM/5TSyXgBV1g4yJt84KCANLIRm9FyCGRz4hFmdiPR6P1WodHh72dloIvDIswejo6IEDB4R9RVJE+DyC3GN1Op2AxUi+u+Dl58+ft7e3AyxtNlt9fb1Wqy0tLb19+zZ3grJax6evhPsOYSdW/JbFCmwnm802OjrKbddut3PHYmL24vKZmJjgZULTNIu/a/ZvAcnPElg0cDs8PEzSkC1C14THzuFwmEym0tnr119/PXz4MIYihItPnjxJ8mQYBqY4zgw/evTo6NGjLJo3fxuwJVhbWwuuiu8yz41Yb5lY3jbAhMN2jnH24qXkrWT5sbCggkFotVqPHz/+77//8r64tCo9Hk9HR8etW7esVmvi7IWPJS6tjghL29jYGBQUJJwRITlUVlbKZDL4c7OnT5+q1WqWb8wwTEtLCxkYr6qq4tKQPN9MOTBLEBY1bnhIWOa5EestE8vLF5ZAiArMeAJffPGFtzWY+zo3Vjw8PExRVGVlJU3TM1FB3yNYXOaLqgb+4oCiKJh/EL9dVBIuiDAQsMzJyeGaBrz8Ic6HD4Gy4vDwSmtra1hYGKT6+vv7jx8/zvKfeTm/7srALEGz2SyXy8mohC9yzo1Y3uPE3lhPT0/rdLq1a9fq9frc3Fy//hGDm4+dnp4uKirKyMgoKCgI+L/nvIn6FuvBL9qzZ8/Ro0cTEhIEvNy3KOSCNN3V1RUZGcn9Pw1e5hCsAsR6+9Ldbrfn5ubC35rl5+fjvy7iZfhmKgOzBN1ud05ODnkU3Edp50asXq+/ePGij+yAzG63k8E0H9/lPfME/pLvG7WPbb1dsrt370ZERISFhcXHx3NzGG9XtoVtHb6LWLNmDeujJd5WHA7H/v37KYrKzc0VXsUmJibIWC4vtzdWGZglaDQaA/vobW7EvrGe/79qaCYpOjU1xRttfsf0AGHq/Px8buD33ehpAJZgV1eXWq0O7BtVEbHvxrRZ1L2gaXp8fNxHb3ZR98SLcP5aghMTE8JJBC/t/FctIlZAOeIjUQOLTgMiYhfdkIgCiRoQ0ICIWAHliI9EDSw6DYiIXXRDIgokakBAAyJiBZQjPhI1sOg0ICJ20Q2JKJCoAQENiIgVUI74SNTAotPA/wGAVOXBEelEsQAAAABJRU5ErkJggg==;" vertex="1" parent="1">
          <mxGeometry x="489.14" y="530" width="112.5" height="15" as="geometry" />
        </mxCell>
        <mxCell id="FryigcweT3gk02fsJ_st-10" value="" style="shape=image;verticalLabelPosition=bottom;labelBackgroundColor=default;verticalAlign=top;aspect=fixed;imageAspect=0;image=data:image/png,iVBORw0KGgoAAAANSUhEUgAAAS4AAAA4CAIAAADM2oImAAAPYklEQVR4Ae1d/09TVxvfP3CoQFKCASIJtSkJSHAlTjI2lowMFzpHR1wmGNLEqmENBjpgEzCNsrBg2Aa4NUo18wcUJBOj8AMNbMkmo9GOL9sYmXNIgdU2VCmWkt0297y+O8nJee+9rW1p18vec38g554vz3nO557POc/znNPwAqQPRYAiIAIEXhCBDlQFigBFAFIq0klAERAFApSKovgMVAmKAKUinQMUAVEgQKkois9AlaAIUCrSOUAREAUClIqi+AxUCYoApSKdAxQBUSBAqSiKz0CVoAhQKtI5QBEQBQKUiqL4DFQJigClIp0DFAFRIECpKIrPQJWgCFAq0jlAERAFApSKovgMVAmKAKUinQP/KgRcLtcXX3yh0+na2toePHiwjca2VSrOzs6mpqaC/30UCoXdbocQjo+PJyQkkIVZWVkLCwsiAUhQ+ZqaGgihzWaTyWSk5gAAtVq9ubkJIbTb7QqFgixFrUQyrviqMTo6SiKD0t3d3RBCi8WSnJzMKdXr9UjhqakpqVRKlqJWIQ6HZdm+vj6lUvnll1/euHHj9OnTUql0aGgoxOZxr7ZVKqIBuFyuw4cPAwB27NgxMDCA5iuEkGXZmZmZzMzMnTt3fvXVV3a73e/3x33MpAIsy5rN5sTERADAxYsXPR4PLmVZ9vvvv0eTo7GxcW1tDRdBCDc3Ny9cuLBjx47W1tY///yTZVmy9P887ff7L126BABITEwcGRnB8wFC6Pf7r1+/jvjGARxC6Ha7T58+nZSUZDQaXS5XWDBevny5vLz88ePHqBXLshqNRqlUrq6uhiUnXpWjQ0UIodlsRhtgW1sbHgzLsp9++ukbb7zx6NEjnCm2BF6MR0ZGOLrh3a+zs5NTBCHs7e2tq6vz+Xz8on9HDsMw169fJ5en0Mc1MjICAJBKpVNTU5xWQQBnWbapqamrq4vT5Lmv09PTBw4ccDqdZE2tViuoAFlHPOmoUdHtdhcXFwMA9u7d63A40AiHhoZeeuklm80mngHzNVleXpbL5QAAk8nEKf3ll1/S0tIAAHwqLi0tvfnmm9vLG+GM7rmvdru9tLQU+RrPrcypYLVapVJpQkLC+Pg4pwiv2vy1b2pqSqVShbsfMgyj0Whu3rxJduTz+SorKzMyMubn58l80aajRkUIodFofDZrExISzGYzhHBoaCgvL29mZka0g0eKBdr6fD5fTU0NMqU4riDLsm1tbREs3iKHgqPeVqgYaOvzeDylpaUIVY4ryDDM0aNHh4eHOWo899VisahUqmfGLVnz4cOHcrn84MGDXq+XzBdtOppURIMHAFRXV09OTubl5d27d0+0I8eKra6uKpVKAEBHRwfOhBCOjY29/vrrBQUFAACtVksWTU9Pl5eXh7t4kxK2RXorVJyfn8/IyAAAcDar3t7et99+OzMzk29rDA8PHz16lGGYcMExGAxGo5FsxbLsuXPn0tLStsUMRJpHk4osy9bX16MFLzU1lfMNSKRElcbrNMk3j8ejVqvHxsbUajUAoLKyEvuEguZQ8BF5vd6+vr78/PzU1NSkpKTc3NyhoSHxR3q2QkVBWwNZ9RaLBa19BoMB4+ZyuVQqFd+xxBUCJTY2Nt577z2r1frDDz8cPHhQoVAUFxcfP358586d22UGoqFFk4pk8Objjz8OhF3E+SzLulwuezgPGbsL1K8gFa9du6bT6Xw+n1arBQCUlpbi6MXY2FhVVVXoZs/i4mJRUVFOTs7MzAzLsn6//5NPPpFIJDjOfvbsWb5DFUjbfzI/ulRkWfbMmTOdnZ2CgPf29jY1NUWwPC0sLKhUqtXV1ZaWFrQNJCUlpaSkFBQUiDxIwfmUUabi77//jmyP4uJiju3O6Zh8XV9f7+jo0Ov19+/fJ/M56eXl5eLiYkU4z9WrVzlCBF8R38rKyjY2NiCETqdTpVLNzc1BCDlURLvlnTt3BOXwM202W15eXk5OzuLiIi5FljyKb62urh44cECcoYWtUBHzDbvZc3NzKpXK6XTiImyGbCUGNjo6euLECQ6HHzx4IJPJampqsC2DwRdtIppUdLvdKpVqz549ZPDmuSP3er0VFRWnTp16+eWX8bd5bqvoViD5htwMHDLt7OwEAOBLC0EWb7/f73K5yINTNDQAAMeTwXNxdHTUbDZrtVpyxvDlRHewoUuLChXRN2UYRqfTYYuRA3hTU1Nvb2/oipE1DQYDP/S9sbFRVlYml8uXl5fJytFNe/5+oiUzalREWOt0uvv376OzgerqanKGBdLYYrFkZWX19fUVFhZeunQpULWY5hsMBgAAOg7GizfqkaRi8MV7fHw8PT2d9HZQ1F7wghGaiz09PYcPH0YBZzxAvhxcFKOE3+9vbm7mWxsymUwikchkMn7RsWPHghv/6CwBX1HiWPUkFSM7wEBQeDyeiooKq9XKQQZRMaaHipubm2q1OoqbR3SoiHhYVVXldrtx8EZwCnIggxB2d3fjPYdf+s/kYL4tLS3pdLpr167hfk0mEwAgIyNjbm4OuTq4iJMwGAycux16vR7PRU5lNBf37t2r0Wg4MUO+HE5bzuvTp0/JrZhTGuLr2toa3wefnZ197bXXZmdn+UWcu0eCvWC+2e12tVpNWvUIGaVSubKywj8SFJQmmIkdRU7pkydPioqKUlNTZ2dnOUXhvjIMg9wWTsOFhYWsrCz+hsypFvprFKiIrtSQBzv46inHMOOrhW4nYSeNX4HMYRjmm2++uRHyc+vWrRCPpxHf5HJ5f3+/Wq3GERoIIb41YjKZ+Pc5sHpoGT5+/Dh2WrAVSsYJcX00TXft2oU8UpzPl4OLAiXa29tj5GpuxUCFECK+lZSUPLvFhmJgeAh47btw4UJYMTAsASXQ+QfGHJeiuxlFRUVPnjzBmZEl5ufn29vb+W1HR0dTU1NJI4hfJ6ycrVKRZdmurq4XX3yRjFbhmzdBgjc+n6+2tlYul0skkqSkJIVCodFoBJcfPB6Xy9XS0qIL5xkdHcXNgyQQ3xISEnbv3k0u3piKiYmJCoVicHCQL8Rms7366qvo7nhKSopCobh9+zaEEJGKf7CGJCAqkieZgeTwe+TkmM3mnp4eMtPtdr///vtZWVk9PT0sy3o8nvLy8pMnT4biL5BytkhFxDeJRKJUKjnXklBRcnJyfn7+3bt3yU5xenl5uaKiQiaT3bp1C0K4vLy8f/9+zrUKg8EgaCK2tbWR55Zms3nfvn2vvPIKmqUjIyPPTv+np6dxX0ESXq+3rq5uaWkJ1+ns7FQoFCkpKQAAmUz27rvvrq+v49KIE1uiIsuyg4ODglfbODdvAumHLp1FcZcP1FHwfERFAAA/5oZvjVRUVAQ5wBBcI9G20N/fz+l9cXFx//795FzBFQTl4FLBBMMwtbW1+Cwb3QS6e/euyWRClv/a2lpJSQl5HiMoh58ZFSoKDhMD3tDQwN/TIIRer/eDDz5YXFzU6/VI8z/++CM3N5ckHrI7+Pdppqen09LSysrKUAx/bm6uubl5ZWVFqVSiaNzAwIBEIuFfu+MjgHLu3LnT2NhI+hERGC+BhOP8SKjIMIzD4ZicnDx06BAAQKVSkT9NQKd/V65cQT93UKvVNpvN6XQK+jMTExNSqTTup2qIb3xzEUKIipKTkzm7JUYQJQQdvLm5uV27duE5gWbYlStXcnNzT5w4kZCQoNVqGYapr6//8ccfg8jh9MV/ffz48bFjx7799ttnBr/NZmtubvZ6vZWVlfhXXRMTE1VVVcEDLXyxW6Qi4ltBQQHnlja2NWQyGWe3xDrcu3fvs88+Qy4f/hVVf38/TkMIFxYWCgoKZDLZ4OAg5vNPP/2Uk5NTVlaGf4HQ09NjsVjImebz+aqrq0OfdSzLfv311w0NDXj3i7qjCGFE/9Stu7sbnaXiv6Qhiq9Z4FIU9hD0Z/r7+0OM7uCPFIsE4tuZM2fwF8W9oH07uHUXZI387rvvcnNzMzMzNRrNvn37MjIyWlpa1tfXPR7PkSNHpFJpYWFhbW0tWnH5cn777bd33nmnNISnsLBQIpE0NjYiKxTdO8MbstVqPXfuHB5UiImoUJGMgeF+rVZrSkoKx9rEpTgxPj4ulUonJiZQzs2bN/GIIITDw8NHjhyxWq179uzJz8/XaDTZ2dkKhWJgYIC/7uv1euw6siz74Ycfot/NdnR0hIDuf6ukp6fv3r0bxYEiMF7woAIlItkVA8mKIF+v15eUlDx9+jSCtlFsYrfbP//8c8E7CR6Px2g04iVWsNPga6Tf73c6nXa7nWMaoHyXy4X5H1yOYNco89GjRxqNBu2KKMdkMpFrnMlkCn0TwB1tkYrz8/NGo5G060jJRqMxeGgABX5I/rS1tZELOj5RxAgHiuuia8Y4fuZwOJqamkK3EdCPksldUdAIwqOLLBFPKqJNQKPR4LkY2Rji3mp8fPyZc4JOt65evTo5ORmZSpHJ4fiKqGutVovXOLfbrdfrBRea4Ho6HI633noL/+QteOWolyJXEE+Phw8ffvTRRzjyFOhEUVANZPXgCwaDfz+CNQUzOb4iOlFEijmdzvb29r/++kuwYViZ8aSiw+HIycnh/FImLO1FUhmF1Ox2u81mq6urI89CwtIwMjn8CCraT3CcZnBwMPQQRVgKx7QyeYaOAvVkzDPQiaKgSshcRyA8M0NaW1tD/0b8CCpywTo7O1mWPX/+fLSwjScVrVZrWlpaBIaTINxxzJyens7JyWltba2srNzKTavI5AieK/78889KpbK+vr6hoeH8+fN83ymOcIXe9djYWHZ29tmzZ2tqam7cuEFaT4JXTwNJ9vl8BoMBnYVUV1cHihUJNuefK/p8vpMnT5aXl9fU1Fy8eJHUSlBCiJnxpGJ/f392dvbKykqIuoq52ubmJscVjEzbCOQEum2DPKjQl//IFI51KxSu5/t1XV1dId71xxp6PJ4IvpHgbRt0TBBdbONARbfbfejQoVOnTtX//URrUcGI0wRFYDsiEAcqzs7OpqenGwwGlUpFWv/bET6qM0UgWgjEgYoMw1y+fFmv1//666/RGgaVQxHY7gjEgYrbHTKqP0UgFghQKsYCVSqTIhA2ApSKYUNGG1AEYoEApWIsUKUyKQJhI0CpGDZktAFFIBYIUCrGAlUqkyIQNgKUimFDRhtQBGKBAKViLFClMikCYSNAqRg2ZLQBRSAWCFAqxgJVKpMiEDYClIphQ0YbUARigQClYixQpTIpAmEjQKkYNmS0AUUgFghQKsYCVSqTIhA2Av8BRL2BNydfe1IAAAAASUVORK5CYII=;" vertex="1" parent="1">
          <mxGeometry x="390" y="630" width="86.29" height="16" as="geometry" />
        </mxCell>
        <mxCell id="FryigcweT3gk02fsJ_st-11" value="" style="shape=image;verticalLabelPosition=bottom;labelBackgroundColor=default;verticalAlign=top;aspect=fixed;imageAspect=0;image=data:image/png,iVBORw0KGgoAAAANSUhEUgAAAQYAAAA0CAIAAADnkgF5AAAO9ElEQVR4Ae1c/Utb1xv//gPH1AqBiIoFXdDhDNjINFSXX+oyMAgqdlQhyOhcbZjM2LWrFrLOlWGrnXYzG7rRUtrFtjRBlKFdNsYUyxRtVp34gl0amyU1q9fFCEm491v6wOHkJt4kGqvtzv1Bzts957mfcz7neTkn/o+jD0WAIkAg8D8iTZMUAYoARylBFwFFIAgBSokgOGiGIkApQdcARSAIAUqJIDhohiJAKUHXAEUgCAFKiSA4aIYiQClB1wBFIAgBSokgOGiGIkApQdcARSAIAUqJIDhohiJAKUHXAEUgCAFKiSA4aIYiQClB1wBFIAgBSokgOGiGIkApQdcARSAIAUqJIDhe6gzLsjdu3Pjmm29e6q/YsvC3b99OSEhoaWkhe7Db7e+//77dbicLhdOUEsL4vDS1LMt2dHSo1WqGYV4aoeMnKMuydXV1CCGdTsfr1WQyFRQU2Gw2Xvlm2ciUsFqtEokEBT9ZWVkOh4PjOIvFkpCQQFZmZGQsLS1tNt4rVj40NER+u3B6cHBw5z7fZDLl5OQsLi6GDrG+vl5aWhpWNqPRGNp+t0qcTmdOTg5PTrFYPDk5yXHc7OxsWloaWZuYmDg6OgrSPn36tKioKCkp6d69ezz5WZa9cOFCaWlplJtFZErAAG63++jRowihffv29fX1bWxsQDnLsvfv3z9w4EBycvKVK1ccDkcgEODJ9ApnGYaB1SYSiUwmE/mlq6urDodjYWGhra0tOTkZIdTV1UU2iGPabrfn5eW1t7cL9BkIBJqamhBCmZmZExMTeAYFXtmVKo/H09zcDEv/4sWLHo8Hi2Gz2RQKxf79+8+fP2+z2Xw+H66anJwUi8VlZWVerxcX4oTL5crPzz937hzLsrhws0S0lOA4bnh4GBRCa2sr7g709dtvv/3333/jwv9UYmpqKiUlBSGUnp4+MzMT9tutVmt6enqoTg/beAuFra2tubm5jx49Enh3Y2OjvLwcIVRdXe33+wVabrnKbrfHRRNOT08DpBqNhhTVZDIdPHhwdnY2VEKj0YgQunnzZmgVlBgMBoEJIt+KgRIMwyiVSoRQXl6e0+mEXmI11MixX5n0Dz/8ALuagHbW6/W1tbXR7FKxwvLw4UOpVNrY2Cjcud1ul0qlCKHe3t5Yh4iy/eDg4LFjx6JsLNDM7/drNBqEUEpKyvT0NLQcHx+XyWTj4+NhX6yvr5dKpQ8fPgxby3Hc0tJSRkYGuZtv1jIGSnAcZzAYEEIJCQnDw8Mcx5lMJplMdv/+/c16/4+U+3w+rVYLrLhw4ULYpWmxWNRqNWkGxAucmzdvikQii8Ui3CF4fWKxeGJiQrjllmvjRQnSJDEYDBzHjY+Pv/766z/++GNY2cCREN4U/H5/dXW1XC5fWVkJ2wkujI0SsCEhhDQazdjYmABr8QD/kYTNZpPJZAghkUg0MDAQ+tVLS0slJSVYu4Y22FoJRFqkUmnEOGN7eztCKJo1sTVJOI6LIyWwSaJUKq1Wa0FBAc9VI4W0Wq1SqTTUsSbbcBzX3t5OeuS8WpyNjRIsyzY2NsJ2KJFIzGYz7ogmfvrpJ5FIhBCSyWTRh/zm5ubq6urEYnFqauq+ffuOHz8ek1e2srIil8tVKpWw/sGOxA4ZbzD7caQENkmehSWSkpI6OzvD6l4Y12w2b+ZYk8sSwoMRgxyxUYLUaJ9//jk53kuRZlnW7XY7Ynmij8xApAH2C61WS8ZDwoITCAS+/vrrxMTEc+fOra+vcxy3sLCQk5ODHZL5+fmGhgaoCtsDDk1GtOCXl5ezs7N31JGIr5bgOI50soXDmD6fTxglQA+iUvX19ZuBCeUxU2JhYeHAgQMIIaVSGWWgl+O4tbW1trY2nU43Pz8vLNDWahcXF+/cuWM2m4W3WLvdrlQqs2J5bty4Eb1IOCabmJg4MjIi8CLmD8/3aG1tRQiBAd3b2xsxSDUxMSEWiyM2ewGORNwp4Xa7FQoFQkjYbxYAmVcFAYaIAbfYKMEwjFqtzs3NJZ1s3sChWa/XW1lZeebMmUOHDpH7mc1mO3z4cExrLrRzjuP8fn93d/ehQ4fS0tLCRujCvrVDhVNTU8nJyR0dHQKKnuM4sLLI2B3IMzg4iBAqLS1dWVmprq7m2cf9/f3FxcXktgLthU8kwIyO3pFgGObo0aOfffZZrBDF0XCCiEV2djbE/WGPiFUeXnuHw5GVlRXRyIyBEiClVqudn5+HcB4vbMyTAGfv3buXkZFx/fp1hULx3Xff4fJff/01OTk5LpFsjuPq6+sPHz7877//4v5ffAK0RFirKRAIuN1uMAC8Xm9ZWRlCSK/X84QE5S6Xy/v6+o4cOcI7eDp9+nRBQQHpSUdDiYiOxNWrV69cuYIlmZube+2117766itcwks8fvxYpVKF6trU1NT9+/eHlmdlZcW08eHLKTabDeL+MZkkPGlxNs6UAD7U1NQwDIOd7CjvbnR1deELIFi++CYgDBfRfojvoLzegA/vvfdeWLvWarVWVVUBY+FuQkJCQmjkFCghFovlcrmw6QWjR0MJ4RMJhmEqKipw+J/3UWGzgUDA5XKFemTXr1+vqakJLXc4HLG6ZMXFxcB8iPtHEykKKypZGE9KYNZi5wFfbYqo0ViWra2tLS0tDbtQSIm3k4aLWBEjYD6f7+eff74T9dPf3w9XuSLKBlsG9oxD2w8MDFRWVsLKgHUcdkMBSiCETp48KWx6wRAwEW1tbaEj4hJos9mqMpvNlZWVPHWE340pERfDiXf4i682CR87RCMnUCLiUoxsOLEs29nZefDgQTKwSIaNMU94Yvn9/g8//FAqlYpEItCntbW1QAy73V5ZWZmZmdnf3w9vPXjwQKlUPou3TExMDA0NlZSUSKXSiooK0l32er3nz5/Pz89/6623rl279uWXX+LIo9FojMaRcLvdLS0t2lieoaEh3neFZmHLyMvLIyEim8FxLPajIBoY1swDSoSeMwwPD7/55pvFxcW8IaA97pkcFKf1ev1mjgTDMCUlJfg8m2GYEydOZGRkXL58ORpC4iEgsX1KmM1mqVRKHlHjk+ztO9nALmGsOC7SP9NnWfbWrVth79byTrJ56OAsaG0MOsdxXq+3qanpr7/+0uv14Ov4/f5PPvnkjz/+UKlUmZmZPT09gUAAbCEcRQaz5IsvvgCjvLi4OCcnB5987aIjwbKswWDIyMggJxJ/PsdxLMteu3ZNJBJhzwHmpqio6OnTp2TLQCDQ1dWVkJDAszNnZmaam5udTmdRURHPkwZ4y8vLN7NMsCMRGmlZW1urra3Fyopl2dbW1t9//91oNPIEIIUUSG+TEpsd/uLLdRFNEgHZOI6D6JywRt2UEj6fz+l0jo2NVVVVIYTUavXjx4/xtgHR/atXryYmJiKEysvLbTaby+UKGzweHR0Vi8Wk0Tw+Pn7p0iXQM2D9Ly0tnT171uVyyeXy+vp6uOkFh1CwAliWPXnyJI7PwDTjOd5dR8JkMiUlJX300Ueh5ti33357/PjxN954Aw4r8GqGz+Fdnp2bm3v33XcrKioKCwvhRvTY2NipU6f8fv/ly5fvPX8kEgmJJMdxHo9HpVKFPZP2eDwOh8NisYjFYoRQW1sbtvLJ+7k4RmKz2Zqbm71er0ajEeCYwLLbAiXALZmenj5x4gRCKD8//xn/yYW0urp69+5duAVYWFj44MEDp9NJnvnw9Ofg4KBUKp2amgqVE64Ghr1bQDYObzh1dXXBLOK/pMsPNhmugsRmdovRaMT7EDmwxWKRSCRkkHFyclIikWCJSS7Btoq9Zzh4wgokSkeCHD1eaavVmpqayoNisywZW1tfX9fpdCKRSKVSHTlyJD09vbi4+LfffmNZ9u7du2KxWKFQ5ObmkppHp9ORs4A/Qa/X4x8V4EKB30jwxOPdHp2dnU1PT+cV4m6FE1ugROgPTkgDCQjPE5gMS4D+XF5elsvlsOP09fWJRCISaiyzTqcLuxRxA0iEpwSv0XayOp0u1GiGmBVvgnt7e0mJW1tbsVoAfxR7z6OjoykpKfjnI1E6Etv5ih16FzZyh8OBnSIYCMpJW8jpdObl5YW9yDk6OpqYmEiaptuR1mAwkIsypq62QImY+g9tDPqT3D3B9+DpUo7jwJTAKjG0K1yys5SAvSr0Xg1s8waDweVytbe3+/1+uL6Gj1HArGpsbFxfX7948eLt27fJjbC9vR0cie7u7kePHgHrnjx5cunSpbW1Nfxtr1JiYGAgLS1tenr6l19+4V0Iha00mks+EQGBrjDssYI5NDSk1WojjhL3BjqdDjtmLMuePn069HedQBu4wS0swM5SAn46iC0cLMrQ0BBMsNFovHXrFiYxdkAnJydTU1MtFsvIyEhHRwcc9sGt5sXFRZlMBg5MU1PTkydPVCrVsWPHwCHBDg8e69VI1NfXl5WVMQzz8ccfh/4qwGw2SySSaM4xhNGAnzoNDw8D7MKN90gt+Jx45TidzlOnTpEKFu43aDSaKC/n7ywlJiYmUlJSQrXYzMyMTCZraGhobm4GVwkmA7d0uVxKpVKr1X7wwQcMw/h8vpaWFrVa/emnn9bU1HR3dz+7bVpbWwsmY2dnp0Kh0Gg0YZ2qPTJz2xSjp6dHoVDU1dXhsDXZIZyKbP94weVyKRQKDDs5xJ5NQxgaG9W3nj88aUdGRrKyskjHjNeAzO4sJYxGY3Z29vLyMjkkpDc2NtxuN97UIeqKsxzH+Xy+lZUVMvjg8XjwK57nD+52dXWVZ47jqlcmIfyNNpstLy+vp6dnm98bCvs2O9zp1yH0Apvjs+Vx9uxZ3kpgGEalUkW8dYbl3BFKMAxTVVV15syZxucPudDxwDQRdwRsNts777yDNW3c+9+bHfr9fr1eX1hY2NnZqdFoeP+jxOfzNTQ0CP/cgvddO0IJCE3q9Xq1Wv0KGzM8KPdCdmNjY3V1dS9I8oJl8Hg8YU/GfD7fP//8E9OmvCOU8Pl833//vU6n+/PPP18wNHQ4isA2EdgRSmxTJvo6RWAXEaCU2EXw6dB7EQFKib04K1SmXUSAUmIXwadD70UEKCX24qxQmXYRAUqJXQSfDr0XEaCU2IuzQmXaRQQoJXYRfDr0XkTg/1gFA4SFVbRFAAAAAElFTkSuQmCC;" vertex="1" parent="1">
          <mxGeometry x="510" y="680" width="100.77" height="20" as="geometry" />
        </mxCell>
        <mxCell id="FryigcweT3gk02fsJ_st-12" value="" style="shape=image;verticalLabelPosition=bottom;labelBackgroundColor=default;verticalAlign=top;aspect=fixed;imageAspect=0;image=data:image/png,iVBORw0KGgoAAAANSUhEUgAAAZYAAAAzCAIAAAA7PLkoAAATeklEQVR4Ae1d8WtT1xf//gO3WdMRqbSlglmJI7VYVlqFah3LqNJUK2UqKl1/yGSxKNp2Ijroan/aSF3dhhNlCDKtcTOh041udoK0KIvG1RYKVu1qJEtpajLbBF7De1/x8L3c7333vby8Ji6R+34oN/fde+55n/vO55177nmv/5H4wRHgCHAEchaB/+Ss5lxxjgBHgCMgcQrjNwFHgCOQwwhwCsvhyeOqcwQ4ApzC+D3AEeAI5DACnMJyePK46hwBjgCnMH4PcAQ4AjmMAKewHJ48rjpHgCPAKYzfAxwBjkAOI8ApLIcnj6vOEeAIcArj9wBHgCOQwwhwCsvhyeOqcwQ4ApzC+D3AEeAI5DACnMJyePK46hwBjgCnMH4PcAQ4AjmMAKewHJ48rjpHgCPAKYzfAxwBGgFBEPr6+iorKwsKCtasWePxeERRpBvx39mBAKew7JgHrkXWICCK4rFjxy5fviyKYiwW6+zsRAhdunQpaxTkivwfAhmksDNnzlheHi0tLQsLC/83bLp/zMzM2Gw2GO7MmTPpFq9J3pUrV3799VdNTZfc6PDhw3Cxhw8fVhGGp8Bms83MzKi0zK1TY2Nj1dXVFoulurp6bGxMi/IYMfndGIlEjh8/Pj8/D3JCoVBFRcXOnTuh5unTp6tWrXrnnXdmZ2e1DPQat7lx40ZXV9fi4uLSr3FxcfHo0aODg4NLF5VBCnO5XN3d3cFgMBwOZ9oPTyQSMzMzwWCwu7vb5XItHRcdElwvDx0ddXRxOBzff/99MBiMRCIq3efn54PB4OjoqM1mCwaDKi1z65Tf79+6devDhw9DoZAgCFqUj0QiwWDwt99+a25uxmwFHYPBYH19PcZnamqqrKzMarWGQiFJkubn5+vr6y0WC26gZbjXr43H46mpqZmenk7XpU1PT9fU1Hg8niUKTEJhQ0NDeXl5SPkwGo379u0LBAJyPVRMenZ2tre398GDB/Je2msePXrkcrn+/vtvsovKoGSzTJRVhj558qQcQofDAWq0t7dTZ3ft2qX+rHM4HNeuXWNehRwWykSZvTJU6XQ6qUtDCMEzJh6Pb9u2jTrb1dWlRRO/3799+3aKiaiOgiBcunRpYGCAfHwyO8rxibw8QODs7Ow7L49c9MLSYmiSJPl8PovFMjw8TIG8xJ9//PGH1Wr1+XxLkZOEwkD05OTkypUrEUInTpwAl0oQhFAoND4+vm/fPoRQaWnp3bt3KT2UTDoej+/YsQMhtGfPHnVDpQSSP8PhcE1NDbYHfEppUNwgcwX1oROJhN/vN5vNCKHKysqxsbFEIgHKCIJw5swZhND69euHh4fVHSvookRhGJaenh58pXITxadeQUEQhMHBwYKCAoTQ5s2bnz59ijklHo9/8sknCKEPPvhgdHRUnZJIVZlMRDaQJOncuXMIIcp7YnZUx8fr9RoMhr6+Pkp+9v9Mi6GBH2q3251Op25rVcLqRbSxs7Nz/fr14XBYqU3Sek0UNjIykp+fbzKZ/H4/JVEUxd7eXoRQVVUVFW1RMmlA1mg0er1eSpr2n2CrcupUGlS7ZN0tkw4tiuKhQ4cQQgUFBbdv38YDRaNRu93e09OjcU0kSZI6hVGwqJsoViNzhVgstmXLFoRQWVnZ1NQUHgiWEufPn8ekhk+pF5hMRHU5d+5cXl7egQMHSFSZHVXwmZmZqaqqamtrI4VQAyn9FATB7XZr52UlObrr02JokiS53e7CwkK57etWjOw4Pj5eUlKylPi1JgqDdVBtbe2zZ8/I4aEcjUbr6uoQQqdOnSLPJjVpsnG6yv/KoKC8lqFv374N/sihQ4fAbgVBaHt5pGQkShTGhFHFRJntM1HpdrthzYhvEiDu3t7eVPlLkiQmE2lRm9lRCZ+FhQWHw3HkyJGUpgaroSQWN8iJAlj3li1bYrFYJhReXFzctWtXXV1dNBrVJz85hcEYCKG9e/cq3W0OhwMhREVwtJi0PqVVev0rg4I+WobG/khlZSWEotva2nbv3p3q/OUchYVCocrKSoQQGAPwl252YDKRyl2BTzE7MrlGEIQDBw709vbCev/+/fup2jBTLNYkVwrw0D179mzmFO7v78/LyxsaGtI3RHIKC4VCVqv1RVihv79faQygsPr6etJt1mLSSgJ11/8rg4K2God2/88fuXTpUm9vr91uT5W/VBaSTNyyxJZ6enpgEX3z5k0djid5aUwmIhsolZkd5fiIovj111+fPn0antkLCwttbW2wQakkWV4vFytvk/01LpfLZDLduXMnc6r6/X6TyaRxJ0euRnIKUwmEYXEaKezBgwfr169HCFVXV09MTODu2guQNl1SUmI0GhsbG6ntSEmSNPKI9hG1t9Q4NPZHDAbD2rVr9e1Sy72wmzdvlpeXI4TksGSJLY2PjxcVFb3YFHrjjTeampp0EDeeCyYTwdkHDx5s3LjRZDItW7bswoUL1LqB2ZHCRxTF8+fPV1RU7Nu3D6i2vr6+sbEx1dxGSixWXr0gCMKxY8dMLw/YTr1x40ZVVRUsw99///1AIJBIJH744QeYbtgWowxBydDUhe/Zs4eSA7vG1JaIuv46zoKT1NDQkCrCMFZyCjt79ixCSCkQJknS8+fPbTYbQkjdCwsEAjab7datW0C6Tqcz1asVBGH//v2HDx+OxWJerxchRO67gTQtPCKKYjgcDqZyxOPxpNpqGVqSJKWgflL5ZAOKwu7du/fee+89fPjw2rVrLzydkydPko312RIpIS1lvIh+66239BE3VoPJRLD3v27dujt37sA9Se0eKAXRKHwmJiZKSkqobA+cAYN1SFqgxCZtDw28Xm9ra2s4HLbZbGazua2tbdeuXZC09PPPP+fl5e3cubOtre3gwYOwi3fx4kWEEA6tSpKkYmher/cFKasIb2lpIbcdIaGEsmuNF6K9GWTe4UQ87R2hZRIK0xIIe/z4MaRcUKxEmXRPTw8kBF29ehUh1NraSj0hk6p++fLl1tZWiK329/cjhOQ3FjUoU2YgEKirq4Psdo1/L1y4wBRFVmoZGtqfP38eLEROwaRAlTJJYYuLiw6HA7Z3XS4XQujzzz8n++qzJVJCWsrw4g5cuNvtXopMJoVFo9GmpibIXXr27Fltba18D53ZMUP46BALe4hDQ0OgP0KI3AyFZz+zkmQZJUOLx+O7d+8eGRlREU7KATYsKyvbtm2blke47gkVRbG1tXXlypWPHz/WISQJhWkJhAElIYSo+5I06WfPnjU1NU1MTCwuLra0tMgbJ1UdAsA4FwHSQSl3IycWkj6f7+23316xYgUkiKlHWBKJRDgcxhlkGCWSwh4/fmy322dnZ2HziMrYkCRJhy3hgdJY8Hg8ZrN5+fLlOKivWziTidxu94cffghOBHhS8gc7s2OG8NEhdmJiYtOmTbOzs6D/6tWrnzx5glGCkA5sBOFKSD7HLKNiaPg+YQq/c+eOyWSiKAxIU+4o4NHTVXA4HPLnjUbhSSgsaSBMFMW9e/cyrZGkMKwNvL2xatWqp0+f4spUC+B55ufnj4yMUH2Zg1JtMvRTy9D4pQr3/4L6FO9Tug0NDRUXF8tTckgKw11g84i6CzVSWDgcttvtGn3Sd99999GjR3hcLQWfz1dRUeHz+XBQHz+NtHSn2jCZiGwDj1Vqi1zjQpKUo6WcSCSOHj0qh85sNhsMBrPZLD/10Ucfqfs1ECehVioQ0mlvbye16urqQgjJY+EqhqZd+OtAYeoZYZIkPXz4EDLO5clpTJM+deoUtXQn50NjGR4jTB5kDqpR7BKbJR0a+OvUqVOiKOKgvtzMSDW6urqYLxjLKQyH2HDiFZajxR3AL5lqiRDOzMzIHUM8nLwAjucvv/wiSRIO6sutTt5RqSYphYGTLn9bltlRCz5KmkA9vIBJQTc6Orpx48bR0VGqPumbrS8S4kF/MpUBh3TIxACVZ7mKocmF45e9rl69Sl5pzlMYRk0pIwzeD0AI2e12Mp0CUJCbNAR0md4TCVzSstIzVuNCUhCE33///YrmY2BgQMsrvvLrJS9EnskJd1JRUdH4+DjZEpcXFhYaGhqY4MspDDiRGVBYuolilXQUsOMJfbG1UAuilCQzmQhLUDFsZscM4aNbLA7kkakMEFkvKSkht/KBYuRbbSqGxhQOPoF8RqCecgYxzmksOByOwsLC0dFRHTLVFpLwmRGVjDCPx2MwGKqqqpgbTHKThpUOZOLOzMw4HA7qnSSNF6D0jNVIYeFw+NixY7BfrvGvlq+CyK8XX040Gt26dSsZmpUkCWfqy4P609PTGzZsAPd22bJlFovlp59+wtKYeWHulytT2FGamJjYv38/3qLWbUvkiPrKwF9UCj6oqhQPDQQCzc3NZrN5YGAAIspr166lXlFkMhHWUMVJZ3bMED66xYL+lPcNIR2KrWBVDvfP8PBwR0cHeMcqhsYUTrpsPp/P6XTCzRMMBi0Wizw0gaFOS2GJqRtqFKYSCEskEt98843BYKitrWV+poLJJoA4uPder9fhcOAdXK/XazQaa2pqlKRhsFSescxBccdMF5QoLBaLOZ1Oir8kScJJBvKnH6g6ODio9G4a5YXhTRJYCLhcLpIWddvSEhGbm5traGig+EuSJLyIlr+2EovFOjo6/vrrr/b2drCcR48elZeXUxFlJhNhbVWcdGbHDOGjWyzstlO+jzwQBv4U7N5AGAHHVVUMTS4cGATy40VR7O7uxrEIyE2hyBTjfPfu3dLS0jVr1pCfnNFeieXAKDab7fnz57hSe4FBYRAWCQQCHR0dCKHy8vLx8XG8np+cnDx9+rTFYkEItbe340e9fEi5STudTlhFzs3Nbd++/d69e7gXJMcihMj1Pz5LFlSesVlFYfPz84FAwO12Qwril19+Sa61BUGYnp7++OOPIcngq6++kodIlAJhci8MlpywipycnGxubiafBLptiYRdezkSiUxPT3/77bfLly/Pz893u91k6Doej09OTm7atAky9X/88cdgMIiR8fl8J06cAOPEcev+/n5cBjWYTIQ1VHHSmR0zhI9usfJYFaQdUOshyBaAvFOfz9fU1IS/96BiaHLhOIcuEAj4fD6bzYZvHtiso1avGGfI4KHyELVXYjmQlcUMmOA2KgUGhSX9Rlh5eflnn32WNDwkpzCfz1dUVLRu3Tqr1Up9pmJgYMBkMuXn55PuA1NvlWds9lAYcAqVHkleGuSgUg3w1rgkSSqBMDmFSZLk8Xjy8/Pr6upWr15NffhIty0x8VevxFk45KVh7wAmiDwFZYqhhoaGTCYT3m72er1kDFtpYxEUU3fSs5/CFhYWGhsbqQhpJBLZsGEDlakrimJfX5/RaNy8eXNtbS0ZI1MyNKZwSZK+++47o9Fot9urq6v//PNPcorBa6PC/NBAu8PFbIlHAcKhphifTVpgUFjSPhobyCkMvj1EPnUpUV6vV76LRLWRP0bIBsxByQaZK6d3aHg0Kfmk1EISLgr2xUiXB+pfJYWlBd729nYc9BFFsaenh7RPdQpjxnqwVtlPYWAjEdnHeCMvD3whuBCJRJifroUP9mL3Frefn5+XC4dBmXLgPqSeMVhaWgpdXV0UO6ck9lVTmLpynZ2dcr6H94HAMsHpVdnTTC+PqGtLnU3v0ENDQ0VFRbAndeHChVu3bpHDMSmMbECWc4vCwI3CkaCpqakjR47gmClcF8VE8Xgcf9wckp6UUlWojiAtQ/iEQqHGxkb11GVymrKzvLi46HQ6lcK1S9cZggbkC1KpyswiCnvy5ElDQwP5STy4mL6+PoQQvAV6/fp1g8HQ3Nys9OWT9PJISmimd2iXywVhjunp6YMHD1KP09eYwiC6DPF7WCuRMVOYEZKJAoEAfMZncHAwFos1NzcbDIbr168z547siBtkiMKw/Fwv+P3+wsLCixcvZuJC3G53cXGxfIq1j5UtFAavcFN75zgkhBBqaWm5f/++1WqtqKhg5nDANaeXR7TjmPYw3L1796xW66efforf8iWVeY0pTJKk69evr1q16vjx406n88qVK/J3aUkmGhwcxN/wefF6YF5ennwPFENHdsSVnMIwFMwCfJm5pqZGXwoUUyZUhsPhuro6lflS6YtPZQuFjY2NdXd3Mz+P6fV633zzzeLiYpPJ1NnZ+c8//2Dt5YXXhsIkSYrH40p58K83hUmSBP+cQR7XgxknmQhy7oxGY2FhYVVV1Y0bN+SUh+8TsiOu5BSGoVAqRKPRhoaGzs5OFWyV+irVi6L4xRdfNDQ0LOWzS5IkZZbCIC1T/p/7lK5Kdz3+P5LLli1LuiGgexT1jq+SPR0OR3FxscVi0fJ/JM1ms9VqTbqDrH51WXXW7/eXlpaWlZWl+n8kV6xYsWnTJmpVzilMy+RGo9EdO3bo+EcHSsI9Hs+OHTuWyF+ZpTDYE3nF/0dSZbtTCcp01cdfHumSpi4Hv5TH3F3CffEUKHlzuGVuFcBHCwaDzE005rVgxHDgHzd7kRf6/PnzNPoXWPJrVhAEYW5uLi1AiaI4NzfHXHWlCloGvbBUVeHtOQIcAY5AqghwCksVMd6eI8ARyCIEOIVl0WRwVTgCHIFUEeAUlipivD1HgCOQRQhwCsuiyeCqcAQ4AqkiwCksVcR4e44ARyCLEOAUlkWTwVXhCHAEUkXgv1EAp0Z6Vp16AAAAAElFTkSuQmCC;" vertex="1" parent="1">
          <mxGeometry x="318.66" y="810" width="87.57" height="11" as="geometry" />
        </mxCell>
        <mxCell id="FryigcweT3gk02fsJ_st-13" value="" style="shape=image;verticalLabelPosition=bottom;labelBackgroundColor=default;verticalAlign=top;aspect=fixed;imageAspect=0;image=data:image/png,iVBORw0KGgoAAAANSUhEUgAAAUoAAAAuCAIAAADBWceqAAAUj0lEQVR4Ae1d/09T1/t//wOHajUlLpWgwZG6gIQOIiMW0QQChiIyg050DXHY8SWo1C9LZAlicVtJWYo4QuwWv2SzwITGwQgKc5kQGV+qRKQZI9quRiAUqbQla8m9H+OTz8nNvbe35ZsIu/xgTs99znOe87rnec7z5bT+j+T/eAR4BFYpAv9bpevil8UjwCNA8urNbwIegVWLAK/eq/bV8gvjEeDVm98DPAKrFgFevVftq+UXxiPAqze/B3gE3gYCs7Oz4+PjL3z/jY+Pz87OLq4ovHovLp48Nx4BdgRMJpNIJNq8efOnn35aWFj4wQcfIIQyMjIKCwsPHDggFApjYmImJibYB8+3l1fv+SLHj+MRmAsCWq3266+/hvPZ6/VmZ2eHhYU9ffoUeHR1dR0+fHhmZmYuLP3T8urtHyOegkdggQg4nc6ioqKxsTHgMzY2FhERkZaW5nK5oMdkMp09e3aBszCH8+rNxITvWR4ERkdHi4qKbDbb8ky/lLOaTCatVotn6OrqWrt2bWlpKe5pa2urrq6Gjzab7dixY4uCw6Kp98DAwKZNm9ra2rDE/+UGQRDDw8NqtbqwsFCn0/3zzz8kSXo8HoPB8OrVq4Uj89dff507d+6rr7568eLFwrm9CxysVmtcXFxTUxO3MLOzs2azuba2tvDNn16vB2y5Ry37U4/H8++//2IxtFptUFBQR0cH7qERNDU1xcXFWa1WTDC/xuKot8fjOXLkCELIaDTOT47VNMpisezevfu9994rKSkxGAyfffaZSCTSaDRFRUX79+9feHzV1NQUGhqq0+kSEhLi4uLsdvtKR8/hcKSlpZWVlREE4Wsts7OzP//8s0Qi2bRpU0lJSWNj49WrV+Pj4xFCKpUKe7m+hi9K/8DAwIYNGxDjT6/XY/75+fnU5xs2bBgYGMBPSZJkBt7Up9AmCKKioiItLc3hcDCfBt6zOOptNBqDgoIQQlQPJHAhVhNlf39/aGjooUOHJicn8bp6e3vFYvGi4PPs2bPw8PDs7OxvvvkGIbRlyxaajfd4PJcuXTIYDByqggV7Rxo6nS4qKorjHB4dHU1LSxMKhZcvX/Z4PFjs2dnZiooKhNDCNQHz9NsYHR2NjY1FCB06dIhpW6enp0HUs2fP/v3330xr/vz5861bt2ZmZjIfUaceHx+PjY3lNnlUetb2Iqi33W5PSEgAi6XRaFin+Y90Op3OlJSUhIQE5lsvLS2l+WPzw0Sv1yOENBrN9evXBQJBaWmp1+ulsoK4jpq2oT59B9tgsDgOBrPZHBERIRaLqd4sXghgjhDS6XS4c0kbZrM5JCQEIWQwGGgTud3uixcvpqenc0TOzMCbxgR/rKmpCQ0NffLkCe6Za2MR1Fur1aanpycmJiKEcnNz5yrBaqKvr68H3WMuqqWlJTw8nOOtM4cwewiCyMnJ4Q6CtFotQoiatmHyead61Gq1WCweHBxklcpqtUZFRQkEAo6wHEzeUtSNWUUyGo0IIabXPTo6KpfLz54963a7WQdCJzPw9kX89OnTsLAwtVrti8Bv/0LV+8mTJx9++KHJZIJtl52dTTtM/Eqwmggg7qJGYnh1LS0tfv0xTOyr8fLlS5lMJhKJTCYTK83MzExmZiZCaKXkOB0OR2Jioi9knE6nXC5HCCmVSqpPTlt7S0sLQkgkEvX19dEeLcVHlUqFEJLJZC9fvsT8+/r6tm/fXl9fzx0TwQuiVrwxB2YDovSFmK0FqbfX683Pz4fwIDc3FyGUkpLidDqZgv4XelwuV3p6OkLoyJEjzL344MGD5ubmBeIAbmFERASuoNIYQlwX4O6hjV2Wj3CXy1dMd+XKFYQQx9kOMoN6I4RaWlqWehU4FsjPz4e5CIL48ccfZTKZ2Wz2O3uAgTfmo9Vq165d29XVhXvm1FiQere3t8tksvHxcZIkNRoN06TNSZRVQIyzprGxsXq93mKxcNtykiSHhoYyMzOFQuHGjRvXrFmTl5c3OjpKg8Ltdh89ehSSxgghgUAQHh4ukUjy8vKg3GK1Wnfu3MkkuHLlCkmSBEHU1taKxeI1a9ZcunSJIIihoaHk5GRIl0il0kePHhEEcf/+fZxD2bVr1/DwME0MkiQhfR0dHS0SiUJCQhoaGjo7O69fv04zZ0NDQ7t27QJRS0pKXC7Xd999JxQKEULFxcVUYvCrWdVybGxMKpUihBQKBbdL+DbVmxZ4u1yukydPxsfHgxYwEYMel8ulUCgkEklwcDDAvmXLlo8++mhoaMjXEOhva2tDCFVVVXGT+Xo6f/UGx6mhoQFYQ8gnkUgCr8S63e729vbGxsbOzs5Fv0zva8EkSc7MzPi+2M/yxG63+9VSmK6zs3PdunXUuohQKCwoKGBqLKhKZWVlUFBQWVkZ1HVGRkaioqKYe8Xj8fz222+NjY0QAWVlZTW++Xv8+DHM63K5WltbGxsboTyZk5MDBJBUN5lMcrncbrfn5OSsW7dOpVIlJyfDxnr06JFYLE5ISDh//vyhQ4eePXtGkiSsYu/evbQY0uVyKZXKjRs33r1793UWwGq1SqXSoKAgmjfR29sbHx//559/EgTR09MjEonCwsIUCsXk5OT58+cFAgE1cFCpVL5iDUhkIIT8ej1VVVUIoYWcchy7hfaoubkZIRQSEmI2my0Wi0wmC8S/oDEJ/CN4N9hTCHwgUM5fva9cuZKVlYV3gMFgQAjNyS00m83Hjh2DDYflJgiiuroatiPuXNyGTqeTzOUvcGEIgvj11183bdpE1XCEkFQqpSXVCIKorKxECNEqH+AEsUbvJElyxPZgtlgDb5VKpdfrIZCj1ZBevHghkUhYO2mW2uPxFBYWIoRu3ryJX0dNTQ1CiBo5O53OzMzMzs5OoLHZbOHh4eBdd3R0QPUUqzdkCkFVME/cgMX63VE43ciknJqa4i4+4bkCb+DA+9atW9u3by8vLweDvpAEGMfsAOC8U1rzVG+LxbJjxw5qggenN6idHHLDI7gnQL0MMzMzc/DgwX379q3cGJ4gCIvFotfrd+7cKRAIQNVpGtve3i4QCKRSKS2KBieItQABUR/HGcUaeE9MTKSmpprN5omJiZiYGNpRCblZWnAL/ictowMC0/JJYIyokXNHRwfVl4YiEGRkbDabXC7/4osv8JEAK6LZEdgYOMT1m83BPjzVypAkCevlqLfBRMPDw3K5/OLFi9SQwde+xVKJRKKkpCSLxeJ2u/fu3QsWnPYqfTGZUz/YX78g+OI5H/UmCOL06dO7d+++desWOIGNjY0lJSWvr23MtbRrMBh8GW9fEq+sfvC3aSVDvCeY5avS0lIaMV4vGHKO6hocj74q3n19fbApp6enMU8YQlMMcMSoJwarwJAE5n7jEFozlwkCcKj39PR0UlKSLyiw/CRJ3rlzB5yC+vp6an9XV5dIJGItlVPJwEfgXgWmx4H3qVOnsJHyJQAetZDGMqh3T09PVFSUUqmEe7/w78GDBwFl1jSJrxXm5+cnJSVRN5wvyne8v+3NH6uQTI2FXcLcUrispVKpmKzgJOSAi7viDZpG4wyyUdWPIAilUkm7s8EqMDgLHOYGhwO+gmcO9cbnJKsjg8HBt6HlcjnN3auqqtq6devz588xMWtDp9MhhAK8PQIVb9qBBLU9hBAzW8E645w637Z6u93urKwsSMlSBQU3DyFE80JJkpycnDx58qRUKt2zZ09dXV1tbS0kQqGKizccQRDff//9tm3bsrKyaFdth4aG5HJ5ZGTk0aNHb9y40dLS4vV6y8vLw8LCiouLR0dHVSpVdHS0RCL56aef/KbBrFYrdjoCaXR1dXFn/kAlmHeYAB9mOA2BDDNWBAyDgoLu3LlDxRbacKj6yrJg04AjWyoHrGm0OCgzM5NmZVg9fBCYpsmsJz91UvjaI3OZmAZkprGFp3g5OTk5HC8UQgaxWNzb2wsDvV5vUVGRRCIRCoVQYjhx4gRH4p0gCLvdTjMNWEJaAwJvpoWFHMS6deu6u7tpQxb4EdTbl0fml/mcnfObN2+mpqYy4QA5mNeqrVZrbGxsXV0dQRAjIyNbtmzBstIC7/b29qqqqpGRkbCwMKoLYDQaw8PD4f2BI6TRaLq7uysrK1taWgQCQUZGhsViIUnSYDDQsris629ubqb6HX7bX3755dTUFCsr6IQwj1W9wa2lHQ5Q7WDukhs3bnDcHYC9xbSeIANNLQmCOH/+/O+//06VkHbsgDWhqR/kqyF+Hh4e/vzzz1+9egXqTYsAwVmAwLumpubq1askSb569Uqj0dy+fZsgCGrgDWJghvCRJMnc3FxaOgA/Av442h8dHS0oKJBIJGfOnIFCA8eFNrAsfgNvPFcgDTiN4BssNHq4VwtlPw5jRBsVyEfwm7hdGA4+c1Nvi8USExPT3t7O5IgXTz1e3G73/v37sdMCaoBdQWrgPTs7W1JS8uzZs/r6+tDQUHxDACwCTkv29fUFBwe3tbW9vglrMpn0ej11c+j1etY8DVPaxe2B6gU1pYT5w/FSUVFBfevwzvDGBWKbzSaVSqkHEWZCkqTL5UpLS6OdtFQCkAFr4MOHD1NTU3ExltWxZx6/+JCHOLampgaQpzEnSdLhcEDlvK2tDbLl3d3dBEEUFxdjC6VWq6nBM3wLCr9KEF6j0fhaFLx6gUDQ3t7udDoVCkVra6vL5aqoqLh27drk5OSePXsEAkFNTQ0VW2AbYOBNBdBvG94a641gr9erUCjgGz4jIyN+WQVOABkTavIy8LEkGdh/YwC/Amc0GiMjI0UiUXNzM/X0hqf9/f3R0dEIof3799tsNqgVwwbCB47JZNqwYQP2HpmBN7hkVD1Rq9U0BcanDbjEeEPD1qRlieaExbyJIawVCASXL1/GbjxBEHfv3hWLxYcPH6bFGpCbpN6jttlsycnJoaGh9+7dYxXDr6MLGgiuLFx+pka8rIE3RA3Y2mIjAoBbrda0tDTYrGCmw8PDoTA+OTkpl8tfrxfugXZ2dmZnZ7vdbnh9QqGwtrb26dOnUBXH3nVra2tiYiKtQAhlZLxDaGtvamp6jVJUVNS1a9cKCgpAjQcGBnbt2hUZGckBV4CBN2061o/4JxDLy8vh6uvdu3dfvHiBS25AUFZWBiWSU6dO2Ww2qoI4HI6CgoKwsDC4U+R0Ovft23f8+HGOkAFLAhEZ9VXiR4E0Ajq9u7u7abc1qHuC+RRfX9NqtdSbwAaDASsnLfAGWQcHB0NCQnAKFLYLrtBAhRP79jRfABykmpqaQJa9iDRgZQoLC+/cuRMaGhocHHzgwIHXH+Pj49evX19ZWYlTrNRJXS6XSqUSCAQpKSl79uwRiUR5eXm0rU+lByuObRn1EbQ9Hs/x48fXr18vl8u3bt2KbSg8LSoqooX0Xq/3yJEjzHDRaDSuX78+NTVVKpVSbY3NZtu9e7dEIvn444/ff//9hoaGnp4esVgcGRm5bds2HPoajcbNmzcfOHAgIiLC+OZPJBKlpKTIZLLk5GTmAiFAUCqVzBMYJP/jjz8iIyMh+1VdXV1aWhoZGSkQCMrLy/EPY7hcLmxV8ReqF8vQ+/2ONysBjgsIglCr1T09Pdi1nJqaSkpK4niV1JerUqmwylD7A2wHpN4B8mKSabVa7C2DGqSlpdnt9m+//bavry8kJMRoNHZ2dra2tsJYrVYLpeC6urr+/n7wSHGFhqbP4Atgw1ZfXx8SEjI4OHjv3j3MkCnSovfMzMz88ssvoMMej+f+/ftqtfrEiRO3bt2iHdrMqZ1OJ9ySw0cBkwZ6wIpTrSqTErJEY2NjzBLuzMwM8+6d0+lkdpIkCVIxRWLyn3lz/496UuHhuBO4sU6EVRFbcOai4HqfyWSqrKw8ceLE1atXDQZDdHQ0/hFCj8dz4cIF6m+Mwj4Bh9ZsNlf//48csTJf6k6r1Xru3Dm3252dnY0tToA/nAhHINWZnau0S6ve9fX1EokEbPaDBw/EYrFKpRocHLxw4UJzczM4gRBFY8+wuLjYbrcXFxeDbqjVagjdPR6PWq0OCgrC5xLVF4AkTWZm5vT09JkzZ8CHnCsW7yD9yMgIBJwqlcpXjPoOij0nkYxGo1AoZC0WsPKBMAR+ddTlcp0+ffrixYtUSiBoaWnxeDwlJSUPHz6kPl2WNsTtOPna19dXUVHhVxLIIASODJPh0qq3w+FQKBQ5OTnFxcXHjx8vKyuLj49XKBQPHz602WxxcXFKpfLcuXMQhEBEKpfLFQpFf38/yOpwOI4ePRobG5uenv7JJ59QHZX8/HxsDkmS/OGHH3bs2KFUKm/fvs1c50rsefLkSWhoKEKorq4uJSUlMTHRrzuwEpcJJW7Wr9mxLge0F1/7pVUlwH2Qy+V5eXnZ2dn4MGBl9dY69Xo9devq9Xq/920gXces589J5qVVbxBl6s0fbmOvz+PxTExMUKMmcP8wAQyBf8G3p+qz0+mkUU5NTWGfkDp2hbahfhYbGwvVBByGrNDlcIjd29sbFhbGWpFhjoISIKg3NT1JpYR0F217UAnecjs3NxfXQR0Oh0ql8mupOzs7JRIJTmrMT+C3od7zk4wkyfb2duylw9VinLGYN88VNNDhcGRkZAQHB4eEhNTW1vpKPq2gFfkSFb5gExcXhyt5vijh+60NDQ3R0dEymezevXsrAhaVSoVzaQ0NDdRrHawrdTgcKSkplZWVC1zdu6vekFeLjY0dHx+HLzNmZGT4tXmsYK3oTpfLxUyVregVsQpPEIROp1MqlW/nN09ZZVi6zsePH8fExBQXF58+fbq6uprqsTInhSKITqdboG4HWvdmSvB2euDXvAsLC1UqVUdHBzcob0ckfpalQ4AgiMnJydVqyyBeCCR49Hg8k5OTC9ftd129l24n8Zx5BP4LCLy7zvl/AX1+jTwCS4oAr95LCi/PnEdgORHg1Xs50efn5hFYUgR49V5SeHnmPALLiQCv3suJPj83j8CSIsCr95LCyzPnEVhOBHj1Xk70+bl5BJYUAV69lxRenjmPwHIiwKv3cqLPz80jsKQI/B+90czW9yXdYgAAAABJRU5ErkJggg==;" vertex="1" parent="1">
          <mxGeometry x="460" y="810" width="78.91" height="11" as="geometry" />
        </mxCell>
        <mxCell id="FryigcweT3gk02fsJ_st-14" value="" style="shape=image;verticalLabelPosition=bottom;labelBackgroundColor=default;verticalAlign=top;aspect=fixed;imageAspect=0;image=data:image/png,iVBORw0KGgoAAAANSUhEUgAAAcwAAAA0CAIAAACID58RAAAaNklEQVR4Ae1d/09UV9rff+CAQDNmzECGBpyMDTpxVrI4qXY0xULDVIJEiUUnpIsUdqKGcbe22mRqqe3iji6yceKKho1d5UtXCMU0Q2Wb1mElgigKJRaqInZkZITRYUjuTO59jc+7Jyf33rncGRjE7Zkf8H455znP+dxzPuc5z/Pc6284+qMIUAQoAhSBmCHwm5hJpoIpAhQBigBFgKMkSwcBRYAiQBGIIQKUZGMILhVNEaAIUAQoydIxQBGgCFAEYogAJdkYgktFUwQoAhQBSrJ0DFAEKAIUgRgiQEk2huBS0RQBigBFgJIsHQMUAYoARSCGCFCSjSG4VDRFgCJAEaAkS8cARYAiQBGIIQKUZGMILhVNEaAIUAQoydIxQBGgCFAEYogAJdkYgktFUwQoAhQBSrKLdwxMT0//6U9/un79+uJVMRLNgsHggQMHnE5nJJUWV9mHDx/u3r17bGxscalFtZkbAmNjY7t27YrdY42eZFmWvXfv3pdffrl3716LxVJTU3P//n3orM/nO3fu3MzMTCgU8ng8bre7p6dndHR0blAsXO1QKPTNN9/s3bu3sbExEAgsXMNESz6fz2QyHT16lGVZ4vLLfTg6OpqVldXS0vIyduOlVv5lBHwedWZZ1uv1ut3u4eHhH3/8USi5paUlKysrRhwVDcmGQqGvv/5ar9cjhF599dWdO3daLJbi4uJly5Y5HI7Jycn8/Hyr1TozM1NQUID++2ttbRX2bYGv/Pzzz3a7/eHDhxLtMgxjsVjWrVtXU1OjVCr3798vLCxHjrCW/Cugw44dOxiGEdbq7+9XKpX/xfX//9VqtW63m+O4zs7OuLg48m5aWtqdO3eEcl7IlatXr2ZkZPT09LyQ1qNu1Ofz5eXlHTp0CK9509PTeXl5JM4IoYyMjPHx8VAotHPnTt6tlJSUoaEhUKC0tJS8C7Wi1o2sePz4cVIyHJeWlkIZq9XKu/vuu+8Gg0FSwv/kMdnx6upqYR9Zlj1y5EheXp7P5xPeneOViEn24cOHW7duRQitX7/+5s2beMxxHDcyMpKVlbVq1SqEUENDA2j2888/L1++nBxhc9Q46uperzcrKwshVFVVJSGkqakJIfT3v/89JycHIbRz585QKESWlymHrBLpcXt7u1qt7uvrk6jo9Xq3b9+OEFqyZEljY+PMzAwUZln2xo0bqampy5Ytq6+vd7vdPP0lZC7ALZZl//jHP65fv97r9S5Ac/PVRE1NjU6nw3s1LPbBgwcGgwEhVFhY6PF4yOng8Xiys7MRQgaDYXh4mHwKoVCot7dXq9W+9dZb/f39okspbiLSg1Ao1NfXl56ejhDS6/W3bt3CTTMMc+rUKZi8LpdramoqUuEvb3mv17thw4a4uLjOzk7RXng8nszMTHIdFS0WxcXISHZoaCgjIwN4SnRkAEMplcr+/n7QpqurKyEhYd26dZOTk1HoN49VgBzVavW1a9fCiQXrW6FQuFwusM0vXbrEKyxHDq9KRKc+n89oNFZUVMxqYnR0dIDRSi4bLMsePXr0rbfekjbYI1JpfgsPDAykpKScOnVqfsXGTtrdu3c1Go3dbhc24ff7YTHG1iJZBizWnJwcv99PXuc4bnBwMDc3N0Z+QJZlKysrEUJJSUnd3d24afBBVVVViU5eXGzRHrAs+/XXX8OOLVIl79y5k/b8J7GrczgcarV6cHAwUuHS5SMg2dHRUZ1OhxCScBSOjY1pNBqSUuvq6hBCVqtVWo9Fchf012g0MRr9crrZ1NQUHx/f0dExa2GgYzBYxsfHoXxMvUuzqiSnQDAYfPfdd41GYyy2ZnIUiLRMVVWVSqUaGBgQVmRZtqSkBCFUUFCANxNQLBAIbN68GSEkJNlgMGixWM6fPy8UOF9Xuru7k5KSEEKVlZVgX4MPymKxvKQMy3Gc3+/ftm2b9A4vHIDgRhM+JrI8EDFpspB3oz6WS7J+v99kMiGETCaTcFnGzT99+jQ7OxtTKkwn0nuASy7OA7C7hbNiwbQNBoNms3nNmjUTExNyGnU4HAihuLg4IOWWlhadTnfjxg05dV9gmYaGBomN2wtUTNg0rGQSkzOcudra2gr7DKHL1eVyFRUVScwjoRqRXsEUr9frx8fHgWGLi4tfloVNtL9zIVmbzYYQstlsopLhIvCV/NknIYq8JZdkwZWTlJTkcrnI+rxjIFnskJ2YmFizZs1icMjy9Ax3CnZ3RUVFuAKxvv7gwYMVK1aUlJSQ3j2JRmEnixAym81XrlzR6XQvRUypr69PoVBIj3iJXi/kLVBVNFoCakBQJTs7++nTp1gxj8eTm5u7ZcuWZxYGjknCXb/fX1RUJD2PsJy5HIDvDiHU2Nh49OhRk8n0UjPsXCxZcAPKWdftdntCQkJXV9dckOfVlUWy4+PjkEuwefNm6ZSmqampw4cP37t3D5qRcMiyLHv58uUNGzYkJSUplcpjx47dunWrtrZ2enqapyLDMA6HIzU1VaVSLVmyZNOmTcK9vHSZH374YeXKlQihd955R9RTOTQ0tHbtWq1Wu3TpUoTQ0qVLtc9/jY2NpDKzyrl9+3ZZWZlSqUxOTk5MTDx48CCG68aNG3q9Pj4+3mw2T05ONjc3p6enK5XKjRs3kt2BTY2o+4/UBB9j7xtCSKlULoYUDqybxMH4+HhGRkZeXp7wcUvUmt9bt2/f3rdv3+rVq+FZk39tNhte5GDdvXjxYrjW7Xa7kEntdvuhQ4fANOFld5w/f95isczqcA/XnPzreNrGx8evXbs2RvlJ8vWZe8moLVnwA6Smph45ckSn0ykUitTU1ObmZvyUsW5Op/OZL/v48eP4ytwPZJEsXhLr6uoiajKcQ5ZhmC+++CIxMbG+vj4UCoE/Pi4ujoyYQUMQxlm5cuXNmzc5jgsEAjt27DCbzeQYlS5z/fr1N998c2Rk5OLFi+Hgm5iYaGtrO3/+/OrVq+Pi4g4fPnzhwoW2tjZyzy4tB3oUFxf3LGsY4uaPHj1av359fX09rMAFBQUul6u1tRUhlJaWlp+fPz4+Xl9fr1AoSCtp1iktxB+Hvz777DPh3cV5BeJFwn00T1uc3uiW/eM5RnkC4TQQCHzwwQe8ZCbydM+ePXiAWa1WhUIh4QcUkuzIyMjbb799//59GHJkdY/HYzKZ5j20ItpNvADzwl+ihV+Ki1GTLM5r3Lp169jYGMuyZ8+eTUhIEKZsw8Zlfveyski2oqICDCWcMyDnkYRzyAInIoTIbAlgCqE3ZGBgQKVSYcuuvr5eGGSQKBMMBktLS8G+g8lAMhqvF2BeiTo3pOXgHpFRBQiJgOadnZ1FRUUzMzPAoXq9fmxsbGhoKCUlhcf71dXVcjY1pObDw8OpqakIoYhCSYFA4PTp03v37v3Pf/5DSpuv4ydPnly8ePHChQui9ATg8Ew8YdNjY2NGo5G0MWc9PnfunFAOeQW8kxARgpzWa9euZWRkiIa2QE/RIYFlApNi+4Bl2Q8++AByJ4QkCxau0IDC0ub34OzZs7B4RBTMefLkSXV1tdVq/emnn+ZXH5A2MjJy4cKF1tZW0W2lRItRk2x1dTVCiEyDBTIVRl8g9D2/6cOzkyxOUhEyoAQcHMeFc8gODg6q1WreBAMTT+iLhGH6+9//HvaVN2/eLC8vB6sWty5R5s6dOyaTaWJiAsIX0ks64E6mRuAmpOW4XK6kpCSNRnP37l2owrLst99+q9Pp4KVYm80GmwBYrhwOB5i3ZWVlZrOZHGqlpaWk4YMVCHcAmwDITcbhr3CF8XVIVn3vvfe2bNmSm5uLIzA+n2/79u2ffvopLhn1weXLl4uKiuLi4sLtfiLtadSa8CrW1NQghI4cOUIyHUxCHEvAVWDw85yq+C4c8Jj06tWr27ZtA0hhRCGEwNswODhoMpk8Hg9PgsQpy7LNzc1Go1GYSihRC2719PS89tprsABD+GvWKrBZLCws/Oijj15//XUyL210dDQ7O3vWNWzWJoLB4IkTJ15//XXppUtUTnQkK+qQhUcjfLJut1ur1QrJV1QfmRdnJ1mcJzSrB41hmCtXrmAvpKhDFm9heGsFRA+EExLb+c9GamZm5smTJ7F83EM5ZSCjRRq7cESPG+I4TigH8gEQQmq1uqyszGKxlJaWLl++XK/X//DDD2TdycnJdevWSXNoRNSDk3J++uknjUYD4S+8zyWb5h1DuOz06dO5ubmHDh3CVW7fvr18+fK//e1vvPLRnTqdzqVLl/b29opWj6inohKiuAgdFzIO7HLwhglLlkOyMM5h/xEIBIqLizEhkiQbXdoW7K4QQpGaOPglYOzra2pqwv2SOOju7k5LS/vnP/9pMBhOnz6NS37//ffLli2T8E3jknIOKioqeKFCXq1Tp04Jdy0ajWbJkiWpqanCWyaTKdzrLWCc8qw68L0uFpLFlqzQzOTh0tfXt3nzZhzBFHXIgnmLECL5FJpQKBTCCen3+81mM+kvKyws5PHsrGUws4MJyVMbn0KSh4Q/QVQO7tGuXbsuPP/19PSIvksD/gHp2SKfesikHKwYbyThrvEOnE6nUqkU3cjzSs7l1GazSXRWfk/nogOvruiYxLmuwrChHJIlmbS1tbWkpAQnomKPUF1dncvlKigowJsGnmLhTnHqpHDYh6vCcRwwrMPhYFkWh794Zk246sePHxdST7jC0V0HawMneooK8fv9Qj/8yMjIO++88+233wpveb1ecmtCygQjjJeEB5NduG19MZYsdq1Km4GkK4rjOFyLtwWDEcnjU2n2wV+iyc3NRQiJWoLSZWCcSRMQVljiM1GicuCpyHGkNjQ0IITKysrCjYZnPgQIswgXG3LQcBwHXmAyKQeb89ILCciprq6eNejEazHSU3i1X2JhLi0txX7McMIZhvn3v/8NS5ecv21tbdKvA0FOK49MYZkU9cnCTlP65RTMpGfOnDGZTOTSBWMDIfTJJ59s2bIFW7jh+it6nWEYj8eDiVu0DHlR+Gkh2CaKdpCsCOOqpKRk1j0rr1akp/DxDd5TkCMkOncBfM+BzBeEx0q+qYFbh0c2vwjM7i7gOA52HNIkdenSJXLOkw5Zj8djsVjAmBd1hbS3tyOEYEJ2dHQcPHiQ4zifz5efn69SqfC3/hiGKSoqIklWThmsP+QkDA0N7d69W5g5RCqMEecdAA48OfBUSK14tfBpOJcILsBxHOxbpTdlLMvW1NT89re/JZNysFdHOvxlt9u1Wm1iYmJ8fLxGo8nJyYEMCp/P94c//CEtLa22thbWAL/fX1FRkZqaWltbe/fuXbPZvHLlSr1e/91332GFWZZ1Op0bNmzQ6/Wff/55TU0N/gYKJM2Q+xVci+M4GOWzWkxer/fgwYPPBo/8n8QayXGcqPkMQddwn+MRrUL2BTNpcnJyVVUVuYLiW6+99lp5ebl8oiTlR3QMM4IMwGIfl/RXO4LB4O7duzUaTXx8fGJiolarLSkpgWkyNjZWWFiYnp7e1tYGyty6dctoND5Lwuvt7XU6nZs2bdJoNFu2bCGjC4FA4PDhw5mZmW+88cazUP5f//pXbMU3NDRE4ZCNOk8W5hTJ6RAqF52zsGSSzuiI8BctLItkvV7v+vXrheECLLGnp8dgMJAvGgGZgjWOY+scx0GyPTm7GIYpKyuDIPuz3c37778PziNwmpChKjA2SRKRUwb7TNvb24HFRCOtsLpKbG/DyQG+4NnmYBScPXsWt4UdstJWKviFw3ETiG1ubhb9LBvv7S/8dHgHvLfyQGZVVdXVq1cbGhrwo2l+/rPb7YmJieXl5Y8fP+Y4zmaz4UUerOlNmzY9fvyYZdlDhw4hhDDHSTtkQQdprxxP7Xk5tdlsvCcFn9eSeGN91nwPzKSrVq3ifUEGu9ok5M9Lv0BIIBCoqKjgMSzEsuAFX6Ezmtc6uC/J4RcIBPbt23fv3j2bzQZ72WAw+OGHH968eTMnJyc9Pf3UqVOhUAiGN04vBVS/+OKLUCgE7EHunGZ1yPK0wqfRWbKwg8SGCx6rop8H6O3t5WVV4tajPpBFshzHXbt2Ta1WI4QOHz5MukQDgcDJkyfXrl1LMizHccBZOTk5k5OTFosFO90hro2pMxAIWCyWJUuWIIRaW1tHRkZMJhO8ht/d3a1Sqb788kswDSDMqlAoyNQ2OWVg3wpm+PDwcGFhIZn8j4EDvpbwW0nIaW9vj4+PJzPSnjx5UllZaTQacVvSLhGsBixOQncVwzDj4+NXrlyBT6CZTKZffvkFG02QT/qPf/wjISEBUtxGR0c9Hg/+/BKWz3Gc0MYcHR09cOBAIBAwm83gugoGg/v373/w4IHVaiW5w2q1Yq/RpUuXXnnlFfyNhbq6OnKvI+2QBR2kPSekzvN1fP36dZVKhVMLpqen33vvPbVaTX5FhdcWbLNI3uEVwEwq/OQNvkWODV71uZ/6/f6xsbGmpiZ444a0GTmOYxjm2WAoLy+HwEZtba3b7RaNGXAc19XVpVAoyO9U9fT0HDt2DPZJMCzv3Lnz8ccfezyeNWvW4M8YwUYQIocwxzGhgxWCZ5Ych2w4TKIjWYh2gqpAIwkJCXv27BHdWAAjg0EWTo1Ir8slWY7j7t27t3HjxmcfiImPj3/77bctFkteXp5SqbRarU+ePOE1zDDMnj17XnnllY0bN27duhXvFMAPYDabVSrVtm3btFrtsWPHhoeHdTpdenp6RkYG5lCGYf785z8rFIo33nijtLR0xYoVa9as+e677zCzwACatQzHcS0tLQkJCUajcdWqVeE+wQVJPML4MtmvcHJYlj137tzSpUsNBkN5eXlmZmZ6errD4SBXo46ODlEfECmf4zgYgpjI8F3hd0JJix4bU2SEMNyOrKurS6VSCV8cHBoaUqvVeDmE3VlOTg6mQnJ6wMzBhj/LsmVlZdjIndUhCx5knr8edzamB06nU6VSGQyGbdu2KRSKHTt24IVQtN1Z1wNgUtGPN0JIDdKiRYXP/SJATT53nlsAMsx4BXhRIKxGQ0MDuVLi652dnUqlklyK+vr6lEolJiOSncGewIYCbF6xkRu1QzZqdwHHcfDQs7OzDQaDSqU6c+aMqP0BQRFRBDAUURxEQLKwr8T/G0JVVdX3338v8YINmFfh7KmpqSm3242rg6UmXGBnZmYgkii8hXsrpwyvOVwXDsARIeedZQk50AW32y0a6AyFQhMTE6KLJ08Zm80Wjh95JaM7raurE43kOBwOMtWX4ziYLZgKu7u7lUolmK5A6ziuBfyLYwtCY5mnqs1m47XFKxDTU/yk8PCTaA7GBl5OhCWDweDJkyd5udu42L/+9a8Yve6Bm5jHA6vVKvThQO4KuahzHMfbuFRVVWHTFWgd+0B5i3rUDtm5kCwYZOPPfxJzEIYx74XSucMbGcnOvb1FJSEUCnV1dV25cgX2PhITaSHVBo+BnCSB6LQS9YiBOVZZWTk9Pf2Xv/wFtibt7e1kpheeSI2NjR0dHVqtFhv+YNc4nU6Xy/XNN990dnaqVKre3t6vvvpKuHWAoYw/wRddLxayVmtra2JiInaMLGTTC9lWuP0HmKIOh8Pj8djt9mAwCBsXvN8CZwIePF999RUZU7Lb7eCQPXHixP3794HHHz16dOzYMeEOWLq/09PTxcXFEb13Ki2Qdxfs8Xl/0L9qkoXvd2i12osXLyoUChyk4kG/wKfBYLCiokJ0+zl3TWAiCV/N7u/vV6vVHR0dLpfr6NGj0JDNZsOJhMDCVqvV6/VWVlbCC6+QUwzxlpSUlMHBwU8//XRgYAByGO7fvw+OXZ7aTU1NycnJOGmEd3cRnkLfw6UfLEKFo1MJXnzA+3osxOl0pqSkDAwMNDQ0NDc3Y6cW3rj09fUlJyd3dnbC4IHXGSDAOzIyotPpCgoKRkdH9+3b9+jRo5ycnNLSUnDskq4/3NyLOoDItvSnXKPT7VdNsvCS6+7duz/77LOYOs4ifTajo6N6vV4YSIlUjrC8MHwMZTwej8FgsFgs77//PrxOAnSMPWssy+7fv3/z5s1msxmMU6fT+bvf/e7zzz/Pz8+vr6/PzMwsKys7cOBAMBi8fv16RkbGrl27hPa41+s1Go2igV2htovnSk9PT1paWnSJrounF9Ka9Pb2qlQqMuoF5QcHB3U63Z49ew4cOAB7bViScUmPx2M0GvHgYRjm4MGDJpPpk08+KS4uPnHihE6nKykpgfh+TU2NwWAwm82LbZV1uVxarTYWXwr9VZPstWvXUlNTk5OTV69ezcuOkB6OC3C3paVFq9XO++eaurq6Xn31VTJhHveFYZiJiQkyIODz+UgHFjjZST8mmSfPMAzkcoHAmZkZoW86pv9dHe5ILA4gXy0rKyuiLw/EQpPYyWxoaFixYsWDBw+ETfCeJuRskXaocPD4/X48APzPf1js1NQUGQnH11/ggc/ny8nJidHa/6smWQjlPX36lBwuL/BJ85pubW3Nz88nE7x5BeSfMgxTWVm5Y8eO2traWT8KLF9spCVbWlqKiorwi9eRVn+x5eEdkLKyMuGbLC9WsTm27vP5tm7d+tFHH1U+/y3OuTDHPkpXh1SompqaGPX9106y0ui/8LtTU1Ok5Ri1PuPj46tWrbJYLNu3b8dpN1FLi64iy7KPHz8mTePo5LzAWv8DXRCi19/fn5ycbLPZTCbTYtvCC7WNxRXeJmzem6AkO++QLkaBLMu2tbXt3bv38uXLMVquF2O3qU4yEGAY5syZM1ar9ccff5RRnBaJGAFKshFDRitQBCgCFAH5CFCSlY8VLUkRoAhQBCJGgJJsxJDRChQBigBFQD4ClGTlY0VLUgQoAhSBiBGgJBsxZLQCRYAiQBGQjwAlWflY0ZIUAYoARSBiBCjJRgwZrUARoAhQBOQjQElWPla0JEWAIkARiBgBSrIRQ0YrUAQoAhQB+QhQkpWPFS1JEaAIUAQiRoCSbMSQ0QoUAYoARUA+Av8HxQVFvu5oyk8AAAAASUVORK5CYII=;" vertex="1" parent="1">
          <mxGeometry x="390" y="900" width="97.31" height="11" as="geometry" />
        </mxCell>
        <mxCell id="FryigcweT3gk02fsJ_st-15" value="" style="shape=image;verticalLabelPosition=bottom;labelBackgroundColor=default;verticalAlign=top;aspect=fixed;imageAspect=0;image=data:image/png,iVBORw0KGgoAAAANSUhEUgAAAXwAAAAzCAIAAAAb/CSQAAAX+ElEQVR4Ae1d+09UR/t//4HZlaVZsmYhaFCyNFziFhIklYIRA4ZFo6YSFTekBRS3StnY2kgNWmpaFA3aSFBMSWuUi3U3FGNAqFGhUFEuihIvVdc1XMoCi7tLsrs550t8vu9kcm67KuXyZs4PODtn5plnPmfmM888z5zjf1h6UQQoAhSBWUTgP7PYFm2KIkARoAiwlHToIKAIUARmFQFKOrMKN22MIkARoKRDxwBFgCIwqwhQ0plVuGljFAGKACUdOgYoAhSBWUWAks6swk0bowhQBCjp0DFAEaAIzCoClHRmFe5/r7GhoaE9e/ZYrdZ/rwkq2ScCTqfzq6++6unp8VlyQRTweDwHDhxoamoS1NZqtebm5r7DkKOkI4jnAsu0WCzx8fEmk0lab4ZhXrx4cf78+YKCAoPBUF5e/vLlS6hit9svXLgwNTXFMIzNZhscHOzv779//760wPlz1+v1Xr16taCgoLa21uVyzYlidrtdp9MdP36cYZg5UeDfaFR6aJlMpvj4eIvF8lZNU9J5K7jmY2G73Z6enn748GGJse71en///XetVosQWrp06Y4dOwwGw/bt2xcvXlxRUTE+Pr5hwwaj0ciyrNFoRP+9SktL57zDf//9d1lZ2dDQkIQmbrfbYDCsWrWqvLxcpVLt37+fX9gfOfxa/ueADllZWW63m19reHg4MjLyv7j+/79KpbK7u5tl2YGBgZCQEPJuQEBAe3s7X86c5Ny+fTsyMrKrq4vfOsMwR48eTU9Pt9vt/LtiOZR0xJBZMPnl5eUxMTHYZuHrPTQ09OmnnyKEEhMT7927R3LT06dP4+Pjo6OjEUI1NTVQ12azJScny2Sy1tZWvrTZzLHZbPHx8QihkpISiXbr6uoQQmfOnElNTUUI7dixw+v1kuX9lENWedt0Y2NjaGgokIhYXYfDceDAASCXY8eOORwOXNJisSQkJCgUiiNHjlgsFkHmwoVnOcEwzL59+xITE202G7/pkZGRuLg46TWPU4uSDgeQBfbz+fPn4eHhZWVlYnoPDAzAGltSUiI4lGHGqlSqvr4+EPLs2bOwN9ezZ8/ExM5OPpBFaGjo3bt3xVqcmprauHGjUqlsa2sD262lpYVT2B85nCpv9dNutyclJeXn53s8HumK/f39arUaIaTX68nCJpPpo48+GhgYkK4+V3f7+/tDQkLOnj0rqEBFRUVoaOiDBw8E7/IzKenwMVlIOSUlJWq1ur+/X1Bpi8USExODEJJwNFit1vDw8FWrVo2Pj4OQ1tZWmUy2cePGqakpQbHzKhP0Dw8PfweP5kx1pK6uTi6XNzc3+xTo8Xj0ej1CiHxqXV1dMTExgvsXnwJnp4DH49m2bVtSUpLgNgpWKWlrlNSTkg6JxgJLwwIrxg4Oh0On0yGEdDodaclzOvn69euUlBRw6MCt4uJihFBxcTGn5Pz82d7eHhAQkJqaKtHHf1Vz4JHY2NjR0VF/GmpubpbJZAihiooKlmW7uro+/PDDq1ev+lN3DsvU1NSI7biBkvxHgJLOHD7H9226u7tbqVSKuXvPnj2LEAoMDGxra5NoCUgHO3RgtyI2vCTkzNWtqqoqhFB+fv5cKfDq1auIiIjs7GzSWSahDCwVCKGkpKS+vj5/wo4S0mbtFgw2saWorKzMf+e3b9JxOp0Q0VAqlWfOnCGRbWpqysjImH2z1uv1Xrp0acWKFUqlMiQkpL6+vq2t7ZdffsE+C7fbXVRUpFQqFy9e3NTUNDQ0lJWVpXpzVVZWkl2AZ2a1Wnfv3q1SqaYDChkZGffu3Tt+/Pjjx49ZlmUYprKyUq1WL1q06NSpUwzDPHz4cO3ateAO1Gq1vb29DMPcunUrMTERMpOTk6EuZ0D4VBvKP3z4MDk5eXpPJJfLi4qKnE7n6dOnFQoFQqiwsBD3kWVZmG9XrlzhNMSy7PDwMMSq1q9fLx1CnpiYOHLkyIsXL0CIhEMHupmcnBwYGKhSqU6cOHH//v1Tp045nU6OAgzDmEymqKiooKAghUIBKHHKuN3uioqKJUuWALZr164lB9LNmzejoqIQQhkZGYKhq4GBgZUrV2o0mqCgIIRQUFCQ5s1VW1tLNuRTzqNHj/Ly8lQqVXBwsEKhKCoqwnD19vZqtVq5XK7X68fHx+vr65ctW6ZSqVavXk2qCrtRCbcaqQ+kKyoqYKgEBgaWl5fzByS/ypznQAAuPT2d/7hZlm1qappe4U6ePOmPnj5Ix+PxfPnll0ePHrXb7ampqZGRkcPDwyB3fHx81apVpAOS397U1NTg21w2m83nA3A6nXl5ecHBwdeuXWMYxmKxaLVamUxG6mY2m7Ozs202W0pKikKhWLZsWV1dncViycjI4G/+r169qlQqs7OzJycnvV7v0aNHYUBUVVWxLNvd3a3T6Ww2W3Z2dmBgoNFoXLt27cOHD1mW7e3tVavViYmJhw4d2rp16/Pnz1mWbWtrCwwM5E91f9QGYzshIeGvv/5iGOb27dtKpTIsLEyv14+NjR06dEgul5MntYxGIw67csAH9zBCCHrBuSvxU8yh43a7f/jhB4VCUV1d7fV64UyKTCYTHAAmkyksLAwekNfrPXToEMcdwDDM8ePHo6Ki7t27x7Ksy+XKysrCvtWenp41a9Y8ffr0ypUrYkN5dHS0oaHh4sWLK1askMlkR44cuXz5ckNDA7nHkZYDPZLJZNOnliAu888//yQmJlZXV08fHXA4HBs3bmxrazObzQihsLCwDRs2DA8PV1dXc6xLCeoXw5l0J3MCbWJV5jzf4XBwGIBUCewgP+1NH6TT2dmp0+nsdjvfXdfX16dSqUgHJKkEpMvLy2H98fMvTG++HJwDpyEQQhcvXsSZsG5g18bU1FRmZmZra+vo6GhsbCxCqLy8HJ9AIbkJJrlarV67di32kEFPsa1oNBqrqqpg14oQIo8kDA4OajQawUyNRjM4OIg19EdtcqBDRdAEPI7ABQghTDrThJudnR0SEiIY8sjPz0cICTIC1kowIejQAY5ACJGRUfBN8HfyYGTl5OSA/Bs3bsjlck4xmHXYOqiurkYIwRP0eDw5OTlms5ll2bKyMoSQ2P4RDLrIyEhBEKTl4B4ZDAZsPAKkoFVra2tmZubU1BRwilartVqt+EANuaSXlpa+7W7UZrMlJCQghMLDw2GtEnwWnEyXy3Xu3LmCgoI///yTc2tGfk5OTl65cuXy5cuCgX8AJywsTDCmCWN127ZtZEhOTCsfpFNcXAzuLlg58VrEsmxNTQ1CKC8vz6dtItb2O+S3tLTI5XIO05WWlpJD89mzZzqdbnR0FGhRq9WCddbS0rJy5cr6+nqsMN5d19XVYWVgfxEREfHq1avR0dG0tLSBgQHgL45ZASXJMAQ+6MWZY/6ozbJsa2sriTDpIrVarTqdbv/+/dj4h5WHw27QC7iFEOKogfsolhBz6Dx48CA0NJQz4MAE4PsyYNFLSUkZGRlhWdZqtX7xxRd//PEH2SiYMJ9//jnY6vfu3du1axdYPfjxwdMJDAzs7Owk65JpaIszHqCAtBwwSMk5zzDMtWvXYmJi4CWG4uJiMBKBvmEWOByOvLw8vV5P7vhycnI4A4PUkJ+GFSgiIoJ0J/OLcXLgsMxnn322adOmtLQ07DW32+1bt2797rvvOOXf4eetW7cyMzNlMpmYdSzRU1iA/XTn+yAdUB3H+fDkZBgmLy/vHaz3d8ACV3G5XOvXr+cEVsTmiT+0CEwK/IJbaWxsRAhxOPvOnTtKpTIlJeX169e4pOBOBLiYrP62amP5sMaKue4kSAeTqdgOHDfhdrs7OjowkQk6dBiGKSws5GMCnj7+AMXmAEIoIiKipKRkcnIStwgJbLghhOLi4iorK7EOuGRnZ+c040iPYzHiw0JYluXLweM5NDQ0Ly/PYDDk5OQsX75cq9XevHmTrAs+BGlOkZiKpChIg4Wl0+ksFktSUhK4k7GVzS+Pc+BA1rlz59LS0g4fPowNikePHi1fvvynn37CJd8n0dTUFBQUdOfOHUEhEj2dedIhF3/Qxp+HIaj3+2TCaOaYshA74Htq8H6KPytAB8ybJEGwLAv7C2z5Q2GY/2RcGZckSQHLxMEgbPv4rza0iDd0jY2NgqBJkA62dPhmCEdUd3f3+vXr8aAXpFG8SyWRhCaUSiV/gHo8HsAQXGNAK2D14NYdDgccV8FlNm/eTPIOZjowMXBFTgIakth/CcrBPcrNzb385urq6pqYmOAIx89O2mCUmIocgcA4iYmJ4IcGtwDeyHMKc342NTWpVCrBjQ+n5Pv8LC4uluisRE9nnnT4qzeYtRL6Qc8tFgs8VD//tre3S/jVwCbn8IvgPGFZ1ict4plJ7s8hk0MQeP6DowG6JmhhAQNytiFvpTYeMRAs4IjCd1mWBQU4aEABrLC0mcAwzNdff00eMxV06MCz5vALLAASA2B4ePi3337bvn070Ao/xIbfPk1LS0MIcawJcAxJdJ9lWdxN7Oci8YG0oByYIZynzK/rj7EMaxsHHEFRLMtyXo/EJmFhYSHe8ovVLS0t5bgjxUq+c77T6UxPT5dYqHJycsS8hACpT8sadPNrewVOE3Jy+unQaWxsNLzN9e233wouOKArzF7ORCJ9jdMhWAg9+LNGYdIh5wPfpmNZFhZGjrdScCdCer4eP368c+dOcM4hhPxRe3JysrS0tKGhgWEY0qED3ccC8aiSWHlAE+lJ29LSAlECEEjSqMvlKiwshMA/kA7HeQSbUBigzc3NRUVFLMu63e69e/cGBARg64xhmKKiomljB4Nst9s3bNigVqvx9x/cbndmZiaHdEgkBwYG9uzZw4/UCj4XDA4kBOXADOG0yKkIP8W2kGRhGIG4g+QtMm02m8PDw8ljx3iXR7qWyCqQLisr02g0CoVCLpeHh4enpqZChM5ut+/evTssLAxOckAgIj8/f8mSJadOnXr+/Ller4+KitJqtdevXyfF9vT0pKena7XagoKCs2fP3rp1C+7CkCbtWbIWDA/OMMAFgEBx9ADnCyb8Ih3wpWFY8SZCTD/Blt4/E0Y/OXvtdjscmWlqaoIYJ3Y6Ai1K0Dbef+F+TRtZBw8exGEUrDDMf58OHbzwgueroqICDob7qTbeCEAHS0pKEEL4KcLrvJyT5hJxE5vNBueGjh49KriKdnV1JSQk9Pb24m7CVASeGhgYSEtLg8EN5hs52txuN3j0Tp48yTDMzp07ocvguUcIYd8fbELJSQUHOkj3MOBGxtTxbATyKisr43QcdIbmJKwtMTkwf/jmCcMwv/76K24LG8v8LSQGjWVZ8CtJz4WOjg7BFx04p5NJsWSaf2qcYZiSkpLbt2/X1NTgR1P/5iorK1MoFLt27RobGwP8SQPEZDLFxsY+efKEZdmLFy+SJxKkHTqgA2cWYCXB6Smxz8UlWda///cKlgtwXni93urqarlc7s9CQbb0/mmXy7V582Y8gsfGxqY/XwKa3Llzp62tbdu2bdgv4M8a1dPTo1arc3NzXS7X5ORkQUEB7AX8ceiA9Uc6dMA6BVgsFkt6evrTp0/hEIo/asNMUCgUlZWVz549g8NHmDSvXr2alJREnkljWRbMDbHhfvfu3dDQUITQkSNHMCygT2Vl5cqVK0nGweFnGMHkPIe4CaYJl8tlMBgWLVqEEDKbzU+fPtXpdBAffP78OXiOcRC6o6MjODiYfPOrs7NTrVafP38eqJBhmPr6eqVSSX4MCJAE+nvy5MnmzZs5HYexBPzFccmRw0xCTmNjo1wuJ08ATE5OFhYWkiD73EJCW7CocPx9LMt6vd6RkZH+/v7du3eDY+vBgwek92BiYuLatWvw/ufKlSvv378/PDyMoSM7wrdBLBbLgQMHXC6XXq/HRw3279//6tUro9EYHR2NvzpgNBrxOg1RSOwma21tnQ6P4G9oSDt0QAexaDWs8djCJZXnp/2ydMBslslkKSkpMTEx0dHR0/thwTglv4GZzbFaratXr9ZoNJs2bVq+fHl9ff3t27fVanVUVFR0dDS2XZ1OZ0ZGBieYLajJzZs34+LiEEJLliw5duzYmjVr+I69PXv2yGQy8nU+j8eTlZWF5yGWbDabP/jgg7S0NI5N66faZrN56dKlW7ZsiYyMNL+5lEplamrqqlWrOAd2oUXpccCy7IsXL1avXg2Hm9etW2cwGNLT01UqldFo5EeUGIYpLy+Xy+Wr31zkPLfb7Xq9Xq1Wb9myRaPRnDhx4smTJzExMcuWLYuMjMR8wTDMhQsXVCpVXFxcTk5OXFzcsmXLamtryZnmdrt//PFHpVL5ySef5OTkRERExMbGXr9+nWOOmUymgICApKSk6OhosVfMgfc5KwR+FpAQkwOqBgUFJSQk7Nq1C1StqKgg2bm5uRlOgXN04zQBBhGe2PgucCL2lHNO5eDdPVlAzM3U3t6uVqsxO+AmBgYGQkNDSbsSxGJqAN0wIRqNRtJLUFZWhv1EPh064DwlIyRYDdg0SO/lycJ+kQ5UmJiYGBwcnJiYgFCOP94vsqWZSsOn7cg1YerNuWd8cgEacjgcEu4hQWVgDnMi6OCy5R+Vdjgc/EzYVw8ODvLfz/Zf7cHBQdwXh8MxODgo2BD2pErsL+A1Dvy1wJKSkhs3bvB1I9GYmJggseXcIrvmdruHh4f5IEO+hNoAKZxU51fHLcJ4E9MWNmX8FQJXxwkJOdKqer3e0dFRQdMDC4dEcXExOZk5d9//Z1VVlWDEoKKiAhv+0ApYZ5gaOjs7VSoVrJfAR3h/BABiO5FvTHHULi4u5rSFCwC1kUfM8C3BhA/SYRjmzJkzK1aswG/Bgur8RV5Q+nzOnJqa4kxmwRM687kL4FBQKBSkFTbPFX5P9bxeb3t7e0dHx8jISOybi3zv4T2Fv3N12GHhbcs7yxGrmJ+fj8kCl4GZWFhY6HQ6jx07BqZrY2MjGVkvKSmBw7G1tbVtbW2pqanYSwiuupMnTz5+/Pjnn39ubW1Vq9V37ty5dOkS37QEWhGzM9rb25VKpf+D0AfpwOlmhBAYsfjw+L59+6RtTgzN/ExYrVZ4HxJHW8FhJJPJyLj4/FSe1ApGnthXMsmS/xtpeHVeo9FcuXJFqVRip+/c9s7j8eTn54t9W+89dYOND/+1pr6+vtDQ0Obm5ra2tuPHj0MrxcXF2O8BY8NoNNpstsLCQpvNptfrwUsI7xhOH+5vbW2tqqqa9mdDjOzly5fgGOLoXFdXFxwcjAOO5F3w1kt/PoUs79uRDHQILxyCCzkgIGDv3r3+2JyclubVz46OjsA3F0S7nE7nvn37ZDLZN998s+C61tXVFRYWxv9c3rwCfKaUgUDqnj17vv/+e3gfaqYkv6ccePGYPPT0ngJxdVj4+eGCkZGRhIQEg8Gwc+dOON4J9IQ9OAzD7N+/f/369Xq9HoyX3t7ejz/++ODBg5mZmadPn163bt2OHTt27drlcDh6enoiIyNzc3P59prNZktKSiKjAVg3eMNZo9Fgdyp5Syztw9JhWbahoUGlUsFL/YmJibdu3VrQNg4AASyjVCrD31wKhSI5OXmBdg3Mz/j4eM6pX7FHvqDz7969u2TJkuDg4BUrVnCib3PeL5PJpNFo/P9qp58Kt7e3L126VPAsstvtHh0dJf30drudXDXBk0j6xSCmBjler9dms+HqfIcD+AQlPr0OH58Q4yOxDvomHWh4bGyM7IyYuAWXL+YPXlgdgcBTXl4e/wTdwuqIP9pOH2h6/fr1/Fz5zGbzhg0byNdB/emRYBm3211YWJiVlXXq1Cn+l1IEq/wbmSaTKTMzE78oQzYBQe13+B6QX6RDtkTT8xMBhmH+VxeG+Qm4mFYTExOkZSFWzGf+8PBwdHS0wWDYunWrn+dffMp82wLSg8rtdo+Njb0D+1PSedsHQctTBGYDAYZhGhoaCgoKFuiuXwIjSjoS4NBbFAGKwMwjQEln5jGlEikCFAEJBCjpSIBDb1EEKAIzjwAlnZnHlEqkCFAEJBCgpCMBDr1FEaAIzDwClHRmHlMqkSJAEZBAgJKOBDj0FkWAIjDzCFDSmXlMqUSKAEVAAgFKOhLg0FsUAYrAzCNASWfmMaUSKQIUAQkEKOlIgENvUQQoAjOPACWdmceUSqQIUAQkEKCkIwEOvUURoAjMPAKUdGYeUyqRIkARkECAko4EOPQWRYAiMPMI/B+EBSlglL3WzgAAAABJRU5ErkJggg==;" vertex="1" parent="1">
          <mxGeometry x="491.82" y="960" width="89.41" height="12" as="geometry" />
        </mxCell>
      </root>
    </mxGraphModel>
  </diagram>
</mxfile>
